<svg width="120" height="19" viewBox="0 0 120 19" fill="none" xmlns="http://www.w3.org/2000/svg">
<path d="M11.2929 5.24628V6.9697C10.7965 6.46281 10.2505 6.00661 9.5556 5.65179C8.76142 5.27163 7.86797 5.04353 6.92488 4.99284C6.00662 4.96749 5.06353 5.11956 4.21971 5.47438C3.35108 5.80386 2.58172 6.31074 1.93645 6.91901C0.670731 8.18623 -0.0241755 9.8843 0.000642612 11.557C-0.0241755 13.2551 0.670731 14.9532 1.93645 16.2204C2.58172 16.8287 3.35108 17.3355 4.21971 17.665C5.06353 18.0198 6.00662 18.1719 6.92488 18.1466C7.86797 18.1212 8.76142 17.8678 9.58042 17.4876C10.2505 17.1328 10.7965 16.6766 11.2929 16.1697V17.9185H14.6681V5.24628H11.2929ZM10.871 13.1284C10.6228 13.5846 10.2257 13.9901 9.77896 14.2942C9.33224 14.573 8.86069 14.7758 8.36433 14.9025C7.89279 15.0039 7.39643 15.0292 6.92488 15.0039C5.9818 14.9532 5.11316 14.5983 4.44308 13.9647C4.09562 13.6606 3.82263 13.2804 3.62408 12.8749C3.45035 12.4694 3.35108 12.0132 3.35108 11.557C3.35108 11.1262 3.45035 10.67 3.62408 10.2645C3.82263 9.85895 4.09562 9.47879 4.44308 9.17465C5.11316 8.54105 5.9818 8.18623 6.92488 8.11019C7.39643 8.08485 7.89279 8.13554 8.36433 8.23691C8.86069 8.33829 9.35705 8.54105 9.77896 8.84518C10.2257 9.14931 10.6228 9.55482 10.871 10.011C11.144 10.4926 11.2929 11.0248 11.2929 11.557C11.2929 12.1146 11.144 12.6468 10.871 13.1284Z" fill="current"/>
<path d="M34.3151 14.7758H25.8274V0.329475H22.3032V18.0452H34.3151V14.7758Z" fill="current"/>
<path d="M39.1256 17.8931V5.24628H35.7503V17.8931H39.1256ZM37.4379 4.00441C38.5299 4.00441 39.3986 3.09201 39.3986 2.0022C39.3986 0.887052 38.5299 0 37.4379 0C36.3708 0 35.5021 0.887052 35.5021 2.0022C35.5021 3.09201 36.3708 4.00441 37.4379 4.00441Z" fill="current"/>
<path d="M49.2797 17.3102C48.9157 17.6143 48.469 17.8424 47.9396 17.9945C47.4267 18.1466 46.8807 18.2226 46.3016 18.2226C44.8456 18.2226 43.7205 17.834 42.9263 17.0568C42.1321 16.2795 41.735 15.1475 41.735 13.6606V1.52066H44.8373V4.61267H48.3863V7.14711H44.8373V13.5846C44.8373 14.2435 44.9945 14.7504 45.3088 15.1052C45.6398 15.4432 46.0948 15.6121 46.6738 15.6121C47.3687 15.6121 47.9478 15.4263 48.4111 15.0545L49.2797 17.3102Z" fill="current"/>
<path d="M58.2823 17.3102C57.9183 17.6143 57.4716 17.8424 56.9422 17.9945C56.4293 18.1466 55.8833 18.2226 55.3042 18.2226C53.8482 18.2226 52.7231 17.834 51.9289 17.0568C51.1347 16.2795 50.7376 15.1475 50.7376 13.6606V1.52066H53.8399V4.61267H57.3889V7.14711H53.8399V13.5846C53.8399 14.2435 53.9971 14.7504 54.3115 15.1052C54.6424 15.4432 55.0974 15.6121 55.6764 15.6121C56.3714 15.6121 56.9504 15.4263 57.4137 15.0545L58.2823 17.3102Z" fill="current"/>
<path d="M62.9009 17.9185V0.17741H59.5505V17.9185H62.9009Z" fill="current"/>
<path d="M78.1147 12.8242C78.1892 12.4187 78.2388 11.9879 78.2388 11.557C78.2388 7.95813 75.1117 4.99284 71.2897 4.99284C67.4429 4.99284 64.3407 7.95813 64.3407 11.557C64.3407 15.1813 67.6415 18.1466 71.7365 18.1466C74.2679 18.1466 76.576 17.0061 77.9162 15.1813L74.7146 13.8887C73.9701 14.5983 72.9029 15.0039 71.7365 15.0039C70.024 15.0039 68.5598 14.0915 67.9889 12.8242H77.3205H78.1147ZM67.9393 10.3152C68.4605 9.04793 69.7758 8.13554 71.2897 8.13554C72.8036 8.13554 74.0942 9.04793 74.6154 10.3152H67.9393Z" fill="current"/>
<path d="M97.8936 6.91901C97.2731 6.31074 96.4789 5.80386 95.6351 5.47438C94.7665 5.11956 93.8234 4.96749 92.9051 4.99284C91.9869 5.04353 91.0686 5.27163 90.2744 5.65179C89.6043 5.98127 89.0335 6.43747 88.5372 6.94435V0.17741H85.1867V17.9185H88.5372V16.195C89.0335 16.7019 89.6043 17.1581 90.2744 17.4876C91.0686 17.8678 91.9869 18.1212 92.9051 18.1466C93.8234 18.1719 94.7665 18.0198 95.6351 17.665C96.4789 17.3355 97.2731 16.8287 97.8936 16.2204C99.1593 14.9532 99.8542 13.2551 99.8542 11.557C99.8542 9.8843 99.1593 8.18623 97.8936 6.91901ZM96.2059 12.8749C96.0074 13.2804 95.7344 13.6606 95.3869 13.9647C94.7169 14.573 93.8482 14.9532 92.9051 15.0039C92.4336 15.0292 91.9372 15.0039 91.4657 14.9025C90.9693 14.7758 90.4978 14.573 90.0511 14.2942C89.6043 13.9901 89.2321 13.5846 88.9591 13.1284C88.6861 12.6468 88.5372 12.1146 88.5372 11.557C88.5372 11.0248 88.6861 10.4926 88.9591 10.011C89.2073 9.55482 89.6043 9.14931 90.0511 8.84518C90.4978 8.54105 90.9693 8.33829 91.4657 8.23691C91.9372 8.13554 92.4336 8.08485 92.9051 8.11019C93.8482 8.18623 94.7169 8.54105 95.3869 9.17465C95.7344 9.47879 96.0074 9.85895 96.2059 10.2645C96.3797 10.67 96.4789 11.1008 96.4789 11.557C96.4789 12.0132 96.3797 12.4694 96.2059 12.8749Z" fill="current"/>
<path d="M104.887 17.8931V5.24628H101.512V17.8931H104.887ZM103.2 4.00441C104.292 4.00441 105.16 3.09201 105.16 2.0022C105.16 0.887052 104.292 0 103.2 0C102.133 0 101.264 0.887052 101.264 2.0022C101.264 3.09201 102.133 4.00441 103.2 4.00441Z" fill="current"/>
<path d="M114.91 17.3102C114.546 17.6143 114.099 17.8424 113.57 17.9945C113.057 18.1466 112.511 18.2226 111.932 18.2226C110.476 18.2226 109.351 17.834 108.556 17.0568C107.762 16.2795 107.365 15.1475 107.365 13.6606V1.52066H110.467V4.61267H114.016V7.14711H110.467V13.5846C110.467 14.2435 110.625 14.7504 110.939 15.1052C111.27 15.4432 111.725 15.6121 112.304 15.6121C112.999 15.6121 113.578 15.4263 114.041 15.0545L114.91 17.3102Z" fill="current"/>
<path d="M118.039 18.4C119.131 18.4 120 17.5129 120 16.3978C120 15.308 119.131 14.3956 118.039 14.3956C116.972 14.3956 116.104 15.308 116.104 16.3978C116.104 17.5129 116.972 18.4 118.039 18.4ZM119.528 12.3174L119.727 0.101378H116.352L116.575 12.3174H119.528Z" fill="current"/>
</svg>
