<svg width="31" height="24" viewBox="0 0 31 24" fill="none" xmlns="http://www.w3.org/2000/svg">
<path d="M25.3428 1.35034C28.747 4.26956 33.6643 13.7862 25.721 22.5439" stroke="white" stroke-width="2" stroke-linecap="round"/>
<path d="M8.006 16.9043H0.999999C0.447714 16.9043 0 16.4566 0 15.9043V7.74545C0 7.19316 0.447715 6.74545 1 6.74545H8.4427L15.0173 1.47228C15.6719 0.947289 16.643 1.41328 16.643 2.25237V21.7477C16.643 22.5868 15.6719 23.0528 15.0173 22.5278L8.006 16.9043Z" fill="white"/>
<path d="M19.2908 6.9552C20.5516 8.29804 22.3168 12.1047 19.2908 16.5886" stroke="white" stroke-width="2" stroke-linecap="round"/>
<path d="M22.5059 4.15271C24.7123 6.60486 27.8014 13.1906 22.5059 19.9165" stroke="white" stroke-width="2" stroke-linecap="round"/>
</svg>
