<svg width="23" height="33" viewBox="0 0 36 46" fill="none" xmlns="http://www.w3.org/2000/svg">
<path d="M10.0307 5.85884C10.0307 5.38209 10.3672 4.97164 10.8347 4.87822L33.9122 0.266614C34.531 0.142969 35.1082 0.616245 35.1082 1.24723L35.1081 34.0856C35.1081 34.096 35.0997 34.1045 35.0893 34.1045C35.0789 34.1045 35.0705 34.1128 35.0704 34.1232C35.0459 36.3476 33.7481 38.5617 31.5201 39.7645C28.352 41.4749 24.5028 40.4927 22.9227 37.5708C21.3426 34.6488 22.6299 30.8936 25.798 29.1833C27.3278 28.3574 29.0165 28.1593 30.5318 28.5043C31.2706 28.6726 32.0988 28.1705 32.0988 27.4128V12.3723C32.0988 11.7413 31.5216 11.268 30.9029 11.3916L13.844 14.8005C13.3765 14.894 13.04 15.3044 13.04 15.7812V39.052C13.04 39.0872 13.0114 39.1158 12.9762 39.1158C12.9427 39.1158 12.9149 39.1417 12.9122 39.175C12.7435 41.2579 11.4718 43.2775 9.38085 44.4064C6.21275 46.1167 2.36357 45.1345 0.783462 42.2126C-0.796648 39.2907 0.490668 35.5355 3.65876 33.8251C5.20656 32.9895 6.91693 32.7966 8.44584 33.1586C9.18902 33.3345 10.0307 32.8311 10.0307 32.0674L10.0307 14.0594L10.0307 5.85884Z" fill="white"/>
</svg>
