<svg width="23" height="35" viewBox="0 0 27 39" fill="none" xmlns="http://www.w3.org/2000/svg">
<path d="M10.9102 2.40976V30.8298L4.35017 24.2198C3.90328 23.7729 3.29717 23.5218 2.66518 23.5218C2.03318 23.5218 1.42707 23.7729 0.980179 24.2198C0.533289 24.6666 0.282227 25.2728 0.282227 25.9048C0.282227 26.5368 0.533289 27.1429 0.980179 27.5898L11.6502 38.2698C11.8713 38.4914 12.1339 38.6672 12.423 38.7872C12.7122 38.9072 13.0221 38.969 13.3352 38.969C13.6482 38.969 13.9582 38.9072 14.2473 38.7872C14.5365 38.6672 14.7991 38.4914 15.0202 38.2698L25.7002 27.5898C26.1471 27.1429 26.3981 26.5368 26.3981 25.9048C26.3981 25.2728 26.1471 24.6666 25.7002 24.2198C25.2533 23.7729 24.6472 23.5218 24.0152 23.5218C23.3832 23.5218 22.7771 23.7729 22.3302 24.2198L15.7202 30.8298V2.40976C15.7202 1.77854 15.4694 1.1732 15.0231 0.726868C14.5767 0.280531 13.9714 0.0297852 13.3402 0.0297852C12.709 0.0297852 12.1036 0.280531 11.6573 0.726868C11.2109 1.1732 10.9602 1.77854 10.9602 2.40976H10.9102Z" fill="white"/>
</svg>
