<svg width="38" height="39" viewBox="0 0 38 39" fill="none" xmlns="http://www.w3.org/2000/svg">
<path d="M19.0305 38.56C29.4134 38.56 37.8304 30.1429 37.8304 19.7599C37.8304 9.377 29.4134 0.959961 19.0305 0.959961C8.6475 0.959961 0.230469 9.377 0.230469 19.7599C0.230469 30.1429 8.6475 38.56 19.0305 38.56Z" fill="black"/>
<path d="M4.45007 23.4001C3.96947 23.1232 3.5114 22.8089 3.08008 22.4601L3.15008 22.3701C5.0564 23.7686 7.23232 24.7561 9.54008 25.2701C12.6403 26.0445 15.8246 26.4308 19.0201 26.4201C25.7701 26.4201 31.8501 24.9701 34.8801 22.5401L34.9501 22.6301C33.0166 24.0159 30.8171 24.9862 28.4901 25.4801C22.2358 26.9268 15.7304 26.896 9.49007 25.3901C7.7301 24.9506 6.03557 24.2815 4.45007 23.4001Z" fill="white"/>
<path opacity="0.3" d="M3.40008 15.9398L3.33008 15.8498C6.44008 13.4998 12.4701 12.0598 19.0601 12.0898C25.6501 12.1198 31.7201 13.6198 34.8001 16.0098L34.7201 16.1098C31.6701 13.7298 25.6701 12.2298 19.0601 12.1998C12.4501 12.1698 6.49008 13.5998 3.40008 15.9398Z" fill="white"/>
<path opacity="0.3" d="M3.0993 22.19L3.0293 22.09C5.06963 20.8139 7.32176 19.9131 9.6793 19.43C15.8323 18.0828 22.2065 18.1067 28.3493 19.5C30.7061 20.002 32.9524 20.9269 34.9793 22.23L34.9093 22.32C31.6393 20.02 25.5393 18.58 19.0093 18.55C12.4793 18.52 6.3493 19.92 3.0993 22.19Z" fill="white"/>
<path d="M7.52992 12.93C6.68488 12.4877 5.96059 11.8458 5.41992 11.06L5.51992 11C7.08992 13.5 12.6599 15.27 19.0499 15.3C25.4399 15.33 31.0499 13.61 32.6199 11.12L32.7199 11.18C31.1099 13.7 25.4899 15.44 19.0499 15.41C14.3499 15.39 10.0999 14.43 7.52992 12.93Z" fill="white"/>
<path d="M11.5205 8.60016C10.4405 7.96016 9.85048 7.21016 9.86048 6.41016H9.97048C9.97048 7.19016 10.5705 7.90015 11.5805 8.50015C13.9099 9.63544 16.4803 10.1879 19.0705 10.1102C24.0705 10.1102 28.2005 8.51015 28.2105 6.50015H28.3505C28.3505 7.50015 27.3505 8.50016 25.6105 9.16016C21.3914 10.5884 16.8162 10.5672 12.6105 9.10016C12.2341 8.96354 11.8695 8.79632 11.5205 8.60016Z" fill="white"/>
<path d="M5.14062 18.09C4.40313 17.6799 3.72938 17.1645 3.14062 16.56L3.22063 16.48C4.95153 18.0587 7.0645 19.1582 9.35062 19.67C15.7099 21.3594 22.396 21.3904 28.7706 19.76C31.0374 19.2617 33.1359 18.1831 34.8606 16.63L34.9506 16.71C33.2066 18.2769 31.0887 19.3686 28.8006 19.88C22.4057 21.5106 15.7002 21.4796 9.32063 19.79C7.86349 19.395 6.45984 18.8241 5.14062 18.09Z" fill="white"/>
<path opacity="0.3" d="M6.21039 10.0598L6.15039 9.94978C10.133 7.89378 14.552 6.82679 19.0339 6.83897C23.5159 6.85115 27.9291 7.94216 31.9004 10.0198H32.0004L31.9404 10.1198H31.8504C27.8947 8.05409 23.5002 6.97029 19.0377 6.95985C14.5752 6.94941 10.1757 8.01263 6.21039 10.0598Z" fill="white"/>
<path d="M7.41023 30.5901C7.09023 30.4101 6.79023 30.2101 6.49023 30.0101L6.56023 29.9102C9.56023 31.9902 14.0602 33.2002 18.9502 33.2202C23.8402 33.2402 28.4502 32.0602 31.4502 29.9702L31.5202 30.0702C29.8505 31.1692 28.0083 31.9804 26.0702 32.4702C23.7454 33.0715 21.3515 33.364 18.9502 33.3401C14.9321 33.4219 10.9597 32.4753 7.41023 30.5901Z" fill="white"/>
<path opacity="0.3" d="M6.08984 29.4202V29.3202C8.41984 28.2102 13.5098 27.5102 19.0898 27.5302C24.6698 27.5502 29.6998 28.3002 32.0198 29.4302V29.5302C29.7098 28.4102 24.6498 27.6702 19.1398 27.6502C13.6298 27.6302 8.40984 28.3202 6.08984 29.4202Z" fill="white"/>
<path d="M10.8897 33.76C9.65802 33.0481 8.52786 32.1736 7.52969 31.16C4.64393 28.2452 2.9745 24.3422 2.85984 20.2421C2.74518 16.1421 4.19387 12.1519 6.91222 9.08041C9.63057 6.00892 13.4152 4.08603 17.4987 3.70156C21.5823 3.31709 25.6593 4.49981 28.9032 7.00994C32.147 9.52007 34.315 13.1698 34.9677 17.2192C35.6203 21.2686 34.7087 25.4146 32.4177 28.8167C30.1266 32.2189 26.6277 34.6226 22.63 35.5405C18.6324 36.4585 14.4354 35.8219 10.8897 33.76ZM27.1097 5.85998C24.5171 4.35557 21.5555 3.60623 18.5594 3.69666C15.5633 3.78709 12.6522 4.71368 10.1551 6.37171C7.65799 8.02974 5.67437 10.3531 4.42838 13.0793C3.18239 15.8055 2.72371 18.8259 3.10417 21.7991C3.48463 24.7723 4.68905 27.5798 6.58136 29.9044C8.47366 32.229 10.9784 33.9781 13.8126 34.9539C16.6467 35.9298 19.6973 36.0935 22.6196 35.4266C25.5419 34.7597 28.2195 33.2887 30.3497 31.18C32.1028 29.4428 33.4325 27.3255 34.2359 24.9919C35.0392 22.6583 35.2946 20.1711 34.9823 17.723C34.67 15.2748 33.7984 12.9314 32.4349 10.8742C31.0714 8.81707 29.2528 7.10136 27.1197 5.85998H27.1097Z" fill="white"/>
<path d="M12.9293 34.2901C11.6394 33.5319 10.4838 32.5655 9.50931 31.4301C6.99049 28.3876 5.62057 24.5568 5.63885 20.607C5.65713 16.6572 7.06243 12.8393 9.60931 9.82015C10.7633 8.42476 12.2126 7.3028 13.8526 6.53516C15.4926 5.76752 17.2825 5.37332 19.0932 5.38097C20.904 5.38862 22.6905 5.79793 24.3239 6.57941C25.9574 7.36088 27.3971 8.49504 28.5393 9.90013C31.0532 12.9425 32.421 16.7699 32.4045 20.7164C32.3881 24.663 30.9885 28.4789 28.4493 31.5001C27.2816 32.8813 25.8288 33.9932 24.1907 34.7597C22.5525 35.5261 20.7679 35.9288 18.9593 35.9401C16.8388 35.9326 14.7582 35.3632 12.9293 34.2901ZM25.0593 7.14014C23.2395 6.07253 21.1691 5.50663 19.0593 5.50014C17.2673 5.50888 15.4986 5.90688 13.8755 6.6666C12.2525 7.42632 10.8139 8.52961 9.65931 9.90013C7.09202 12.875 5.69197 16.6807 5.71931 20.6101C5.64525 23.3083 6.27476 25.9792 7.54594 28.3602C8.81712 30.7413 10.6862 32.7505 12.9693 34.1901C14.7885 35.2591 16.8593 35.8251 18.9693 35.8301C26.2793 35.8301 32.2693 29.0901 32.3093 20.7301C32.3714 16.8003 31.0072 12.9812 28.4693 9.98014C27.4934 8.85558 26.3418 7.8965 25.0593 7.14014Z" fill="white"/>
<path d="M16.19 35.1699C14.7418 34.2447 13.5623 32.9549 12.77 31.4299C11.0991 28.0735 10.2378 24.3723 10.2551 20.623C10.2725 16.8738 11.168 13.1807 12.87 9.83992C14.54 6.95992 16.75 5.36993 19.1 5.37993C21.45 5.38993 23.64 6.99992 25.28 9.89992C26.9509 13.2563 27.8122 16.9575 27.7948 20.7068C27.7774 24.4561 26.8819 28.1491 25.18 31.4899C23.51 34.3799 21.3 35.9599 18.96 35.9499C17.9836 35.9413 17.0273 35.672 16.19 35.1699ZM21.79 6.26993C20.9764 5.77337 20.0431 5.50722 19.09 5.49992C14.33 5.49992 10.42 12.2599 10.38 20.6299C10.2872 24.3662 11.1439 28.0649 12.87 31.3799C13.6552 32.8813 14.8207 34.1502 16.25 35.0599C17.0665 35.5582 18.0034 35.8244 18.96 35.8299C23.72 35.8299 27.63 29.0699 27.67 20.7099C27.7 13.9899 25.23 8.26993 21.79 6.26993Z" fill="white"/>
<path d="M18.4401 35.7999C17.6601 35.3399 16.9401 33.7999 16.4401 31.4299C15.073 24.3049 15.107 16.9819 16.5401 9.86987C17.2301 6.96987 18.1601 5.37988 19.1501 5.37988C20.1401 5.37988 21.0401 6.98987 21.7101 9.89987C22.4416 13.4451 22.777 17.0606 22.7101 20.6799C22.7386 24.3026 22.3697 27.9176 21.6101 31.4599C20.9201 34.3599 19.9901 35.9599 19.0101 35.9499C18.8094 35.9583 18.6107 35.906 18.4401 35.7999ZM19.5501 5.62988C19.4119 5.54445 19.2526 5.49941 19.0901 5.49988C18.1801 5.49988 17.2701 7.09987 16.6001 9.89987C15.8392 13.4317 15.4737 17.0372 15.5101 20.6499C15.4491 24.2623 15.7845 27.8706 16.5101 31.4099C17.1601 34.2199 18.0501 35.8299 18.9701 35.8299C19.8901 35.8299 20.7901 34.2299 21.4601 31.4299C22.2204 27.8978 22.5893 24.2927 22.5601 20.6799C22.6165 17.0676 22.2812 13.4599 21.5601 9.91988C21.0101 7.57988 20.3501 6.06988 19.5501 5.62988Z" fill="white"/>
<path d="M15.9004 6.00016C15.6104 5.83016 15.4404 5.63016 15.4404 5.42016C15.4404 4.77016 17.0504 4.26016 19.1004 4.27016C21.1504 4.28016 22.7604 4.80017 22.7504 5.46017C22.7504 6.11017 21.1404 6.62016 19.0904 6.61016C17.9943 6.65566 16.9025 6.44688 15.9004 6.00016ZM22.2504 5.00016C21.2591 4.56599 20.1817 4.36419 19.1004 4.41016C17.1904 4.41016 15.5604 4.87016 15.5604 5.41016C15.5604 5.95016 17.1804 6.47016 19.0904 6.48016C21.0004 6.49016 22.6304 6.02016 22.6404 5.48016C22.6404 5.29016 22.5004 5.13016 22.2504 4.98016V5.00016Z" fill="white"/>
<path d="M10.6801 6.01976L10.6201 5.91975C11.3648 5.5929 12.1476 5.36107 12.9501 5.22975C14.993 4.86997 17.0872 4.92097 19.1101 5.37976V5.49976C16.315 4.78576 13.3663 4.96765 10.6801 6.01976Z" fill="white"/>
<path d="M15.8701 3.99013V3.87012C17.0594 4.10622 18.1722 4.6317 19.1101 5.40012L19.0201 5.48012C18.1052 4.73746 17.0246 4.22636 15.8701 3.99013Z" fill="white"/>
<path d="M19.0996 5.49988V5.37988C21.1258 4.93713 23.2201 4.90312 25.2596 5.27987C26.0575 5.42722 26.8359 5.66545 27.5796 5.98988L27.5196 6.09988C26.7894 5.76936 26.0198 5.53409 25.2296 5.39987C23.2004 5.02038 21.1154 5.0544 19.0996 5.49988Z" fill="white"/>
<path d="M19.1298 5.49992L19.0498 5.41992C19.996 4.6646 21.1112 4.14991 22.2998 3.91992V4.03992C21.1403 4.26197 20.0523 4.76308 19.1298 5.49992Z" fill="white"/>
</svg>
