<svg width="27" height="27" viewBox="0 0 27 27" fill="none" xmlns="http://www.w3.org/2000/svg">
<path d="M10.8097 21.5493C4.84332 21.5493 0 16.7059 0 10.8097C0 4.84332 4.84332 0 10.8097 0C16.7761 0 21.6195 4.84332 21.6195 10.8097C21.5493 16.7059 16.7059 21.5493 10.8097 21.5493ZM10.8097 2.10579C5.96641 2.10579 2.10579 5.96641 2.10579 10.8097C2.10579 15.5829 5.96641 19.5137 10.8097 19.5137C15.5829 19.5137 19.5137 15.653 19.5137 10.8097C19.4435 5.96641 15.5829 2.10579 10.8097 2.10579Z" fill="#2F3130"/>
<path d="M25.48 26.5329C25.1992 26.5329 24.9185 26.4627 24.7079 26.2521L16.9165 18.3905C16.4953 17.9694 16.4953 17.3376 16.9165 16.9165C17.3376 16.4953 17.9694 16.4953 18.3905 16.9165L26.1819 24.7079C26.6031 25.129 26.6031 25.7608 26.1819 26.1819C25.9714 26.3925 25.7608 26.5329 25.48 26.5329Z" fill="#2F3130"/>
</svg>
