<svg width="48" height="48" viewBox="0 0 48 48" fill="none" xmlns="http://www.w3.org/2000/svg">
<rect y="-0.000732422" width="48" height="48" rx="4" fill="#00FFF9"/>
<path d="M24.2812 20.1075L24.3316 20.938L23.4922 20.8363C20.4369 20.4465 17.7677 19.1245 15.5013 16.9043L14.3934 15.8027L14.108 16.6162C13.5036 18.4296 13.8897 20.3448 15.1488 21.6328C15.8203 22.3446 15.6692 22.4463 14.5109 22.0226C14.108 21.887 13.7554 21.7854 13.7219 21.8362C13.6044 21.9548 14.0073 23.4971 14.3262 24.1072C14.7627 24.9546 15.6524 25.7851 16.6261 26.2766L17.4487 26.6664L16.475 26.6833C15.5349 26.6833 15.5013 26.7003 15.6021 27.0562C15.9378 28.1578 17.264 29.3272 18.7413 29.8357L19.7822 30.1916L18.8756 30.7339C17.5326 31.5135 15.9546 31.9542 14.3766 31.9881C13.6211 32.005 13 32.0728 13 32.1237C13 32.2931 15.0481 33.2422 16.24 33.6151C19.8157 34.7167 24.063 34.2422 27.2526 32.3609C29.5189 31.022 31.7852 28.3612 32.8428 25.7851C33.4136 24.4123 33.9844 21.904 33.9844 20.7007C33.9844 19.9211 34.0347 19.8194 34.9748 18.8872C35.5288 18.3449 36.0492 17.7517 36.15 17.5822C36.3178 17.2602 36.3011 17.2602 35.4449 17.5483C34.018 18.0568 33.8165 17.989 34.5216 17.2263C35.042 16.684 35.6631 15.701 35.6631 15.4129C35.6631 15.362 35.4113 15.4468 35.1259 15.5993C34.8238 15.7688 34.1523 16.023 33.6486 16.1756L32.7421 16.4637L31.9195 15.9044C31.4663 15.5993 30.8283 15.2604 30.4926 15.1587C29.6364 14.9214 28.327 14.9553 27.5548 15.2265C25.4563 15.9891 24.1301 17.9551 24.2812 20.1075Z" fill="white"/>
</svg>
