<svg width="110" height="110" viewBox="0 0 110 110" fill="none" xmlns="http://www.w3.org/2000/svg">
<path d="M73.3341 18.4837L60.3037 48.7821L89.0414 32.5978L62.6075 52.3218L95.5873 52.6746L62.8328 56.5392L91.2177 73.3346L60.9193 60.3042L77.1036 89.0419L57.3796 62.608L57.0268 95.5878L53.1622 62.8334L36.3668 91.2182L49.3972 60.9198L20.6595 77.1041L47.0933 57.3801L14.1136 57.0273L46.868 53.1627L18.4831 36.3673L48.7816 49.3977L32.5973 20.66L52.3213 47.0939L52.6741 14.1141L56.5387 46.8685L73.3341 18.4837Z" fill="#FF00FE"/>
<path d="M54.702 62.28C55.562 62.28 56.282 61.58 56.282 60.7C56.282 59.84 55.562 59.12 54.702 59.12C53.822 59.12 53.122 59.84 53.122 60.7C53.122 61.58 53.822 62.28 54.702 62.28ZM59.082 50.88C58.822 48.92 57.022 47.56 54.702 47.56C52.482 47.56 50.882 48.74 50.322 50.8L52.682 51.34C52.982 50.28 53.622 49.78 54.702 49.78C55.782 49.78 56.542 50.32 56.662 51.14C56.762 51.92 56.342 52.36 55.642 53.02C55.562 53.1 55.482 53.18 55.422 53.26C55.322 53.34 55.242 53.42 55.142 53.5C54.702 53.94 54.182 54.4 53.822 55.16C53.422 55.98 53.422 56.66 53.422 57.62V57.78H55.862V57.62C55.862 56.72 55.882 56.44 56.062 56.06C56.242 55.66 56.542 55.4 56.902 55.06C57.002 54.96 57.102 54.86 57.202 54.76C57.282 54.7 57.342 54.62 57.422 54.56C58.182 53.82 59.342 52.72 59.082 50.88Z" fill="white"/>
</svg>
