<svg width="420" height="1314" viewBox="0 0 420 1314" fill="none" xmlns="http://www.w3.org/2000/svg">
<path d="M215.5 509V531.129V553.258L183 560.524L259 588.268L153 623.938L236 647.058L174 685.371L215.5 695.94V1286" stroke="#70FF00"/>
<path d="M220.243 1272.9L217.543 1287.53L228.567 1277.54L218.911 1288.86L233.457 1285.71L219.433 1290.69L233.604 1295.24L218.968 1292.54L228.966 1303.57L217.641 1293.91L220.788 1308.46L215.808 1294.43L211.261 1308.6L213.96 1293.97L202.936 1303.97L212.592 1292.64L198.046 1295.79L212.07 1290.81L197.9 1286.26L212.535 1288.96L202.537 1277.94L213.862 1287.59L210.715 1273.04L215.695 1287.07L220.243 1272.9Z" fill="white"/>
<line x1="214.5" y1="413" x2="214.5" y2="-2.18557e-08" stroke="white"/>
<path d="M206.799 505.34C206.799 509.85 210.489 513.54 214.999 513.54C219.509 513.54 223.199 509.85 223.199 505.34C223.199 500.83 219.509 497.14 214.999 497.14C210.489 497.14 206.799 500.83 206.799 505.34Z" fill="white"/>
<path d="M233.859 490.99C235.499 492.63 237.959 492.63 239.599 490.99C241.239 489.76 241.239 486.89 239.599 485.25C233.039 478.69 224.429 475 214.999 475C205.569 475 196.959 478.69 190.399 485.25C188.759 486.89 188.759 489.35 190.399 490.99C191.219 491.81 192.039 492.22 193.269 492.22C194.089 492.22 195.319 491.81 196.139 490.99C201.059 486.07 208.029 483.2 214.999 483.2C221.969 483.2 228.939 486.07 233.859 490.99Z" fill="white"/>
<path d="M250.669 478.69C251.489 478.69 252.719 478.28 253.539 477.46C254.769 475.82 254.769 473.36 254.359 471.72C244.109 461.47 230.169 455.73 215.819 455.73C201.059 455.73 187.529 461.47 177.279 471.72C175.639 473.36 175.639 475.82 177.279 477.46C178.919 479.1 181.379 479.1 183.019 477.46C191.629 468.85 203.109 463.93 215.409 463.93C227.709 463.93 239.189 468.85 247.799 477.46C248.619 478.28 249.439 478.69 250.669 478.69Z" fill="white"/>
<path d="M264.199 464.75C265.019 464.75 266.249 464.34 267.069 463.52C268.709 461.88 268.709 459.42 267.069 457.78C253.129 443.84 234.679 436.05 214.999 436.05C195.319 436.05 176.869 443.84 162.929 457.78C161.289 459.42 161.289 461.88 162.929 463.52C164.569 465.16 167.029 465.16 168.669 463.52C180.969 451.22 197.369 444.25 214.999 444.25C232.629 444.25 249.029 451.22 261.329 463.52C262.149 464.34 262.969 464.75 264.199 464.75Z" fill="white"/>
<path d="M224.092 489.34L218.212 503.012L231.18 495.709L219.252 504.609L234.133 504.769L219.353 506.513L232.162 514.091L218.49 508.211L225.793 521.179L216.893 509.251L216.733 524.133L214.99 509.353L207.411 522.161L213.291 508.489L200.323 515.792L212.251 506.892L197.369 506.733L212.149 504.989L199.341 497.41L213.013 503.29L205.71 490.323L214.61 502.25L214.769 487.369L216.513 502.149L224.092 489.34Z" fill="white"/>
<path d="M302.84 481H310.316L310.596 479.264H308.412L308.076 478.872L310.372 471.088H315.3L315.104 478.788L314.544 479.264H312.472L312.192 481H319.64L319.92 479.264H317.764L317.4 478.844L318.044 461.344H310.988L305.808 478.76L305.22 479.264H303.12L302.84 481ZM311.044 468.876L312.752 463.108H315.636L315.384 468.876H311.044ZM324.001 481H332.037L332.793 476.268H330.609L330.189 478.956H325.233L323.581 476.548L325.289 465.88L327.809 463.388H332.709L332.261 466.076H334.445L335.201 461.344H327.081L323.133 465.124L321.201 477.136L324.001 481ZM338.029 481H346.065L346.821 476.268H344.637L344.217 478.956H339.261L337.609 476.548L339.317 465.88L341.837 463.388H346.737L346.289 466.076H348.473L349.229 461.344H341.109L337.161 465.124L335.229 477.136L338.029 481ZM348.296 481H362.1L362.856 476.324H361.008L360.672 478.368C360.672 478.368 360.364 478.676 360.112 478.928H353.364L354.456 472.208H363.5L363.836 470.136H354.792L355.856 463.416H362.688L363.024 463.864L362.66 465.992H364.508L365.264 461.344C365.264 461.344 354.372 461.344 353.98 461.652L354.372 461.344H351.012L350.704 463.108H353.196L353.672 463.528L352.048 473.552L351.236 478.732L350.648 479.208H348.576L348.296 481ZM364.828 481H372.864L376.812 477.22L377.904 470.416H368.832L369.56 465.88L372.08 463.388H376.868L376.42 466.076H378.604L379.388 461.344H371.352L367.376 465.124L366.2 472.488H375.272L374.656 476.464L372.136 478.956H367.348L367.796 476.268H365.584L364.828 481ZM378.938 481H386.974L390.922 477.22L392.014 470.416H382.942L383.67 465.88L386.19 463.388H390.978L390.53 466.076H392.714L393.498 461.344H385.462L381.486 465.124L380.31 472.488H389.382L388.766 476.464L386.246 478.956H381.458L381.906 476.268H379.694L378.938 481ZM414.435 477.108H416.535L419.363 461.344H416.731L414.435 477.108ZM413.539 481H416.227L416.619 478.424H413.959L413.539 481Z" fill="white"/>
<path d="M0.84 482H8.288L8.568 480.264H6.412L6.048 479.844L7.924 468.336L13.748 479.872L13.272 480.264H11.2L10.92 482H18.368L18.648 480.264H16.492L16.156 479.844L18.592 464.584L19.18 464.108H21.252L21.532 462.344H14.084L13.804 464.108H15.96L16.324 464.5L14.476 476.036L8.624 464.472L9.1 464.108H11.172L11.452 462.344H4.004L3.724 464.108H5.88L6.244 464.5L3.78 479.788L3.192 480.264H1.12L0.84 482ZM20.6207 482H34.4247L35.1807 477.324H33.3327L32.9967 479.368C32.9967 479.368 32.6887 479.676 32.4367 479.928H25.6887L26.7807 473.208H35.8247L36.1607 471.136H27.1167L28.1807 464.416H35.0127L35.3487 464.864L34.9847 466.992H36.8327L37.5887 462.344C37.5887 462.344 26.6967 462.344 26.3047 462.652L26.6967 462.344H23.3367L23.0287 464.108H25.5207L25.9967 464.528L24.3727 474.552L23.5607 479.732L22.9727 480.208H20.9007L20.6207 482ZM39.5281 482H47.0041L47.2841 480.236H45.1001L44.7641 479.844L47.2281 464.584L47.7881 464.108H50.9241L51.2601 464.556L50.9241 466.684H52.7721L53.4721 462.344H39.3881L38.6881 466.684H40.5361L40.8441 464.612L41.4321 464.108C41.4321 464.108 44.3721 464.108 44.7641 463.8L44.4001 464.108H44.5681L44.9321 464.5L42.4681 479.76L41.8801 480.236H39.8081L39.5281 482ZM59.1668 482H61.8268L66.9228 468.252L67.9868 482H70.6188L77.0588 464.64L77.9548 464.108H80.0548L80.3628 462.344H72.8868L72.6068 464.108H74.6788L74.8188 464.388L69.8348 478.22L68.9108 464.5C68.9108 464.5 69.1348 464.22 69.2188 464.108H71.2628L71.5428 462.344H64.0668L63.7868 464.108H65.8868L66.0268 464.388L61.0148 478.22L60.1188 464.5L60.4268 464.108H62.4428L62.7508 462.344H55.2748L54.9948 464.108H57.2068L57.8228 464.584L59.1668 482ZM81.0366 482H87.9526L91.9286 478.22L93.8606 466.208L91.0606 462.344H84.1166L80.1686 466.124L78.2366 478.136L81.0366 482ZM82.2686 479.956L80.6166 477.548L82.3246 466.88L84.8446 464.388H89.8006L91.4526 466.796L89.7446 477.464L87.2246 479.956H82.2686ZM92.9449 482H100.393L100.673 480.264H98.5169L98.1529 479.844L98.9089 475.28L99.2169 473.236H102.465L104.845 475.224L104.117 479.788L103.529 480.264H101.457L101.177 482H108.625L108.905 480.264H106.749L106.385 479.872L107.309 474.188L105.601 472.76L108.905 469.456L109.437 466.208L106.609 462.344H95.6609L95.3529 464.108H97.8449L98.3209 464.528L96.6969 474.58L95.8849 479.788L95.2969 480.264H93.2249L92.9449 482ZM99.5529 471.192L100.645 464.388H105.377L107.029 466.796L106.721 468.7L104.201 471.192H99.5529ZM110.855 482H118.275L118.555 480.264H116.399L116.063 479.844L117.211 472.676H117.547L121.355 480.264H119.395L119.115 482H126.563L126.843 480.264H124.155L120.375 472.676C120.375 472.676 120.515 472.676 120.879 472.2L120.823 472.536L129.587 462.372L126.731 462.344L119.675 470.492H117.575L118.639 463.8L117.071 462.4H113.543L113.263 464.136H115.755L116.231 464.584L113.767 479.788L113.207 480.264H111.135L110.855 482Z" fill="white"/>
</svg>
