<svg width="164" height="1675" viewBox="0 0 164 1675" fill="none" xmlns="http://www.w3.org/2000/svg">
<path d="M82.5 412V434.129V456.258L50 463.524L126 491.268L20 526.938L103 550.058L41 588.371L82.5 598.94V1675" stroke="#70FF00"/>
<line x1="81.5" y1="316" x2="81.5" y2="-2.18557e-08" stroke="white"/>
<path d="M73.7992 408.34C73.7992 412.85 77.4892 416.54 81.9992 416.54C86.5092 416.54 90.1992 412.85 90.1992 408.34C90.1992 403.83 86.5092 400.14 81.9992 400.14C77.4892 400.14 73.7992 403.83 73.7992 408.34Z" fill="white"/>
<path d="M100.859 393.99C102.499 395.63 104.959 395.63 106.599 393.99C108.239 392.76 108.239 389.89 106.599 388.25C100.039 381.69 91.4292 378 81.9992 378C72.5692 378 63.9592 381.69 57.3992 388.25C55.7592 389.89 55.7592 392.35 57.3992 393.99C58.2192 394.81 59.0392 395.22 60.2692 395.22C61.0892 395.22 62.3192 394.81 63.1392 393.99C68.0592 389.07 75.0292 386.2 81.9992 386.2C88.9692 386.2 95.9392 389.07 100.859 393.99Z" fill="white"/>
<path d="M117.669 381.69C118.489 381.69 119.719 381.28 120.539 380.46C121.769 378.82 121.769 376.36 121.359 374.72C111.109 364.47 97.1692 358.73 82.8192 358.73C68.0592 358.73 54.5292 364.47 44.2792 374.72C42.6392 376.36 42.6392 378.82 44.2792 380.46C45.9192 382.1 48.3792 382.1 50.0192 380.46C58.6292 371.85 70.1092 366.93 82.4092 366.93C94.7092 366.93 106.189 371.85 114.799 380.46C115.619 381.28 116.439 381.69 117.669 381.69Z" fill="white"/>
<path d="M131.199 367.75C132.019 367.75 133.249 367.34 134.069 366.52C135.709 364.88 135.709 362.42 134.069 360.78C120.129 346.84 101.679 339.05 81.9992 339.05C62.3192 339.05 43.8692 346.84 29.9292 360.78C28.2892 362.42 28.2892 364.88 29.9292 366.52C31.5692 368.16 34.0292 368.16 35.6692 366.52C47.9692 354.22 64.3692 347.25 81.9992 347.25C99.6292 347.25 116.029 354.22 128.329 366.52C129.149 367.34 129.969 367.75 131.199 367.75Z" fill="white"/>
<path d="M91.0919 392.34L85.2121 406.012L98.1796 398.709L86.2517 407.609L101.133 407.769L86.3533 409.513L99.1616 417.091L85.4899 411.211L92.7928 424.179L83.8926 412.251L83.7334 427.133L81.9896 412.353L74.4109 425.161L80.2907 411.489L67.3232 418.792L79.2511 409.892L64.3695 409.733L79.1494 407.989L66.3411 400.41L80.0129 406.29L72.7099 393.323L81.6102 405.25L81.7693 390.369L83.5132 405.149L91.0919 392.34Z" fill="white"/>
</svg>
