<svg width="423" height="858" viewBox="0 0 423 858" fill="none" xmlns="http://www.w3.org/2000/svg">
<g id="scene02">
<g id="Devices / Apple / iPhone 12 Pro Max">
<g id="Buttons">
<path id="Power Button" d="M420 240H421.5C422.328 240 423 240.672 423 241.5V331.5C423 332.328 422.328 333 421.5 333H420V240Z" fill="white"/>
<path id="Volume Down" d="M3 353L1.49999 353C0.671567 353 -5.1865e-06 352.328 -5.11407e-06 351.5L-2.18399e-07 295.5C-1.45976e-07 294.672 0.671573 294 1.5 294L3.00001 294L3 353Z" fill="white"/>
<path id="Volumn Up" d="M3 278L1.49999 278C0.671567 278 -5.1865e-06 277.328 -5.11407e-06 276.5L-2.18399e-07 220.5C-1.45976e-07 219.672 0.671573 219 1.5 219L3.00001 219L3 278Z" fill="white"/>
<path id="Mute" d="M3 193L1.5 193C0.671571 193 -2.32548e-06 192.328 -2.25305e-06 191.5L-6.7482e-08 166.5C4.94129e-09 165.672 0.671573 165 1.5 165L3 165L3 193Z" fill="white"/>
</g>
<path id="Device Surround" d="M3 91C3 66.8033 3 54.705 6.18133 44.9139C12.611 25.1254 28.1254 9.61099 47.9139 3.18133C57.705 0 69.8033 0 94 0H329C353.197 0 365.295 0 375.086 3.18133C394.875 9.61099 410.389 25.1254 416.819 44.9139C420 54.705 420 66.8033 420 91V767C420 791.197 420 803.295 416.819 813.086C410.389 832.875 394.875 848.389 375.086 854.819C365.295 858 353.197 858 329 858H94C69.8033 858 57.705 858 47.9139 854.819C28.1254 848.389 12.611 832.875 6.18133 813.086C3 803.295 3 791.197 3 767V91Z" fill="white"/>
<path id="Highlight Band (Stroke)" fill-rule="evenodd" clip-rule="evenodd" d="M329.4 2H93.6C69.6978 2 57.9838 2.01234 48.5319 5.08344C29.3523 11.3153 14.3153 26.3523 8.08344 45.5319C5.01234 54.9838 5 66.6978 5 90.6V767.4C5 791.302 5.01234 803.016 8.08344 812.468C14.3153 831.648 29.3523 846.685 48.5319 852.917C57.9838 855.988 69.6978 856 93.6 856H329.4C353.302 856 365.016 855.988 374.468 852.917C393.648 846.685 408.685 831.648 414.917 812.468C417.988 803.016 418 791.302 418 767.4V90.6C418 66.6978 417.988 54.9838 414.917 45.5319C408.685 26.3523 393.648 11.3153 374.468 5.08344C365.016 2.01234 353.302 2 329.4 2ZM7.13238 45.2229C4 54.8634 4 66.7756 4 90.6V767.4C4 791.224 4 803.137 7.13238 812.777C13.4631 832.261 28.7389 847.537 48.2229 853.868C57.8634 857 69.7756 857 93.6 857H329.4C353.224 857 365.137 857 374.777 853.868C394.261 847.537 409.537 832.261 415.868 812.777C419 803.137 419 791.224 419 767.4V90.6C419 66.7756 419 54.8634 415.868 45.2229C409.537 25.7389 394.261 10.4631 374.777 4.13238C365.137 1 353.224 1 329.4 1H93.6C69.7756 1 57.8634 1 48.2229 4.13238C28.7389 10.4631 13.4631 25.7389 7.13238 45.2229Z" fill="#2F3A42"/>
<path id="Background" d="M8 89C8 66.6646 8 55.4969 10.9366 46.459C16.8717 28.1927 31.1927 13.8717 49.459 7.93661C58.4969 5 69.6646 5 92 5H331C353.335 5 364.503 5 373.541 7.93661C391.807 13.8717 406.128 28.1927 412.063 46.459C415 55.4969 415 66.6646 415 89V769C415 791.335 415 802.503 412.063 811.541C406.128 829.807 391.807 844.128 373.541 850.063C364.503 853 353.335 853 331 853H92C69.6646 853 58.4969 853 49.459 850.063C31.1927 844.128 16.8717 829.807 10.9366 811.541C8 802.503 8 791.335 8 769V89Z" fill="black"/>
<g id="Antenna Bands">
<path id="Antenna" d="M331 0H337V5H331V0Z" fill="#36454C"/>
<path id="Antenna_2" d="M415 86H420V92H415V86Z" fill="#36454C"/>
<path id="Antenna_3" d="M3 86H8V92H3V86Z" fill="#36454C"/>
<path id="Antenna_4" d="M3 766H8V772H3V766Z" fill="#36454C"/>
<path id="Antenna_5" d="M415 766H420V772H415V766Z" fill="#36454C"/>
<path id="Antenna_6" d="M86 853H92V858H86V853Z" fill="#36454C"/>
</g>
<g id="Camera">
<path id="Oval" fill-rule="evenodd" clip-rule="evenodd" d="M250 37C253.866 37 257 33.866 257 30C257 26.134 253.866 23 250 23C246.134 23 243 26.134 243 30C243 33.866 246.134 37 250 37Z" fill="#262C2D"/>
<path id="Oval_2" fill-rule="evenodd" clip-rule="evenodd" d="M250 34.375C252.416 34.375 254.375 32.4162 254.375 30C254.375 27.5838 252.416 25.625 250 25.625C247.584 25.625 245.625 27.5838 245.625 30C245.625 32.4162 247.584 34.375 250 34.375Z" fill="#121515"/>
<path id="Oval_3" opacity="0.4" fill-rule="evenodd" clip-rule="evenodd" d="M250 29.125C250.483 29.125 250.875 28.7332 250.875 28.25C250.875 27.7668 250.483 27.375 250 27.375C249.517 27.375 249.125 27.7668 249.125 28.25C249.125 28.7332 249.517 29.125 250 29.125Z" fill="white"/>
</g>
<g id="Speaker">
<path id="Speaker_2" fill-rule="evenodd" clip-rule="evenodd" d="M190 30C190 28.3431 191.343 27 193 27H230C231.657 27 233 28.3431 233 30C233 31.6569 231.657 33 230 33H193C191.343 33 190 31.6569 190 30Z" fill="#262C2D"/>
</g>
</g>
<g id="Group 1676">
<g id="KakaoTalk/color">
<path id="Subtract" fill-rule="evenodd" clip-rule="evenodd" d="M256.205 276.441C256.205 257.355 275.828 241.883 300.035 241.883C324.241 241.883 343.865 257.355 343.865 276.441C343.865 295.527 324.241 310.999 300.035 310.999C297.378 310.999 294.777 310.813 292.25 310.455C289.721 312.238 275.109 322.501 273.73 322.694C273.73 322.694 273.165 322.914 272.684 322.631C272.203 322.347 272.29 321.605 272.29 321.605C272.435 320.617 276.078 308.037 276.749 305.721C264.409 299.607 256.205 288.78 256.205 276.441ZM273.274 286.09C273.274 287.421 274.408 288.505 275.803 288.505C277.197 288.505 278.331 287.421 278.331 286.09V271.068H282.277C283.645 271.068 284.758 269.957 284.758 268.592C284.758 267.227 283.645 266.116 282.277 266.116H269.328C267.96 266.116 266.847 267.227 266.847 268.592C266.847 269.957 267.96 271.068 269.328 271.068H273.274V286.09ZM295.871 287.355C296.114 288.044 296.921 288.472 297.975 288.472C298.53 288.472 299.078 288.353 299.583 288.123C300.28 287.802 300.95 286.918 300.18 284.527L294.134 268.614C293.707 267.401 292.413 266.153 290.762 266.116C289.115 266.154 287.82 267.401 287.394 268.612L281.346 284.532C280.578 286.917 281.248 287.801 281.945 288.123C282.449 288.353 282.998 288.472 283.552 288.472C284.607 288.472 285.413 288.044 285.655 287.357L286.908 284.077L294.619 284.077L295.871 287.355ZM290.764 272.423L293.289 279.598H288.238L290.764 272.423ZM301.826 285.818C301.826 287.096 302.913 288.136 304.25 288.136H312.362C313.699 288.136 314.786 287.096 314.786 285.818C314.786 284.54 313.699 283.5 312.362 283.5H306.989V268.644C306.989 267.25 305.831 266.116 304.408 266.116C302.985 266.116 301.826 267.25 301.826 268.644V285.818ZM315.769 285.943C315.769 287.338 316.903 288.472 318.298 288.472C318.969 288.471 319.612 288.204 320.086 287.73C320.56 287.255 320.827 286.612 320.827 285.942V280.425L321.705 279.547L327.635 287.405C327.87 287.718 328.175 287.973 328.526 288.147C328.876 288.322 329.263 288.412 329.655 288.41C330.204 288.411 330.739 288.232 331.176 287.899C331.442 287.7 331.665 287.45 331.834 287.164C332.002 286.878 332.112 286.561 332.157 286.232C332.204 285.903 332.186 285.568 332.102 285.246C332.019 284.925 331.873 284.623 331.672 284.358L325.447 276.113L331.21 270.351C331.606 269.954 331.804 269.408 331.768 268.812C331.731 268.22 331.467 267.651 331.024 267.208C330.549 266.734 329.915 266.462 329.284 266.462C328.743 266.462 328.244 266.661 327.882 267.024L320.827 274.079V268.644C320.827 267.25 319.693 266.116 318.298 266.116C316.903 266.116 315.769 267.25 315.769 268.644V285.943Z" fill="white"/>
</g>
<g id="Call/color">
<path id="Union" fill-rule="evenodd" clip-rule="evenodd" d="M162.782 581.732C164.362 585.849 165.12 589.542 165.286 594.044C165.313 594.933 165.3 596.563 165.243 597.667C165.123 599.782 165.008 600.203 164.399 600.763C163.42 601.681 161.511 601.462 160.788 600.355C160.41 599.761 160.357 599.326 160.43 596.854C160.64 589.541 159.161 583.816 155.598 578.09C151.34 571.222 144.972 566.594 136.691 564.331C134.579 563.755 132.8 563.403 130.032 563.031C128.229 562.795 127.834 562.695 127.389 562.421C126.045 561.56 126.027 559.38 127.367 558.506C128.058 558.044 128.568 558.024 130.822 558.312C137.432 559.138 143.33 561.102 148.176 564.07C151.649 566.2 153.84 568.114 156.659 571.465C159.642 575.04 161.221 577.682 162.782 581.732ZM166.098 622.866C165.943 622.411 165.579 621.709 165.32 621.306C163.685 618.837 154.901 611.963 150.515 609.715C148.011 608.428 146.155 607.999 144.78 608.402C143.3 608.818 142.522 609.507 140.043 612.587C139.044 613.821 138.019 614.978 137.747 615.16C137.072 615.627 135.749 616.004 134.814 616.004C132.647 615.991 128.716 614.588 125.693 612.742C123.344 611.313 120.334 608.753 118.024 606.219C115.299 603.243 113.444 600.618 111.978 597.655C110.083 593.848 109.603 591.521 110.394 589.819C110.589 589.39 110.849 588.936 110.965 588.792C111.082 588.663 112.302 587.662 113.651 586.57C116.298 584.465 116.727 583.984 117.22 582.542C117.842 580.709 117.674 578.838 116.714 576.954C115.974 575.524 114.041 572.406 112.639 570.391C110.784 567.74 106.165 562.075 105.243 561.308C103.582 559.956 101.455 559.722 99.1057 560.632C96.6276 561.594 91.9823 565.336 89.997 567.948C88.2063 570.313 87.5189 571.99 87.4149 574.199C87.3242 576.018 87.4798 576.772 88.44 579.098C95.9529 597.343 107.164 611.911 122.566 623.477C130.61 629.519 138.954 634.12 147.608 637.264C152.656 639.097 154.848 639.188 157.431 637.68C158.52 637.03 161.219 634.262 162.725 632.248C165.216 628.895 166.137 627.349 166.397 626.115C166.578 625.27 166.436 623.801 166.098 622.866ZM146.796 573.349C152.367 577.854 155.48 584.257 155.943 592.216C156.137 595.351 155.879 596.372 154.773 596.953C153.775 597.492 152.644 597.315 151.868 596.503C151.355 595.976 151.157 595.254 151.165 593.976C151.187 590.443 150.373 586.498 149.05 583.76C147.518 580.573 145.15 577.862 142.172 575.879C139.563 574.138 136.11 572.962 132.762 572.669C130.59 572.479 129.815 572.111 129.398 571.07C129.14 570.447 129.208 569.371 129.511 568.888C129.797 568.444 130.439 567.952 130.894 567.822C131.375 567.682 134.18 567.927 135.703 568.23C139.862 569.076 143.657 570.817 146.796 573.349ZM144.227 582.843C145.645 584.649 146.444 586.689 146.763 589.287C146.833 589.828 146.863 590.835 146.842 591.511C146.812 592.604 146.768 592.809 146.479 593.28C145.693 594.529 143.838 594.732 142.797 593.688C142.234 593.117 142.095 592.622 142.041 591.013C141.924 587.585 140.833 585.468 138.489 584.115C137.385 583.483 136.172 583.064 134.415 582.741C133.096 582.482 132.622 582.245 132.211 581.583C131.627 580.67 131.776 579.262 132.541 578.559C133.362 577.809 134.279 577.746 136.55 578.297C140.033 579.123 142.386 580.516 144.227 582.843Z" fill="white"/>
</g>
<g id="Facebook/color">
<path id="Subtract_2" d="M136.696 505.466C136.491 505.206 136.286 504.94 136.08 504.67V458.726H151.399L154.314 439.721H136.08V427.394C136.08 422.194 138.622 417.122 146.789 417.122H155.084V400.942C155.084 400.942 147.56 399.658 140.369 399.658C125.345 399.658 115.535 408.762 115.535 425.237V439.721H98.8418V458.726H115.535V504.67C115.206 504.944 114.877 505.209 114.55 505.466H136.696Z" fill="white"/>
</g>
<g id="Instagram/color">
<path id="Shape" fill-rule="evenodd" clip-rule="evenodd" d="M127.112 241.883C117.074 241.883 115.813 241.927 111.869 242.106C107.932 242.287 105.244 242.91 102.893 243.824C100.461 244.769 98.3975 246.032 96.3419 248.089C94.2848 250.144 93.0212 252.208 92.0736 254.639C91.1567 256.991 90.5327 259.679 90.3555 263.615C90.179 267.559 90.1328 268.821 90.1328 278.864C90.1328 288.908 90.1775 290.164 90.3562 294.109C90.5373 298.046 91.1606 300.733 92.0744 303.085C93.0197 305.517 94.2832 307.58 96.3396 309.636C98.3944 311.693 100.458 312.959 102.888 313.904C105.241 314.819 107.929 315.442 111.866 315.622C115.81 315.802 117.07 315.846 127.113 315.846C137.157 315.846 138.414 315.802 142.359 315.622C146.296 315.442 148.986 314.819 151.339 313.904C153.771 312.959 155.831 311.693 157.886 309.636C159.943 307.58 161.206 305.517 162.154 303.085C163.063 300.733 163.687 298.045 163.872 294.11C164.049 290.165 164.095 288.908 164.095 278.864C164.095 268.821 164.049 267.56 163.872 263.616C163.687 259.679 163.063 256.991 162.154 254.64C161.206 252.208 159.943 250.144 157.886 248.089C155.829 246.032 153.771 244.768 151.337 243.824C148.979 242.91 146.29 242.287 142.353 242.106C138.409 241.927 137.153 241.883 127.112 241.883ZM123.8 248.547C124.444 248.546 125.137 248.546 125.885 248.547C126.28 248.547 126.691 248.547 127.118 248.547C136.992 248.547 138.162 248.583 142.061 248.76C145.667 248.925 147.624 249.527 148.928 250.033C150.653 250.704 151.884 251.505 153.177 252.799C154.472 254.094 155.273 255.326 155.945 257.052C156.451 258.354 157.054 260.311 157.218 263.917C157.396 267.815 157.434 268.986 157.434 278.856C157.434 288.725 157.396 289.896 157.218 293.795C157.054 297.4 156.451 299.357 155.945 300.659C155.275 302.385 154.472 303.614 153.177 304.907C151.883 306.202 150.654 307.003 148.928 307.673C147.626 308.182 145.667 308.783 142.061 308.948C138.163 309.125 136.992 309.163 127.118 309.163C117.243 309.163 116.072 309.125 112.174 308.948C108.568 308.781 106.611 308.179 105.307 307.673C103.581 307.002 102.348 306.201 101.054 304.907C99.7596 303.612 98.9583 302.383 98.2865 300.656C97.7803 299.354 97.1771 297.397 97.013 293.792C96.8358 289.893 96.8003 288.722 96.8003 278.846C96.8003 268.971 96.8358 267.806 97.013 263.908C97.1778 260.302 97.7803 258.345 98.2865 257.041C98.9568 255.316 99.7596 254.083 101.054 252.788C102.348 251.494 103.581 250.693 105.307 250.021C106.61 249.513 108.568 248.912 112.174 248.746C115.585 248.592 116.908 248.546 123.8 248.538V248.547ZM142.42 259.124C142.42 256.673 144.408 254.688 146.858 254.688C149.308 254.688 151.296 256.674 151.296 259.124C151.296 261.574 149.308 263.562 146.858 263.562C144.408 263.562 142.42 261.574 142.42 259.124ZM127.117 259.873C116.629 259.873 108.126 268.376 108.126 278.864C108.126 289.352 116.629 297.852 127.118 297.852C137.606 297.852 146.106 289.352 146.106 278.864C146.106 268.376 137.605 259.873 127.117 259.873ZM139.445 278.864C139.445 272.056 133.925 266.537 127.118 266.537C120.309 266.537 114.79 272.056 114.79 278.864C114.79 285.672 120.309 291.191 127.118 291.191C133.925 291.191 139.445 285.672 139.445 278.864Z" fill="white"/>
</g>
<g id="Netflix/color">
<path id="Combined-Shape-path" d="M118.554 159.724V116.219L133.267 157.969C137.789 157.456 142.32 156.982 146.862 156.529V82.3936H134.934V127.452L119.066 82.3936H106.631V161.287H106.71C110.654 160.745 114.599 160.222 118.554 159.724Z" fill="white"/>
</g>
<g id="Twitter/color">
<path id="Combined-Shape-path_2" d="M298.065 429.06L298.203 431.335L295.904 431.056C287.534 429.989 280.222 426.367 274.014 420.285L270.979 417.268L270.197 419.496C268.542 424.464 269.599 429.71 273.048 433.239C274.888 435.188 274.474 435.467 271.301 434.306C270.197 433.935 269.232 433.656 269.14 433.796C268.818 434.121 269.921 438.345 270.795 440.017C271.991 442.338 274.428 444.613 277.095 445.959L279.349 447.027L276.681 447.074C274.106 447.074 274.014 447.12 274.29 448.095C275.21 451.113 278.843 454.316 282.89 455.709L285.741 456.684L283.258 458.17C279.579 460.305 275.256 461.512 270.933 461.605C268.864 461.652 267.162 461.837 267.162 461.977C267.162 462.441 272.773 465.041 276.038 466.062C285.833 469.08 297.468 467.78 306.205 462.627C312.413 458.959 318.622 451.67 321.519 444.613C323.082 440.853 324.646 433.981 324.646 430.685C324.646 428.549 324.784 428.271 327.359 425.717C328.877 424.232 330.302 422.607 330.578 422.143C331.038 421.26 330.992 421.26 328.647 422.05C324.738 423.442 324.186 423.257 326.117 421.168C327.543 419.682 329.245 416.989 329.245 416.2C329.245 416.061 328.555 416.293 327.773 416.711C326.945 417.175 325.106 417.871 323.726 418.289L321.243 419.078L318.989 417.546C317.748 416.711 316 415.782 315.081 415.504C312.735 414.854 309.148 414.946 307.033 415.689C301.284 417.778 297.651 423.164 298.065 429.06Z" fill="white"/>
</g>
<g id="Youtube/color">
<path id="Combined-Shape-path_3" d="M330.895 104.508C330.088 101.41 327.712 98.9705 324.694 98.1425C319.226 96.6377 297.296 96.6377 297.296 96.6377C297.296 96.6377 275.367 96.6377 269.898 98.1425C266.88 98.9705 264.504 101.41 263.698 104.508C262.232 110.124 262.232 121.84 262.232 121.84C262.232 121.84 262.232 133.556 263.698 139.171C264.504 142.269 266.88 144.709 269.898 145.538C275.367 147.042 297.296 147.042 297.296 147.042C297.296 147.042 319.226 147.042 324.694 145.538C327.712 144.709 330.088 142.269 330.895 139.171C332.36 133.556 332.36 121.84 332.36 121.84C332.36 121.84 332.36 110.124 330.895 104.508Z" fill="white"/>
<path id="Fill-2" d="M290.721 133.893V111.979L308.253 122.936L290.721 133.893Z" fill="black"/>
</g>
<g id="Zoom/color">
<g id="Group 1598">
<path id="Combined-Shape-path_4" d="M254.418 738.122V768.993C254.418 775.939 260.106 781.569 267.116 781.569H312.138C313.413 781.569 314.446 780.545 314.446 779.282V748.411C314.446 741.465 308.758 735.834 301.747 735.834H256.725C255.451 735.834 254.418 736.859 254.418 738.122Z" fill="white"/>
<path id="Combined-Shape-path_5" d="M317.305 750.166V767.29L335.885 780.846C337.199 781.85 338.743 782.161 338.743 779.419V738.037C338.743 735.592 337.504 735.285 335.885 736.61L317.305 750.166Z" fill="white"/>
</g>
</g>
<g id="Mail/color">
<path id="Union_2" fill-rule="evenodd" clip-rule="evenodd" d="M272.63 586.889L297.188 604.716L321.865 586.799V624.468H325.967C328.253 624.468 330.07 622.651 330.07 620.424V579.531C330.303 578.434 330.083 577.254 329.367 576.288C328.019 574.413 325.44 574.003 323.623 575.351L297.247 594.634L271.047 575.585C269.171 574.237 266.533 574.647 265.185 576.464C264.76 577.038 264.521 577.687 264.451 578.35C264.433 578.494 264.424 578.647 264.424 578.809V620.366C264.424 622.651 266.241 624.468 268.527 624.468H272.63V586.889Z" fill="white"/>
</g>
<g id="Tiktok/color">
<path id="Union_3" fill-rule="evenodd" clip-rule="evenodd" d="M110.548 777.861C112.013 778.634 113.644 779.038 115.3 779.037C120.815 779.037 125.318 774.65 125.521 769.181L125.542 720.351H137.725C137.726 721.388 137.822 722.423 138.013 723.442L141.277 723.444C141.275 727.531 142.756 731.479 145.446 734.556C145.447 734.558 145.448 734.559 145.449 734.56C148.193 736.352 151.399 737.305 154.676 737.302V740.016C155.823 740.261 157.009 740.392 158.229 740.392V752.579C152.146 752.586 146.215 750.678 141.277 747.127V771.888C141.277 784.253 131.216 794.313 118.85 794.313C115.771 794.314 112.724 793.679 109.902 792.447C107.081 791.216 104.545 789.417 102.452 787.161C102.45 787.16 102.449 787.159 102.447 787.158C96.6642 783.097 92.873 776.382 92.873 768.797C92.873 756.431 102.934 746.368 115.3 746.368C116.311 746.373 117.321 746.447 118.322 746.589V749.474C118.322 749.474 118.322 749.474 118.322 749.474L118.322 759.028C118.322 759.028 118.322 759.028 118.322 759.028L118.322 749.474C118.392 749.472 118.462 749.47 118.532 749.467C118.638 749.464 118.743 749.46 118.85 749.46C119.861 749.465 120.871 749.538 121.872 749.68V762.119C120.917 761.819 119.906 761.645 118.85 761.645C116.135 761.648 113.531 762.728 111.611 764.649C109.691 766.569 108.611 769.173 108.608 771.888C108.609 774.033 109.287 776.123 110.545 777.86C110.546 777.86 110.547 777.861 110.548 777.861ZM115.301 758.553C115.928 758.553 116.54 758.615 117.134 758.728C116.53 758.614 115.917 758.555 115.301 758.553ZM108.061 761.557C108.061 761.557 108.061 761.557 108.061 761.557V761.557ZM97.903 779.89C98.9438 782.602 100.497 785.062 102.443 787.153C100.457 785.028 98.9247 782.558 97.903 779.89ZM115.3 791.222C115.3 791.222 115.3 791.222 115.3 791.222V791.222ZM137.725 744.034C137.725 744.034 137.725 744.034 137.725 744.034V744.034Z" fill="white"/>
</g>
</g>
<g id="Group 1678">
<circle id="Ellipse 245" cx="167" cy="239" r="25" fill="#FF00FE"/>
<path id="99+" d="M149.361 237.416C149.457 237.752 149.625 238.088 149.793 238.4C149.817 238.448 149.865 238.52 149.889 238.568C149.937 238.64 149.961 238.688 149.985 238.736C151.977 241.76 155.889 241.16 155.889 241.16L151.881 247.136H155.793L160.977 238.616C162.657 235.856 161.553 232.352 158.505 230.816C157.521 230.312 156.465 230.096 155.433 230.096C153.201 230.096 151.041 231.152 149.913 233.048C149.073 234.392 148.881 235.928 149.361 237.416ZM152.889 234.56C153.657 233.288 155.433 232.832 156.849 233.528C158.241 234.248 158.769 235.856 157.977 237.104C157.473 237.968 156.465 238.472 155.457 238.472C154.977 238.472 154.497 238.352 154.041 238.136C153.345 237.776 152.865 237.224 152.649 236.552C152.433 235.88 152.529 235.16 152.889 234.56ZM162.938 237.416C163.034 237.752 163.202 238.088 163.37 238.4C163.394 238.448 163.442 238.52 163.466 238.568C163.514 238.64 163.538 238.688 163.562 238.736C165.554 241.76 169.466 241.16 169.466 241.16L165.458 247.136H169.37L174.554 238.616C176.234 235.856 175.13 232.352 172.082 230.816C171.098 230.312 170.042 230.096 169.01 230.096C166.778 230.096 164.618 231.152 163.49 233.048C162.65 234.392 162.458 235.928 162.938 237.416ZM166.466 234.56C167.234 233.288 169.01 232.832 170.426 233.528C171.818 234.248 172.346 235.856 171.554 237.104C171.05 237.968 170.042 238.472 169.034 238.472C168.554 238.472 168.074 238.352 167.618 238.136C166.922 237.776 166.442 237.224 166.226 236.552C166.01 235.88 166.106 235.16 166.466 234.56ZM183.018 238.304V234.104H180.354V238.304H176.154V240.968H180.354V245.192H183.018V240.968H187.218V238.304H183.018Z" fill="black"/>
</g>
<g id="Group 1679">
<circle id="Ellipse 245_2" cx="167" cy="404" r="25" fill="#FF00FE"/>
<path id="99+_2" d="M149.361 402.416C149.457 402.752 149.625 403.088 149.793 403.4C149.817 403.448 149.865 403.52 149.889 403.568C149.937 403.64 149.961 403.688 149.985 403.736C151.977 406.76 155.889 406.16 155.889 406.16L151.881 412.136H155.793L160.977 403.616C162.657 400.856 161.553 397.352 158.505 395.816C157.521 395.312 156.465 395.096 155.433 395.096C153.201 395.096 151.041 396.152 149.913 398.048C149.073 399.392 148.881 400.928 149.361 402.416ZM152.889 399.56C153.657 398.288 155.433 397.832 156.849 398.528C158.241 399.248 158.769 400.856 157.977 402.104C157.473 402.968 156.465 403.472 155.457 403.472C154.977 403.472 154.497 403.352 154.041 403.136C153.345 402.776 152.865 402.224 152.649 401.552C152.433 400.88 152.529 400.16 152.889 399.56ZM162.938 402.416C163.034 402.752 163.202 403.088 163.37 403.4C163.394 403.448 163.442 403.52 163.466 403.568C163.514 403.64 163.538 403.688 163.562 403.736C165.554 406.76 169.466 406.16 169.466 406.16L165.458 412.136H169.37L174.554 403.616C176.234 400.856 175.13 397.352 172.082 395.816C171.098 395.312 170.042 395.096 169.01 395.096C166.778 395.096 164.618 396.152 163.49 398.048C162.65 399.392 162.458 400.928 162.938 402.416ZM166.466 399.56C167.234 398.288 169.01 397.832 170.426 398.528C171.818 399.248 172.346 400.856 171.554 402.104C171.05 402.968 170.042 403.472 169.034 403.472C168.554 403.472 168.074 403.352 167.618 403.136C166.922 402.776 166.442 402.224 166.226 401.552C166.01 400.88 166.106 400.16 166.466 399.56ZM183.018 403.304V399.104H180.354V403.304H176.154V405.968H180.354V410.192H183.018V405.968H187.218V403.304H183.018Z" fill="black"/>
</g>
<g id="Group 1681">
<circle id="Ellipse 245_3" cx="167" cy="726" r="25" fill="#FF00FE"/>
<path id="99+_3" d="M149.361 724.416C149.457 724.752 149.625 725.088 149.793 725.4C149.817 725.448 149.865 725.52 149.889 725.568C149.937 725.64 149.961 725.688 149.985 725.736C151.977 728.76 155.889 728.16 155.889 728.16L151.881 734.136H155.793L160.977 725.616C162.657 722.856 161.553 719.352 158.505 717.816C157.521 717.312 156.465 717.096 155.433 717.096C153.201 717.096 151.041 718.152 149.913 720.048C149.073 721.392 148.881 722.928 149.361 724.416ZM152.889 721.56C153.657 720.288 155.433 719.832 156.849 720.528C158.241 721.248 158.769 722.856 157.977 724.104C157.473 724.968 156.465 725.472 155.457 725.472C154.977 725.472 154.497 725.352 154.041 725.136C153.345 724.776 152.865 724.224 152.649 723.552C152.433 722.88 152.529 722.16 152.889 721.56ZM162.938 724.416C163.034 724.752 163.202 725.088 163.37 725.4C163.394 725.448 163.442 725.52 163.466 725.568C163.514 725.64 163.538 725.688 163.562 725.736C165.554 728.76 169.466 728.16 169.466 728.16L165.458 734.136H169.37L174.554 725.616C176.234 722.856 175.13 719.352 172.082 717.816C171.098 717.312 170.042 717.096 169.01 717.096C166.778 717.096 164.618 718.152 163.49 720.048C162.65 721.392 162.458 722.928 162.938 724.416ZM166.466 721.56C167.234 720.288 169.01 719.832 170.426 720.528C171.818 721.248 172.346 722.856 171.554 724.104C171.05 724.968 170.042 725.472 169.034 725.472C168.554 725.472 168.074 725.352 167.618 725.136C166.922 724.776 166.442 724.224 166.226 723.552C166.01 722.88 166.106 722.16 166.466 721.56ZM183.018 725.304V721.104H180.354V725.304H176.154V727.968H180.354V732.192H183.018V727.968H187.218V725.304H183.018Z" fill="black"/>
</g>
<g id="Group 1684">
<circle id="Ellipse 245_4" cx="339" cy="404" r="25" fill="#FF00FE"/>
<path id="99+_4" d="M321.361 402.416C321.457 402.752 321.625 403.088 321.793 403.4C321.817 403.448 321.865 403.52 321.889 403.568C321.937 403.64 321.961 403.688 321.985 403.736C323.977 406.76 327.889 406.16 327.889 406.16L323.881 412.136H327.793L332.977 403.616C334.657 400.856 333.553 397.352 330.505 395.816C329.521 395.312 328.465 395.096 327.433 395.096C325.201 395.096 323.041 396.152 321.913 398.048C321.073 399.392 320.881 400.928 321.361 402.416ZM324.889 399.56C325.657 398.288 327.433 397.832 328.849 398.528C330.241 399.248 330.769 400.856 329.977 402.104C329.473 402.968 328.465 403.472 327.457 403.472C326.977 403.472 326.497 403.352 326.041 403.136C325.345 402.776 324.865 402.224 324.649 401.552C324.433 400.88 324.529 400.16 324.889 399.56ZM334.938 402.416C335.034 402.752 335.202 403.088 335.37 403.4C335.394 403.448 335.442 403.52 335.466 403.568C335.514 403.64 335.538 403.688 335.562 403.736C337.554 406.76 341.466 406.16 341.466 406.16L337.458 412.136H341.37L346.554 403.616C348.234 400.856 347.13 397.352 344.082 395.816C343.098 395.312 342.042 395.096 341.01 395.096C338.778 395.096 336.618 396.152 335.49 398.048C334.65 399.392 334.458 400.928 334.938 402.416ZM338.466 399.56C339.234 398.288 341.01 397.832 342.426 398.528C343.818 399.248 344.346 400.856 343.554 402.104C343.05 402.968 342.042 403.472 341.034 403.472C340.554 403.472 340.074 403.352 339.618 403.136C338.922 402.776 338.442 402.224 338.226 401.552C338.01 400.88 338.106 400.16 338.466 399.56ZM355.018 403.304V399.104H352.354V403.304H348.154V405.968H352.354V410.192H355.018V405.968H359.218V403.304H355.018Z" fill="black"/>
</g>
</g>
</svg>
