<svg width="1094" height="526" viewBox="0 0 1094 526" fill="none" xmlns="http://www.w3.org/2000/svg">
<path d="M1072.37 524.56H21.2607C10.0527 524.56 1 515.412 1 504.248V21.3114C1 10.0753 10.0527 1 21.2607 1H1072.37C1083.58 1 1092.63 10.0753 1092.63 21.3114V504.248C1092.56 515.412 1083.51 524.56 1072.37 524.56Z" fill="black" stroke="white" stroke-width="2" stroke-miterlimit="10"/>
<path d="M1072.37 1H21.1888C10.0527 1 1 10.0753 1 21.2394V29.3784H1092.56V21.2394C1092.56 10.0753 1083.58 1 1072.37 1Z" fill="#CECECE" stroke="white" stroke-width="2" stroke-miterlimit="10"/>
<path d="M22.1943 20.2309C24.1386 20.2309 25.7148 18.6508 25.7148 16.7017C25.7148 14.7525 24.1386 13.1724 22.1943 13.1724C20.25 13.1724 18.6738 14.7525 18.6738 16.7017C18.6738 18.6508 20.25 20.2309 22.1943 20.2309Z" fill="#606060" stroke="white" stroke-miterlimit="10"/>
<path d="M35.1269 20.2309C37.0712 20.2309 38.6474 18.6508 38.6474 16.7017C38.6474 14.7525 37.0712 13.1724 35.1269 13.1724C33.1826 13.1724 31.6064 14.7525 31.6064 16.7017C31.6064 18.6508 33.1826 20.2309 35.1269 20.2309Z" fill="#606060" stroke="white" stroke-miterlimit="10"/>
<path d="M48.1308 20.2309C50.0751 20.2309 51.6513 18.6508 51.6513 16.7017C51.6513 14.7525 50.0751 13.1724 48.1308 13.1724C46.1865 13.1724 44.6104 14.7525 44.6104 16.7017C44.6104 18.6508 46.1865 20.2309 48.1308 20.2309Z" fill="#606060" stroke="white" stroke-miterlimit="10"/>
</svg>
