<svg width="48" height="48" viewBox="0 0 48 48" fill="none" xmlns="http://www.w3.org/2000/svg">
<rect width="48" height="48" rx="4" fill="#FAFF00"/>
<path fill-rule="evenodd" clip-rule="evenodd" d="M9 22.6154C9 15.6482 16.1634 10 25 10C33.8366 10 41 15.6482 41 22.6154C41 29.5828 33.8366 35.2308 25 35.2308C24.0302 35.2308 23.0805 35.1629 22.1582 35.0323C21.2349 35.6829 15.9009 39.4297 15.3975 39.5C15.3975 39.5 15.1911 39.5803 15.0155 39.4769C14.84 39.3735 14.8718 39.1025 14.8718 39.1025C14.9248 38.7417 16.2546 34.1494 16.4997 33.3042C11.9948 31.0723 9 27.1198 9 22.6154ZM15.2309 26.1377C15.2309 26.6238 15.6449 27.0192 16.154 27.0192C16.6631 27.0192 17.0771 26.6238 17.0771 26.1377V20.6538H18.5174C19.0168 20.6538 19.4232 20.2483 19.4232 19.75C19.4232 19.2517 19.0169 18.8461 18.5174 18.8461H13.7906C13.2912 18.8461 12.8848 19.2517 12.8848 19.75C12.8848 20.2483 13.2911 20.6538 13.7906 20.6538H15.2309V26.1377ZM23.48 26.5995C23.5688 26.8509 23.8632 27.0072 24.2481 27.0072C24.4506 27.0074 24.6507 26.964 24.8349 26.88C25.0894 26.7629 25.334 26.44 25.0531 25.5674L22.846 19.7583C22.6901 19.3154 22.2177 18.8598 21.6148 18.8463C21.0135 18.86 20.5411 19.3154 20.3855 19.7574L18.1775 25.5691C17.8972 26.4397 18.1418 26.7624 18.3963 26.8798C18.5805 26.964 18.7806 27.0074 18.9831 27.0072C19.368 27.0072 19.6623 26.8511 19.7508 26.6001L20.2081 25.4027L23.0229 25.4029L23.48 26.5995ZM21.6155 21.1486L22.5375 23.7678H20.6935L21.6155 21.1486ZM25.654 26.0384C25.654 26.5049 26.0508 26.8846 26.5386 26.8846H29.5001C29.988 26.8846 30.3848 26.5049 30.3848 26.0384C30.3848 25.572 29.988 25.1923 29.5001 25.1923H27.5386V19.7692C27.5386 19.2601 27.1158 18.8461 26.5963 18.8461C26.0768 18.8461 25.654 19.2601 25.654 19.7692V26.0384ZM30.7438 26.0841C30.7438 26.5932 31.1578 27.0072 31.6669 27.0072C31.9117 27.0069 32.1464 26.9095 32.3195 26.7363C32.4926 26.5632 32.59 26.3285 32.5903 26.0837V24.0697L32.9106 23.7494L35.0754 26.6177C35.1611 26.7322 35.2724 26.825 35.4005 26.8887C35.5285 26.9524 35.6697 26.9853 35.8128 26.9846C36.0133 26.9851 36.2084 26.9196 36.368 26.7983C36.465 26.7256 36.5466 26.6343 36.6081 26.5298C36.6696 26.4253 36.7097 26.3096 36.7261 26.1895C36.7434 26.0695 36.7366 25.9472 36.7061 25.8298C36.6757 25.7124 36.6223 25.6022 36.5489 25.5057L34.2768 22.4955L36.3803 20.3923C36.5249 20.2475 36.5974 20.048 36.584 19.8303C36.5708 19.6144 36.4743 19.4066 36.3126 19.2451C36.1392 19.0718 35.9078 18.9724 35.6774 18.9724C35.4798 18.9724 35.2978 19.0454 35.1654 19.1778L32.59 21.7532V19.7692C32.59 19.2601 32.176 18.8461 31.6669 18.8461C31.1578 18.8461 30.7438 19.2601 30.7438 19.7692V26.0841Z" fill="black"/>
</svg>
