<svg width="24" height="24" viewBox="0 0 24 24" fill="none" xmlns="http://www.w3.org/2000/svg">
<path d="M15.8957 16.4297C13.4431 17.0231 11.1392 17.0601 9.20686 15.0206C8.57513 14.316 8.20352 13.6114 8.94673 12.8327C9.57846 12.0911 10.3217 12.054 11.1764 12.5731C13.7776 14.1677 14.2978 14.0935 16.2673 11.8686C17.3822 10.6078 18.497 9.34694 19.4631 8.01196C20.6151 6.45449 20.3922 5.00827 19.0172 3.8587C17.8281 2.89456 16.2673 3.04289 14.9667 4.34078C14.2978 5.00827 13.6661 5.71284 12.9972 6.41741C12.477 6.93657 11.9196 7.15906 11.2135 6.71407C10.5075 6.30616 10.3588 5.67576 10.5446 4.97119C11.0277 2.82039 14.7066 0.0391895 17.1592 0.00210681C19.8719 -0.0720585 22.2873 1.81916 23.1049 4.52619C23.588 6.12075 23.5136 7.7153 22.5846 9.05028C20.7266 11.8315 18.7943 14.5756 15.8957 16.4297Z" fill="current"/>
<path d="M12.8484 18.1357C12.7369 20.2865 10.3215 23.0306 7.94324 23.7352C5.49065 24.4769 2.74077 23.624 1.32868 21.6586C-0.306384 19.4336 -0.492186 16.5783 1.10571 14.4645C2.55497 12.4992 4.07855 10.5338 5.86225 8.82797C8.12904 6.71426 11.9566 6.82551 14.0747 9.01338C14.7808 9.71796 15.2267 10.4596 14.4463 11.3496C13.7403 12.1654 12.9599 12.0542 12.068 11.4608C9.9499 9.94045 8.68645 10.1629 7.08855 12.1654C6.15954 13.3521 5.11904 14.4645 4.15287 15.6141C2.74077 17.3199 2.81509 18.9515 4.30151 20.2124C5.60213 21.3248 7.12571 21.1023 8.57497 19.5819C8.87225 19.2482 9.16953 18.9145 9.46682 18.5807C10.656 17.1345 11.2877 17.0603 12.8484 18.1357C12.8484 18.1728 12.8484 18.1357 12.8484 18.1357Z" fill="current"/>
</svg>
