<svg width="27" height="25" viewBox="0 0 27 25" fill="none" xmlns="http://www.w3.org/2000/svg">
<path d="M13.3333 0.166992C5.96949 0.166992 0 4.87379 0 10.6798C0 14.4335 2.49564 17.7273 6.24974 19.5871C6.04551 20.2915 4.93731 24.1184 4.89321 24.419C4.89321 24.419 4.86667 24.6449 5.01295 24.7311C5.15923 24.8173 5.33128 24.7503 5.33128 24.7503C5.75077 24.6917 10.1958 21.5694 10.9651 21.0273C11.7337 21.1361 12.5251 21.1926 13.3333 21.1926C20.6972 21.1926 26.6667 16.486 26.6667 10.6798C26.6667 4.87379 20.6972 0.166992 13.3333 0.166992Z" fill="current"/>
<path id="katalk_txt" d="M5.96166 14.3495C5.53743 14.3495 5.19243 14.02 5.19243 13.6149V9.04498H3.99218C3.57589 9.04498 3.2373 8.70704 3.2373 8.29178C3.2373 7.87652 3.57602 7.53857 3.99218 7.53857H7.93115C8.34743 7.53857 8.68602 7.87652 8.68602 8.29178C8.68602 8.70704 8.3473 9.04498 7.93115 9.04498H6.73089V13.6149C6.73089 14.02 6.38589 14.3495 5.96166 14.3495ZM12.7068 14.3395C12.386 14.3395 12.1406 14.2092 12.0667 13.9997L11.6858 13.0025L9.34012 13.0024L8.95897 14.0002C8.88525 14.2093 8.64 14.3395 8.31923 14.3395C8.1505 14.3396 7.98372 14.3034 7.83025 14.2333C7.6182 14.1355 7.41436 13.8665 7.64795 13.141L9.48795 8.29793C9.61756 7.9296 10.0113 7.55011 10.5123 7.5387C11.0147 7.54998 11.4085 7.9296 11.5383 8.2987L13.3776 13.1396C13.6117 13.8668 13.4078 14.1359 13.1958 14.2334C13.0423 14.3034 12.8755 14.3396 12.7068 14.3395C12.7068 14.3395 12.7067 14.3395 12.7068 14.3395ZM11.2813 11.64L10.5129 9.45729L9.74461 11.64H11.2813ZM14.6155 14.2373C14.209 14.2373 13.8783 13.9209 13.8783 13.5322V8.3078C13.8783 7.88357 14.2306 7.53857 14.6636 7.53857C15.0965 7.53857 15.4488 7.88357 15.4488 8.3078V12.827H17.0835C17.49 12.827 17.8206 13.1434 17.8206 13.5322C17.8206 13.9209 17.49 14.2373 17.0835 14.2373H14.6155ZM18.8891 14.3395C18.4649 14.3395 18.1199 13.9945 18.1199 13.5702V8.3078C18.1199 7.88357 18.4649 7.53857 18.8891 7.53857C19.3133 7.53857 19.6583 7.88357 19.6583 8.3078V9.96114L21.8045 7.81498C21.9149 7.7046 22.0665 7.64383 22.2311 7.64383C22.4232 7.64383 22.616 7.72665 22.7605 7.87101C22.8953 8.00563 22.9756 8.17883 22.9867 8.3587C22.9978 8.54011 22.9374 8.7064 22.8169 8.82704L21.064 10.5797L22.9574 13.0882C23.0186 13.1687 23.0631 13.2605 23.0885 13.3583C23.1138 13.4561 23.1195 13.558 23.1051 13.6581C23.0914 13.7582 23.058 13.8545 23.0067 13.9416C22.9555 14.0287 22.8875 14.1048 22.8067 14.1654C22.6736 14.2665 22.5111 14.321 22.344 14.3206C22.2248 14.3212 22.1071 14.2938 22.0004 14.2407C21.8937 14.1876 21.8009 14.1103 21.7295 14.0149L19.9255 11.6246L19.6586 11.8915V13.5699C19.6583 13.7739 19.5772 13.9695 19.433 14.1137C19.2887 14.258 19.0931 14.3392 18.8891 14.3395Z" fill="current"/>
</svg>
