<svg width="48" height="48" viewBox="0 0 48 48" fill="none" xmlns="http://www.w3.org/2000/svg">
<rect width="48" height="48" rx="4" fill="black"/>
<path fill-rule="evenodd" clip-rule="evenodd" d="M14.9955 19.5012L23.9608 26.0091L32.9688 19.4685V33.2197H34.4665C35.301 33.2197 35.9643 32.5564 35.9643 31.7434V16.8159C36.0494 16.4154 35.9691 15.9842 35.7076 15.6317C35.2154 14.947 34.274 14.7972 33.6107 15.2893L23.9821 22.3288L14.4178 15.3749C13.7331 14.8828 12.7703 15.0325 12.2781 15.6958C12.1252 15.9019 12.0384 16.1349 12.0113 16.3729C12.0038 16.4287 12 16.4882 12 16.5517V31.722C12 32.5564 12.6633 33.2197 13.4978 33.2197H14.9955V19.5012Z" fill="white"/>
</svg>
