<svg width="120" height="19" viewBox="0 0 120 19" fill="none" xmlns="http://www.w3.org/2000/svg">
<g clip-path="url(#clip0)">
<path d="M115.917 16.4527L117.962 18.543L120.008 16.4527L117.962 14.3625L115.917 16.4527Z" fill="current"/>
<path d="M35.7639 18.5362C35.7639 14.1427 35.7639 9.74918 35.7639 5.35565C36.8872 5.35565 37.9878 5.35565 39.1111 5.35565C39.1111 9.74918 39.1111 14.1311 39.1111 18.5362C37.9992 18.5362 36.8986 18.5362 35.7639 18.5362Z" fill="current"/>
<path d="M88.4796 17.0756C88.4796 17.632 88.4796 18.1885 88.4796 18.7565C87.3563 18.7565 86.2557 18.7565 85.1438 18.7565C85.1438 12.7748 85.1438 6.81629 85.1438 0.834595C86.2557 0.834595 87.3563 0.834595 88.4796 0.834595C88.4796 3.09512 88.4796 5.34405 88.4796 7.65095C88.5704 7.5698 88.6385 7.51184 88.6952 7.45388C89.7845 6.38737 91.1007 5.83093 92.587 5.7266C94.6634 5.5759 96.4789 6.24826 97.9426 7.76687C99.2587 9.13478 99.9282 10.8157 99.7807 12.7516C99.5991 15.1281 98.4531 16.9365 96.4335 18.1073C95.1967 18.8261 93.8465 19.1159 92.4395 18.9652C91.0439 18.8145 89.8072 18.2812 88.7633 17.2843C88.6952 17.2147 88.6271 17.1567 88.5477 17.0872C88.525 17.0756 88.5137 17.0872 88.4796 17.0756ZM92.7345 8.83337C91.4864 8.85656 90.7035 9.1 89.9433 9.63325C88.1393 10.8968 87.9917 13.3428 89.6483 14.8035C90.3858 15.4642 91.2709 15.7656 92.2353 15.812C93.438 15.8816 94.5046 15.5454 95.4123 14.6991C96.4335 13.7486 96.7625 12.1604 96.1158 10.9316C95.3329 9.51733 94.0961 8.90293 92.7345 8.83337Z" fill="current"/>
<path d="M11.2897 7.07134C11.2897 6.43375 11.2897 5.86572 11.2897 5.27451C12.413 5.27451 13.5249 5.27451 14.6482 5.27451C14.6482 9.67964 14.6482 14.0964 14.6482 18.5131C13.5363 18.5131 12.4243 18.5131 11.2897 18.5131C11.2897 17.9219 11.2897 17.3306 11.2897 16.7047C11.0854 16.9017 10.9152 17.064 10.745 17.2263C9.47423 18.3856 7.9765 18.8377 6.33126 18.7449C4.66333 18.6522 3.19964 17.9798 1.97423 16.7742C0.975739 15.7889 0.340338 14.5485 0.102063 13.111C-0.27237 10.7693 0.328992 8.72906 1.91749 7.05975C3.07483 5.84254 4.50448 5.18177 6.13837 5.03107C7.61341 4.90355 8.99768 5.23973 10.2458 6.13235C10.5408 6.34101 10.8018 6.60764 11.0741 6.83949C11.1308 6.90904 11.1875 6.96701 11.2897 7.07134ZM7.11417 8.26536C6.13837 8.27695 5.17392 8.64791 4.36833 9.45938C3.59677 10.2361 3.24503 11.1867 3.38119 12.3111C3.54004 13.6558 4.31159 14.5601 5.4122 15.0817C6.84185 15.7657 8.2942 15.6613 9.64442 14.8151C11.6187 13.5863 11.8797 10.8505 10.0529 9.26231C9.23595 8.54358 8.26016 8.28854 7.11417 8.26536Z" fill="current"/>
<path d="M67.9537 13.6558C68.1353 14.0847 68.3849 14.4093 68.6912 14.6991C69.5989 15.5338 70.6768 15.87 71.8796 15.8352C72.9007 15.8004 73.8085 15.4758 74.5914 14.8035C74.6254 14.7687 74.7048 14.7571 74.7502 14.7803C75.7714 15.186 76.7812 15.5918 77.791 16.0091C77.8024 16.0207 77.8251 16.0323 77.8364 16.0554C77.2351 16.8553 76.5089 17.5161 75.6352 17.9798C72.8894 19.4173 70.1436 19.4057 67.4658 17.8175C65.9454 16.9249 64.8902 15.5918 64.4704 13.8297C63.9711 11.7431 64.4817 9.87668 65.8546 8.28851C67.4772 6.43372 69.5649 5.65703 71.9703 5.90047C74.3417 6.14391 76.2026 7.30315 77.4053 9.43616C78.1314 10.7113 78.3243 12.1024 78.0861 13.5515C78.0634 13.679 77.9953 13.679 77.9045 13.679C77.1443 13.679 76.3728 13.679 75.6125 13.679C73.139 13.679 70.6655 13.679 68.2033 13.679C68.1239 13.6558 68.0558 13.6558 67.9537 13.6558ZM67.9197 11.1403C70.1436 11.1403 72.3448 11.1403 74.5573 11.1403C74.0808 9.85349 72.6398 8.93769 71.1534 8.97246C69.4855 9.01883 68.3054 10.1085 67.9197 11.1403Z" fill="current"/>
<path d="M22.3071 0.846191C23.4758 0.846191 24.6331 0.846191 25.8132 0.846191C25.8132 5.65705 25.8132 10.4563 25.8132 15.2788C28.6498 15.2788 31.4637 15.2788 34.289 15.2788C34.289 16.3801 34.289 17.4581 34.289 18.5362C30.295 18.5362 26.3124 18.5362 22.3071 18.5362C22.3071 12.6473 22.3071 6.75833 22.3071 0.846191Z" fill="current"/>
<path d="M41.4713 2.34161C42.5379 2.34161 43.5817 2.34161 44.6597 2.34161C44.6597 3.36175 44.6597 4.37029 44.6597 5.41361C45.8851 5.41361 47.0878 5.41361 48.2905 5.41361C48.2905 6.25986 48.2905 7.09451 48.2905 7.94076C47.0878 7.94076 45.8964 7.94076 44.6597 7.94076C44.6597 8.02191 44.6597 8.09146 44.6597 8.16102C44.6597 10.2361 44.6597 12.3111 44.6597 14.3862C44.6597 14.618 44.6823 14.8499 44.7391 15.0701C44.9206 15.87 45.4766 16.3337 46.3049 16.3801C46.9176 16.4148 47.587 16.3569 48.3245 15.8468C48.5401 16.4032 48.7671 16.9481 48.9826 17.5045C49.0167 17.5973 49.0507 17.69 49.0848 17.7711C49.2209 18.1073 49.2209 18.1073 48.9032 18.3044C48.2905 18.6869 47.6097 18.8724 46.9062 18.9536C45.8737 19.0695 44.8639 18.9999 43.8994 18.6058C42.5038 18.0378 41.7663 16.9597 41.5394 15.5106C41.4827 15.1397 41.46 14.7687 41.46 14.3977C41.46 10.4679 41.46 6.53808 41.46 2.59665C41.4713 2.5155 41.4713 2.44595 41.4713 2.34161Z" fill="current"/>
<path d="M50.6959 2.34161C51.7625 2.34161 52.8063 2.34161 53.8843 2.34161C53.8843 3.36175 53.8843 4.37029 53.8843 5.41361C55.1097 5.41361 56.3124 5.41361 57.5151 5.41361C57.5151 6.25986 57.5151 7.09451 57.5151 7.94076C56.3124 7.94076 55.121 7.94076 53.8843 7.94076C53.8843 8.02191 53.8843 8.09146 53.8843 8.16102C53.8843 10.2361 53.8843 12.3111 53.8843 14.3862C53.8843 14.618 53.9069 14.8499 53.9637 15.0701C54.1452 15.87 54.7012 16.3337 55.5295 16.3801C56.1422 16.4148 56.8116 16.3569 57.5491 15.8468C57.7647 16.4032 57.9917 16.9481 58.2072 17.5045C58.2413 17.5973 58.2753 17.69 58.3094 17.7711C58.4455 18.1073 58.4455 18.1073 58.1278 18.3044C57.5151 18.6869 56.8343 18.8724 56.1308 18.9536C55.0983 19.0695 54.0885 18.9999 53.124 18.6058C51.7284 18.0378 50.9909 16.9597 50.764 15.5106C50.7073 15.1397 50.6846 14.7687 50.6846 14.3977C50.6846 10.4679 50.6846 6.53808 50.6846 2.59665C50.6959 2.5155 50.6959 2.44595 50.6959 2.34161Z" fill="current"/>
<path d="M107.201 2.34161C108.268 2.34161 109.311 2.34161 110.389 2.34161C110.389 3.36175 110.389 4.37029 110.389 5.41361C111.615 5.41361 112.818 5.41361 114.02 5.41361C114.02 6.25986 114.02 7.09451 114.02 7.94076C112.818 7.94076 111.626 7.94076 110.389 7.94076C110.389 8.02191 110.389 8.09146 110.389 8.16102C110.389 10.2361 110.389 12.3111 110.389 14.3862C110.389 14.618 110.412 14.8499 110.469 15.0701C110.65 15.87 111.206 16.3337 112.035 16.3801C112.647 16.4148 113.317 16.3569 114.054 15.8468C114.27 16.4032 114.497 16.9481 114.712 17.5045C114.746 17.5973 114.78 17.69 114.814 17.7711C114.951 18.1073 114.951 18.1073 114.633 18.3044C114.02 18.6869 113.339 18.8724 112.636 18.9536C111.603 19.0695 110.594 18.9999 109.629 18.6058C108.234 18.0378 107.496 16.9597 107.269 15.5106C107.212 15.1397 107.19 14.7687 107.19 14.3977C107.19 10.4679 107.19 6.53808 107.19 2.59665C107.201 2.5155 107.201 2.44595 107.201 2.34161Z" fill="current"/>
<path d="M59.5347 0.811401C60.6466 0.811401 61.7472 0.811401 62.8592 0.811401C62.8592 6.72354 62.8592 12.6241 62.8592 18.5362C61.7472 18.5362 60.6466 18.5362 59.5347 18.5362C59.5347 12.6357 59.5347 6.73514 59.5347 0.811401Z" fill="current"/>
<path d="M101.46 18.5362C101.46 14.1427 101.46 9.74918 101.46 5.35565C102.583 5.35565 103.684 5.35565 104.807 5.35565C104.807 9.74918 104.807 14.1311 104.807 18.5362C103.695 18.5362 102.594 18.5362 101.46 18.5362Z" fill="current"/>
<path d="M119.455 12.3459C119.399 12.3459 119.353 12.3575 119.319 12.3575C118.389 12.3575 117.458 12.3575 116.505 12.3575C116.426 8.28852 116.358 4.23117 116.278 0.162231C117.402 0.162231 118.514 0.162231 119.648 0.162231C119.58 4.21958 119.523 8.27693 119.455 12.3459Z" fill="current"/>
<path d="M39.6514 2.24702L37.4531 0.0010376L35.2548 2.24702L37.4531 4.493L39.6514 2.24702Z" fill="current"/>
<path d="M105.346 2.24659L103.148 0.000610352L100.95 2.24659L103.148 4.49257L105.346 2.24659Z" fill="current"/>
<path d="M50.7073 5.97106L50.7073 5.4494L50.1967 5.4494L50.1967 5.97106L50.7073 5.97106Z" fill="current"/>
<path d="M50.7068 6.97912L50.7068 6.45746L50.1962 6.45746L50.1962 6.97912L50.7068 6.97912Z" fill="current"/>
<path d="M50.7063 7.98717L50.7063 7.46552L50.1957 7.46552L50.1957 7.98717L50.7063 7.98717Z" fill="current"/>
<path d="M49.7207 5.97057V5.44891H49.2101V5.97057H49.7207Z" fill="current"/>
<path d="M49.7202 6.97863L49.7202 6.45697L49.2096 6.45697L49.2096 6.97863L49.7202 6.97863Z" fill="current"/>
<path d="M49.7195 7.98669L49.7195 7.46503L49.2089 7.46503L49.2089 7.98669L49.7195 7.98669Z" fill="current"/>
<path d="M48.7339 5.97008L48.7339 5.44843L48.2233 5.44843L48.2233 5.97008L48.7339 5.97008Z" fill="current"/>
<path d="M49.2102 6.49731L49.2102 5.97565L48.6996 5.97565L48.6996 6.49731L49.2102 6.49731Z" fill="current"/>
<path d="M50.1968 6.49779L50.1968 5.97614L49.6862 5.97614L49.6862 6.49779L50.1968 6.49779Z" fill="current"/>
<path d="M49.2097 7.5053L49.2097 6.98364L48.6991 6.98364L48.6991 7.5053L49.2097 7.5053Z" fill="current"/>
<path d="M50.1963 7.50579L50.1963 6.98413L49.6857 6.98413L49.6857 7.50579L50.1963 7.50579Z" fill="current"/>
<path d="M48.7336 6.97814L48.7336 6.45648L48.2231 6.45648L48.2231 6.97814L48.7336 6.97814Z" fill="current"/>
<path d="M48.7329 7.98614L48.7329 7.46448L48.2223 7.46448L48.2223 7.98614L48.7329 7.98614Z" fill="current"/>
<path d="M107.213 5.85522L107.213 5.33356L106.702 5.33356L106.702 5.85522L107.213 5.85522Z" fill="current"/>
<path d="M107.212 6.86322L107.212 6.34155L106.702 6.34155L106.702 6.86322L107.212 6.86322Z" fill="current"/>
<path d="M107.211 7.87127V7.34961H106.701V7.87127H107.211Z" fill="current"/>
<path d="M106.226 5.85467V5.33301H105.715V5.85467H106.226Z" fill="current"/>
<path d="M106.225 6.86272L106.225 6.34106L105.715 6.34106L105.715 6.86272L106.225 6.86272Z" fill="current"/>
<path d="M106.225 7.87078L106.225 7.34912L105.714 7.34912L105.714 7.87078L106.225 7.87078Z" fill="current"/>
<path d="M105.24 5.85418L105.24 5.33252L104.729 5.33252L104.729 5.85418L105.24 5.85418Z" fill="current"/>
<path d="M105.715 6.3814L105.715 5.85974L105.205 5.85974L105.205 6.3814L105.715 6.3814Z" fill="current"/>
<path d="M106.702 6.38189L106.702 5.86023L106.192 5.86023L106.192 6.38189L106.702 6.38189Z" fill="current"/>
<path d="M105.715 7.38946V6.8678H105.204V7.38946H105.715Z" fill="current"/>
<path d="M106.702 7.38995L106.702 6.86829L106.191 6.86829L106.191 7.38995L106.702 7.38995Z" fill="current"/>
<path d="M105.239 6.86224L105.239 6.34058L104.728 6.34058L104.728 6.86224L105.239 6.86224Z" fill="current"/>
<path d="M105.238 7.87029L105.238 7.34863L104.728 7.34863L104.728 7.87029L105.238 7.87029Z" fill="current"/>
</g>
<defs>
<clipPath id="clip0">
<rect width="120" height="19" fill="current"/>
</clipPath>
</defs>
</svg>
