<svg width="48" height="48" viewBox="0 0 48 48" fill="none" xmlns="http://www.w3.org/2000/svg">
<path d="M0 3.99951C0 1.79037 1.79086 -0.000488281 4 -0.000488281H44C46.2091 -0.000488281 48 1.79037 48 3.99951V43.9995C48 46.2086 46.2091 47.9995 44 47.9995H4C1.79086 47.9995 0 46.2086 0 43.9995V3.99951Z" fill="black"/>
<path fill-rule="evenodd" clip-rule="evenodd" d="M24.4992 10C20.8347 10 20.3744 10.016 18.9347 10.0816C17.4975 10.1474 16.5165 10.3749 15.6581 10.7087C14.7702 11.0536 14.017 11.5148 13.2666 12.2655C12.5157 13.0158 12.0544 13.769 11.7085 14.6567C11.3738 15.5153 11.146 16.4966 11.0813 17.9332C11.0169 19.3732 11 19.8336 11 23.5C11 27.1664 11.0163 27.6251 11.0816 29.0651C11.1477 30.5023 11.3752 31.4833 11.7088 32.3417C12.0539 33.2296 12.5151 33.9828 13.2658 34.7331C14.0159 35.4841 14.7691 35.9464 15.6564 36.2912C16.5154 36.6251 17.4967 36.8526 18.9336 36.9184C20.3736 36.984 20.8334 37 24.4996 37C28.1663 37 28.625 36.984 30.065 36.9184C31.5022 36.8526 32.4844 36.6251 33.3433 36.2912C34.2309 35.9464 34.983 35.4841 35.7331 34.7331C36.484 33.9828 36.9453 33.2296 37.2912 32.3419C37.6231 31.4833 37.8509 30.502 37.9184 29.0654C37.9831 27.6254 38 27.1664 38 23.5C38 19.8336 37.9831 19.3735 37.9184 17.9335C37.8509 16.4963 37.6231 15.5153 37.2912 14.6569C36.9453 13.769 36.484 13.0158 35.7331 12.2655C34.9822 11.5145 34.2312 11.0533 33.3425 10.7087C32.4818 10.3749 31.5002 10.1474 30.063 10.0816C28.6233 10.016 28.1648 10 24.4992 10ZM23.2902 12.4328C23.5253 12.4324 23.7783 12.4326 24.0513 12.4327C24.1956 12.4327 24.3455 12.4328 24.5013 12.4328C28.1058 12.4328 28.533 12.4457 29.9564 12.5104C31.2727 12.5706 31.9871 12.7906 32.463 12.9753C33.093 13.22 33.5421 13.5125 34.0144 13.985C34.4869 14.4575 34.7794 14.9075 35.0246 15.5375C35.2094 16.0128 35.4296 16.7272 35.4895 18.0435C35.5542 19.4666 35.5683 19.8941 35.5683 23.4969C35.5683 27.0997 35.5542 27.5272 35.4895 28.9503C35.4293 30.2666 35.2094 30.981 35.0246 31.4563C34.7799 32.0863 34.4869 32.5349 34.0144 33.0071C33.5419 33.4796 33.0933 33.7721 32.463 34.0168C31.9877 34.2024 31.2727 34.4218 29.9564 34.482C28.5333 34.5467 28.1058 34.5607 24.5013 34.5607C20.8964 34.5607 20.4692 34.5467 19.0461 34.482C17.7298 34.4212 17.0154 34.2013 16.5393 34.0165C15.9093 33.7718 15.4593 33.4793 14.9868 33.0068C14.5143 32.5343 14.2218 32.0854 13.9765 31.4552C13.7917 30.9798 13.5715 30.2655 13.5116 28.9492C13.4469 27.5261 13.434 27.0986 13.434 23.4935C13.434 19.8885 13.4469 19.4632 13.5116 18.0401C13.5718 16.7238 13.7917 16.0095 13.9765 15.5336C14.2212 14.9036 14.5143 14.4536 14.9868 13.9811C15.4593 13.5086 15.9093 13.2161 16.5393 12.9708C17.0152 12.7852 17.7298 12.5658 19.0461 12.5054C20.2915 12.4491 20.7741 12.4322 23.2902 12.4294V12.4328ZM30.0875 16.2938C30.0875 15.3992 30.8131 14.6744 31.7075 14.6744C32.6019 14.6744 33.3275 15.3995 33.3275 16.2938C33.3275 17.1882 32.6019 17.9138 31.7075 17.9138C30.8131 17.9138 30.0875 17.1882 30.0875 16.2938ZM24.5011 16.5672C20.6725 16.5673 17.5684 19.6714 17.5684 23.5C17.5684 27.3286 20.6726 30.4314 24.5013 30.4314C28.33 30.4314 31.433 27.3286 31.433 23.5C31.433 19.6714 28.3298 16.5673 24.5011 16.5672ZM29.0013 23.5C29.0013 21.0146 26.9864 19 24.5013 19C22.0158 19 20.0012 21.0146 20.0012 23.5C20.0012 25.9851 22.0158 28 24.5013 28C26.9864 28 29.0013 25.9851 29.0013 23.5Z" fill="white"/>
</svg>
