<svg width="48" height="48" viewBox="0 0 48 48" fill="none" xmlns="http://www.w3.org/2000/svg">
<rect width="48" height="48" rx="4" fill="black"/>
<path fill-rule="evenodd" clip-rule="evenodd" d="M37.5206 17.6188C38.0976 19.1218 38.3743 20.4698 38.435 22.1132C38.4446 22.4379 38.4401 23.0327 38.4191 23.4357C38.3753 24.2081 38.3334 24.3615 38.111 24.5659C37.7536 24.9012 37.0569 24.8213 36.7927 24.4172C36.6547 24.2003 36.6354 24.0415 36.662 23.1391C36.7387 20.4696 36.1988 18.3794 34.8982 16.2894C33.344 13.782 31.0193 12.0928 27.9963 11.2665C27.2254 11.0561 26.5757 10.9279 25.5653 10.7919C24.9071 10.7057 24.763 10.6693 24.6005 10.5693C24.1098 10.255 24.1033 9.45917 24.5925 9.14008C24.8449 8.97164 25.031 8.96412 25.8539 9.06949C28.2667 9.37101 30.4197 10.088 32.1888 11.1714C33.4568 11.9489 34.2563 12.6475 35.2857 13.8709C36.3745 15.1757 36.951 16.1405 37.5206 17.6188ZM38.7314 32.6346C38.6746 32.4686 38.542 32.2124 38.4472 32.0653C37.8504 31.1641 34.6437 28.6545 33.0427 27.8338C32.1285 27.3642 31.4512 27.2077 30.9491 27.3547C30.4091 27.5066 30.1249 27.7579 29.2201 28.8822C28.8555 29.3329 28.4813 29.7551 28.3818 29.8215C28.1355 29.9923 27.6523 30.1299 27.3113 30.1299C26.5203 30.1251 25.085 29.6128 23.9814 28.9391C23.124 28.4174 22.0252 27.4828 21.182 26.5578C20.1873 25.4714 19.51 24.5132 18.9747 23.4316C18.2832 22.0416 18.1079 21.1924 18.3968 20.571C18.4679 20.4144 18.5626 20.2484 18.6052 20.1962C18.6479 20.1488 19.0931 19.7835 19.5857 19.385C20.552 18.6165 20.7083 18.441 20.8883 17.9144C21.1157 17.2455 21.0541 16.5624 20.7036 15.8746C20.4336 15.3527 19.7278 14.2142 19.2163 13.4789C18.5389 12.5112 16.8527 10.4429 16.5163 10.1629C15.91 9.66962 15.1333 9.58418 14.2759 9.91632C13.3712 10.2674 11.6755 11.6336 10.9507 12.5871C10.2971 13.4505 10.0461 14.0624 10.0082 14.8689C9.97503 15.533 10.0319 15.8081 10.3824 16.6573C13.1249 23.3177 17.2174 28.6355 22.8399 32.8576C25.7766 35.0635 28.8223 36.7428 31.9816 37.8909C33.8242 38.5597 34.6247 38.5929 35.5673 38.0427C35.9652 37.8054 36.9504 36.795 37.4998 36.0597C38.4093 34.8358 38.7456 34.2713 38.8403 33.8206C38.9067 33.5123 38.8546 32.9762 38.7314 32.6346ZM31.685 14.5585C33.7187 16.2031 34.8551 18.5406 35.0241 21.446C35.0951 22.5903 35.0007 22.963 34.597 23.1753C34.2327 23.372 33.82 23.3072 33.5368 23.0111C33.3492 22.8185 33.2772 22.555 33.2799 22.0886C33.2882 20.7988 32.991 19.3585 32.5079 18.359C31.9487 17.1958 31.0844 16.2059 29.997 15.4822C29.0446 14.8465 27.7841 14.4172 26.562 14.3103C25.7693 14.2409 25.4862 14.1066 25.334 13.7266C25.2398 13.4993 25.2647 13.1063 25.3752 12.9303C25.4797 12.7679 25.7142 12.5885 25.8799 12.541C26.0556 12.4898 27.0796 12.5793 27.6357 12.6899C29.154 12.9989 30.5391 13.6343 31.685 14.5585ZM30.7474 18.0242C31.265 18.6838 31.5564 19.4284 31.6732 20.3767C31.6987 20.5741 31.7093 20.9418 31.702 21.1887C31.6909 21.5877 31.6748 21.6625 31.5695 21.8343C31.2823 22.2901 30.6054 22.3642 30.2251 21.9833C30.0198 21.7749 29.9691 21.5943 29.9492 21.0067C29.9065 19.7554 29.5081 18.9825 28.6527 18.4885C28.2497 18.2581 27.8066 18.105 27.1655 17.987C26.6841 17.8925 26.511 17.806 26.3609 17.5643C26.1476 17.2312 26.2021 16.717 26.4813 16.4605C26.781 16.1867 27.1158 16.1636 27.9446 16.3647C29.2163 16.6664 30.0752 17.1749 30.7474 18.0242Z" fill="white"/>
</svg>
