<svg width="206" height="206" viewBox="0 0 206 206" fill="none" xmlns="http://www.w3.org/2000/svg">
<path d="M68.284 25.1747L67.3516 17.1908L70.7227 11.4366L75.0263 10.2139L78.0389 12.6594C78.0389 12.5155 77.9672 12.2997 77.9672 12.084C77.8954 11.7963 77.8954 11.5085 77.8954 11.2208V11.077L79.7603 8.84724L81.4101 8.34375L83.2032 8.9911L83.9922 15.6803L81.9121 16.2557L81.2666 11.077L80.6928 11.4366L82.1273 23.2327L82.7011 23.3765L82.3425 18.9171L84.4943 18.2697L84.9964 23.8081L84.0639 25.5344L81.9121 26.1817L81.7687 26.1098C81.7687 26.1098 81.6252 26.0379 81.4818 25.9659C81.41 25.894 81.4101 25.8221 81.2666 25.7501C80.6928 25.3186 80.119 24.887 79.5451 24.3835L79.4017 24.3116V24.1677C79.4017 23.952 79.33 23.7362 79.33 23.5204C79.1865 23.8081 79.0431 24.0958 78.8996 24.3116C78.1823 25.6063 77.4651 26.9729 77.2499 27.2606L77.1782 27.4045L72.8745 28.6272L68.284 25.1747ZM75.6002 25.3905L78.8996 19.5644L78.541 16.6154L74.1656 13.0909L72.229 13.6664L70.1489 17.4066L70.9379 23.6643L73.6635 25.9659L75.6002 25.3905Z" fill="white"/>
<path d="M94.967 21.9378L97.4774 22.0817L98.1947 21.5062L101.996 2.80516L101.566 2.30167L99.0554 2.15782L99.4858 0L108.667 0.359636L108.236 2.51745L105.726 2.3736L105.009 2.94902L101.136 21.5062L101.566 22.0097L109.743 22.3694L110.388 21.794L110.962 18.9888L113.257 19.0607L112.11 24.671L94.5366 23.9518L94.967 21.9378Z" fill="white"/>
<path d="M114.476 23.3757L116.915 23.9511L117.775 23.5196L122.223 12.3709L121.936 11.7954L119.353 11.22L120.142 9.20605L129.037 11.22L128.248 13.234L125.737 12.6586L124.948 13.0901L120.501 24.2389L120.788 24.8143L123.37 25.3897L122.581 27.4037L113.759 25.3897L114.476 23.3757Z" fill="white"/>
<path d="M135.205 16.255L131.26 14.6726L132.551 12.5867L136.066 14.0252L136.783 13.6656L139.366 9.42188L142.163 10.5727L139.509 14.8883L139.581 15.4638L146.036 18.0531L144.745 20.139L138.003 17.4058L131.691 27.8353L131.762 28.4107L138.218 31.0001L137.07 32.9421L129.18 29.7773L128.678 27.3318L135.205 16.255Z" fill="white"/>
<path d="M149.049 23.0165L145.391 20.7867L146.969 18.9166L150.268 20.8586L151.057 20.5709L154.285 16.7588L156.867 18.2693L153.568 22.1533V22.7288L159.521 26.3251L157.943 28.1952L151.703 24.455L143.813 33.8056V34.381L149.766 37.9773L148.26 39.7036L140.944 35.316L140.872 32.7986L149.049 23.0165Z" fill="white"/>
<path d="M151.702 39.9918L153.639 41.6462H154.572L159.521 37.4024L169.06 29.3466L168.989 28.5554L166.693 26.5414L168.415 25.1748L171.643 27.98L172.001 30.5694L161.027 39.848L156.652 43.5163V44.2355L158.66 45.9618L157.01 47.3284L150.053 41.3584L151.702 39.9918Z" fill="white"/>
<path d="M162.103 45.746L168.989 41.5742L175.588 42.2935L179.389 46.8968L178.026 52.5072L174.297 54.8088L166.981 46.0337L164.614 47.4723L163.681 50.9248L165.976 53.5861L170.495 53.9457L172.647 56.4632L164.685 55.8878L160.884 51.3563L162.103 45.746ZM174.799 51.2844L175.588 50.7809L176.52 47.3284L174.225 44.5952L169.921 44.2355L169.276 44.6671L174.799 51.2844Z" fill="white"/>
<path d="M172.647 67.1082L174.727 66.6767L175.66 69.1222L176.449 69.5537L195.026 65.5258L195.169 65.2381L194.954 65.0223L189.288 66.1732L188.427 63.9434L195.026 62.5049L197.178 63.5119L197.967 65.5258L197.034 67.9714L188.857 69.7695L193.017 71.5677L194.667 75.8114L191.511 80.7744L187.208 81.7095L181.613 82.8603L181.326 83.4357L182.258 85.8812L180.178 86.3128L176.879 77.7535L178.959 77.3219L179.891 79.6955L180.68 80.1271L189.79 78.185L191.798 75.1641L191.081 73.294L184.912 70.4888L177.524 72.0712L177.166 72.6466L178.17 75.1641L176.09 75.5956L172.647 67.1082Z" fill="white"/>
<path d="M184.625 86.1689L192.659 86.3128L197.895 90.4127L198.54 94.8721L195.671 97.5335C195.815 97.5335 196.03 97.5335 196.245 97.5335C196.532 97.5335 196.819 97.5335 197.106 97.5335H197.249L199.186 99.6913L199.401 101.418L198.54 103.144L191.798 103.072L191.511 100.914L196.747 100.986L196.46 100.339L184.625 100.195L184.41 100.77L188.929 100.986L189.287 103.216L183.764 103L182.186 101.849L181.828 99.6194L181.899 99.4755C181.899 99.4755 181.971 99.3316 182.043 99.1878C182.115 99.1159 182.186 99.1159 182.258 99.0439C182.76 98.5404 183.262 98.037 183.836 97.5335L183.98 97.3896H184.123C184.338 97.3896 184.553 97.3896 184.769 97.3896C184.553 97.2457 184.266 97.03 184.051 96.8142C182.832 95.8791 181.613 95.016 181.326 94.8002L181.182 94.6564L180.537 90.1969L184.625 86.1689ZM183.406 93.4336L188.714 97.5335L191.654 97.6054L195.743 93.7213L195.456 91.7073L192.013 89.118L185.701 89.046L183.119 91.4196L183.406 93.4336Z" fill="white"/>
<path d="M191.368 107.747L191.081 109.905L184.841 108.322V108.97L203.275 113.645L203.418 113.285L203.346 112.926L197.752 111.487L197.967 109.329L204.422 110.912C205.283 111.991 205.642 112.35 206 112.782L205.785 114.94L205.642 115.084C205.14 115.587 204.566 116.091 204.064 116.594L203.92 116.738L195.743 114.652C195.958 114.94 196.174 115.156 196.389 115.371C197.393 116.522 198.325 117.745 198.612 117.961L198.756 118.105L198.325 122.636L193.305 125.657L185.486 123.715L181.254 118.392L181.685 113.861L185.128 111.847L182.115 108.826L182.259 107.315L183.478 105.661L191.368 107.747ZM183.837 117.817L186.634 121.126L192.802 122.708L195.958 120.91L196.174 118.824L191.87 113.573L188.929 112.854L184.052 115.731L183.837 117.817Z" fill="white"/>
<path d="M182.187 125.226L181.541 127.672L181.9 128.535L192.802 133.57L193.376 133.282L194.094 130.693L196.03 131.628L193.591 140.403L191.655 139.468L192.3 137.022L191.942 136.231L181.039 131.196L180.465 131.484L179.748 134.001L177.812 133.066L180.25 124.291L182.187 125.226Z" fill="white"/>
<path d="M188.284 146.444L190.077 142.56L192.085 143.927L190.507 147.379L190.866 148.099L194.954 150.832L193.735 153.565L189.503 150.76L188.929 150.832L186.06 157.162L184.052 155.795L187.064 149.178L176.951 142.416L176.377 142.488L173.508 148.818L171.643 147.523L175.158 139.755L177.668 139.396L188.284 146.444Z" fill="white"/>
<path d="M169.276 159.391L174.368 165.577L174.655 172.266L168.343 179.531L164.613 174.999L166.407 172.985L168.487 175.503L172.217 171.187L171.93 166.872L167.913 161.981L164.398 161.549L160.597 165.865L162.677 168.382L160.955 170.396L157.226 165.865L163.466 158.672L169.276 159.391Z" fill="white"/>
<path d="M156.293 167.446L157.297 169.388L155.217 170.899L155.002 171.762L163.537 188.809L163.896 188.881L164.039 188.665L161.457 183.486L163.394 182.119L166.478 188.161L166.048 190.463L164.326 191.686L161.744 191.398L157.943 183.918L157.225 188.377L153.496 191.038L147.901 189.168L145.893 185.212L143.382 180.105L142.737 179.962L140.585 181.544L139.581 179.602L147.04 174.207L148.044 176.149L145.964 177.66L145.749 178.595L149.909 186.939L153.352 188.161L155.002 186.939L156.149 180.249L152.778 173.488L152.133 173.344L149.981 174.927L148.977 172.985L156.293 167.446Z" fill="white"/>
<path d="M140.872 183.846L142.808 191.686L140.154 197.8L135.994 199.598L132.695 197.512C132.695 197.656 132.767 197.872 132.838 198.088C132.91 198.375 132.982 198.663 133.054 198.951V199.095L131.476 201.54L129.898 202.188L128.033 201.756L126.455 195.211L128.463 194.419L129.682 199.526L130.184 199.095L127.315 187.586L126.742 187.514L127.674 191.902L125.594 192.765L124.446 187.371L125.164 185.5L127.244 184.637H127.387C127.387 184.637 127.531 184.637 127.674 184.709C127.746 184.781 127.817 184.781 127.889 184.853C128.535 185.213 129.109 185.572 129.754 186.004L129.898 186.076V186.22C129.969 186.436 130.041 186.579 130.041 186.795C130.184 186.507 130.256 186.22 130.4 185.932C130.973 184.493 131.547 183.127 131.691 182.839L131.762 182.623L135.923 180.825L140.872 183.846ZM133.627 184.493L131.045 190.679L131.762 193.556L136.496 196.505L138.361 195.714L140.011 191.686L138.505 185.572L135.492 183.63L133.627 184.493Z" fill="white"/>
<path d="M121.793 188.881L119.282 189.24L118.708 189.888L118.565 201.9L118.637 201.972L118.852 202.043C118.924 202.043 118.924 202.115 118.924 202.115L119.211 201.972L119.282 196.217L121.578 195.858L121.506 202.619L120.143 204.345L117.561 204.705L115.983 203.266L115.839 201.684L113.185 205.28L108.738 205.928L104.722 201.756L104.865 191.83L104.65 191.542L104.435 191.758L104.291 197.44L101.924 197.8L101.996 191.182L103.359 189.312L105.726 188.953L107.662 191.111L107.519 200.605L109.958 203.194L111.966 202.907L116.055 197.584L116.126 190.104L115.624 189.672L112.97 190.032V187.874L121.936 186.579L121.793 188.881Z" fill="white"/>
<path d="M101.781 184.853L100.705 189.025L98.4811 190.392L98.9114 191.183L98.3376 193.269L96.9031 194.132L98.6245 197.009L97.3334 201.828L92.0257 206L86.2875 205.424L84.9964 202.332C84.9247 202.619 84.853 202.907 84.7812 203.339C84.566 203.914 84.4226 204.561 84.3509 204.921L84.2791 205.281L80.4776 204.921L79.1865 202.763L81.0514 195.786L83.1315 196.074L81.6252 202.26L81.7687 202.619L82.1273 202.404L83.4184 197.441L89.8738 191.542L95.6837 192.118L96.1141 191.686L95.612 190.607L86.7179 189.744L85.4268 187.73L85.4985 187.586C85.5702 187.371 85.7854 186.508 86.0006 185.644C86.144 185.213 86.2158 184.781 86.2875 184.422C86.3592 184.278 86.3592 184.134 86.4309 183.99C86.4309 183.846 86.5027 183.774 86.5027 183.702C86.5027 183.702 86.5744 183.63 86.6461 183.487C86.7179 183.487 86.7896 183.343 86.8613 183.271C87.0048 183.127 87.2199 182.839 87.5069 182.623C87.9372 182.12 88.4393 181.617 88.511 181.617L88.6545 181.473L100.346 182.623L101.781 184.853ZM90.5911 193.988L86.0723 198.376L88.1524 203.123L91.3084 203.41L94.6796 200.677L95.5403 197.512L93.8188 194.348L90.5911 193.988ZM89.5152 183.846C89.4435 183.918 89.3718 184.062 89.2283 184.134C89.1566 184.206 89.0131 184.278 88.9414 184.35C88.8697 184.494 88.7262 184.997 88.511 185.644C88.3676 186.148 88.2958 186.579 88.2241 186.867L88.511 187.299L97.4769 188.162L98.0507 187.802L98.768 185.141L98.4811 184.637L89.5152 183.846Z" fill="white"/>
<path d="M79.3298 191.542L75.6717 198.735L69.6466 201.612L63.9802 199.742L62.187 194.204L64.1954 190.248L75.0261 193.772L76.3172 191.255L75.2413 187.874L71.8702 186.795L67.8534 188.881L64.6975 187.874L71.7984 184.134L77.4649 185.932L79.3298 191.542ZM65.6299 193.628L65.1995 194.419L66.2037 197.8L69.5749 198.879L73.4482 196.937L73.8068 196.218L65.6299 193.628Z" fill="white"/>
<path d="M61.757 186.364L59.4618 185.069L61.5418 182.479L56.521 179.602L52.3608 180.681L51.2132 182.12L60.8246 187.586L57.4534 191.758L50.998 193.34L42.5342 188.521L46.1923 183.99L48.5592 185.285L46.4792 187.802L51.5718 190.679L55.732 189.528L56.8796 188.09L47.2682 182.623L50.6393 178.452L57.0948 176.869L65.5586 181.688L61.757 186.364Z" fill="white"/>
<path d="M30.3403 174.424L33.2811 177.517L31.2727 178.883L28.6188 176.15L27.8298 176.222L23.7414 179.027L21.6613 176.869L25.8215 173.992L26.0367 173.417L21.231 168.382L23.2393 167.015L28.2602 172.266L38.302 165.361L38.5172 164.786L33.7115 159.751L35.5764 158.456L41.458 164.642L40.8842 167.087L30.3403 174.424Z" fill="white"/>
<path d="M34.5725 157.808L32.5642 158.6L31.2731 156.37L30.4124 156.082L12.7675 163.131L12.6958 163.491L12.911 163.706L18.2905 161.621L19.5099 163.634L13.2696 166.152L10.9743 165.505L9.89844 163.634L10.4005 161.117L18.147 158.024L13.7717 156.945L11.4047 152.989L13.7 147.595L17.7884 145.94L23.0962 143.854L23.3114 143.207L21.9486 140.905L23.9569 140.114L28.6192 148.026L26.6108 148.817L25.3197 146.588L24.459 146.3L15.8518 149.609L14.3455 152.917L15.4214 154.644L22.0203 156.37L29.0496 153.565L29.2647 152.917L27.9019 150.616L29.9103 149.824L34.5725 157.808Z" fill="white"/>
<path d="M19.5813 140.618L11.6913 141.912L5.80973 138.819L3.94482 133.137L7.31599 128.39L11.6196 127.671L15.2777 138.532L18.0033 138.1L20.0834 135.223L18.9358 131.914L14.8473 129.972L13.7714 126.808L21.0159 130.26L22.8808 135.87L19.5813 140.618ZM9.82644 130.764L8.96571 130.907L6.8139 133.713L7.96154 137.093L11.8348 139.035L12.6238 138.891L9.82644 130.764Z" fill="white"/>
<path d="M2.94081 110.984L2.58217 111.271L2.6539 111.415L8.10515 112.71L7.9617 115.084L1.50627 113.645V113.717L0 111.919L0.143454 109.545L2.6539 108.107L11.9067 110.193L14.9192 108.322L15.0627 106.308C13.6281 104.654 12.1936 102.928 10.7591 101.202L3.4429 99.5473L2.86908 100.051L2.72563 102.64L0.645543 102.137L1.21936 93.0738L3.29944 93.5773L3.15599 96.0948L3.7298 96.814L12.6957 98.828L15.7082 97.0298L15.8517 95.0159L11.548 89.909L4.23189 88.2547L3.58635 88.6863L3.4429 91.2756L1.36281 90.8441L1.93663 81.7812L4.01671 82.2847L3.87326 84.8022L4.44707 85.5215L16.1386 88.1828L16.3538 87.7512L16.282 87.6074L10.6873 86.3127L10.8308 84.011L17.2862 85.4495L18.8642 87.1758L18.7208 89.7652L16.9276 91.2037L15.5648 90.8441L18.4338 94.2247L18.1469 98.6841L14.0585 101.345C15.2061 102.712 16.3538 104.079 17.5731 105.445L17.7166 105.589L17.4297 110.121L12.5522 113.213L2.94081 110.984Z" fill="white"/>
<path d="M16.2101 82.3571L9.25258 78.3292L6.67041 72.2154L9.10913 65.7419L14.7038 64.2314L21.6614 68.2594L24.2435 74.3732L21.8048 80.7747L16.2101 82.3571ZM21.5896 74.3013L19.8682 70.4172L14.3452 67.1805L10.9023 68.0436L9.32431 72.2154L11.0458 76.1714L16.497 79.3362L19.9399 78.473L21.5896 74.3013Z" fill="white"/>
<path d="M24.8895 67.6112L26.2523 65.4534L26.1088 64.5903L16.7843 56.6064L16.6409 56.6783L16.4974 56.966L20.801 60.7062L19.5817 62.7202L14.2021 58.2607L14.4173 55.8871L15.2781 54.4486L17.7885 53.7293L19.6534 55.2398L17.8602 50.2768L18.6492 49.054L21.7335 48.9102L26.9696 53.1539L25.6067 55.2398L20.7293 51.2118L23.3115 58.4765C24.1005 59.1238 27.7586 62.2886 27.7586 62.2886L28.4041 62.2167L29.7669 59.987L31.4166 61.3536L26.5392 68.9779L24.8895 67.6112Z" fill="white"/>
<path d="M32.3488 56.0312L33.9985 54.0892V53.1542L29.6949 48.2631L21.3745 38.8406L20.5855 38.9845L18.6489 41.2861L17.2144 39.6318L19.94 36.3232L22.5222 35.8916L31.9901 46.6807L35.7199 50.9963H36.4372L38.1586 48.9824L39.5932 50.6367L33.7116 57.6136L32.3488 56.0312Z" fill="white"/>
<path d="M43.3227 46.7527L37.6563 45.3861L33.4961 38.4811L34.2134 31.7199L37.6563 28.7709L41.5295 29.7779L37.1542 22.5132L37.2259 22.2975C37.4411 21.5063 37.6563 20.6431 37.8714 19.8519V19.7081L39.5929 18.2695L41.6012 18.845L41.673 18.9169L45.0441 24.5272L43.3227 25.9657L40.2384 20.9308L39.8798 21.5063L49.7064 37.8337L50.2802 37.4741L46.8373 31.9357L48.487 30.4252L48.7022 30.8568L52.7189 37.4741L51.7865 39.56L50.6389 40.567L48.2001 40.4951C47.6263 39.9916 47.4829 39.7039 47.3394 39.4881L47.2677 39.3442L46.8373 43.8037L43.3227 46.7527ZM42.8923 43.8756L44.4703 42.509L45.1159 35.7479C44.3269 34.4532 43.5379 33.1585 43.5379 33.1585L38.0149 31.7199L36.4369 33.0865L36.0783 37.4022L39.3777 42.9406L42.8923 43.8756Z" fill="white"/>
<path d="M52.2686 10.6651L55.2094 9.22656L60.5889 28.2154L58.2936 29.3662L52.2686 10.6651ZM58.4371 31.0925L61.3779 29.6539L62.3103 32.7468L59.3695 34.1853L58.4371 31.0925Z" fill="white"/>
</svg>
