<svg width="171" height="171" viewBox="0 0 171 171" fill="none" xmlns="http://www.w3.org/2000/svg">
<path d="M56.6825 20.8898L55.9085 14.2647L58.7069 9.48983L62.2793 8.47517L64.78 10.5045C64.78 10.3851 64.7205 10.2061 64.7205 10.027C64.6609 9.78826 64.6609 9.54952 64.6609 9.31077V9.1914L66.209 7.34114L67.5784 6.92334L69.0669 7.46051L69.7218 13.0113L67.9952 13.4888L67.4593 9.1914L66.983 9.48983L68.1738 19.2783L68.6501 19.3977L68.3524 15.6972L70.1386 15.16L70.5554 19.7558L69.7814 21.1883L67.9952 21.7254L67.8761 21.6658C67.8761 21.6658 67.757 21.6061 67.6379 21.5464C67.5784 21.4867 67.5784 21.427 67.4593 21.3673C66.983 21.0092 66.5067 20.6511 66.0303 20.2333L65.9113 20.1736V20.0542C65.9113 19.8752 65.8517 19.6961 65.8517 19.5171C65.7326 19.7558 65.6136 19.9945 65.4945 20.1736C64.8991 21.2479 64.3037 22.382 64.125 22.6207L64.0655 22.7401L60.4931 23.7548L56.6825 20.8898ZM62.7556 21.0689L65.4945 16.2343L65.1968 13.7872L61.5648 10.8626L59.9572 11.3401L58.2306 14.4438L58.8855 19.6364L61.148 21.5464L62.7556 21.0689Z" fill="#00FFF9"/>
<path d="M78.8315 18.2042L80.9155 18.3236L81.5109 17.8461L84.6665 2.32775L84.3093 1.90995L82.2254 1.79058L82.5826 0L90.2038 0.298429L89.8465 2.08901L87.7626 1.96963L87.1672 2.44712L83.952 17.8461L84.3093 18.2639L91.0969 18.5623L91.6327 18.0848L92.1091 15.7571L94.0143 15.8168L93.0617 20.4722L78.4743 19.8754L78.8315 18.2042Z" fill="#00FFF9"/>
<path d="M95.0264 19.3978L97.0508 19.8753L97.7653 19.5171L101.457 10.2658L101.219 9.78834L99.0752 9.31085L99.7301 7.63965L107.113 9.31085L106.458 10.9821L104.374 10.5046L103.719 10.8627L100.028 20.114L100.266 20.5915L102.409 21.069L101.754 22.7402L94.431 21.069L95.0264 19.3978Z" fill="#00FFF9"/>
<path d="M112.234 13.489L108.959 12.1759L110.031 10.445L112.948 11.6387L113.544 11.3403L115.687 7.81885L118.009 8.77382L115.806 12.355L115.866 12.8325L121.224 14.9812L120.153 16.712L114.556 14.444L109.316 23.0984L109.376 23.5759L114.734 25.7246L113.782 27.3361L107.232 24.7099L106.815 22.6806L112.234 13.489Z" fill="#00FFF9"/>
<path d="M123.725 19.0994L120.688 17.2491L121.998 15.6973L124.737 17.3088L125.392 17.0701L128.071 13.9067L130.215 15.1601L127.476 18.3832V18.8607L132.418 21.845L131.108 23.3968L125.928 20.2931L119.379 28.0523V28.5298L124.32 31.5141L123.07 32.9465L116.997 29.3057L116.937 27.2167L123.725 19.0994Z" fill="#00FFF9"/>
<path d="M125.928 33.1854L127.535 34.5582H128.309L132.418 31.0367L140.337 24.3519L140.277 23.6954L138.372 22.0242L139.801 20.8901L142.48 23.2179L142.778 25.3666L133.668 33.0661L130.036 36.11V36.7069L131.703 38.1394L130.334 39.2734L124.558 34.3195L125.928 33.1854Z" fill="#00FFF9"/>
<path d="M134.561 37.9603L140.277 34.4985L145.755 35.0954L148.911 38.9153L147.779 43.5708L144.683 45.4807L138.61 38.1991L136.645 39.3928L135.871 42.2577L137.777 44.4661L141.528 44.7645L143.314 46.8535L136.705 46.376L133.549 42.6158L134.561 37.9603ZM145.1 42.5561L145.755 42.1383L146.529 39.2734L144.624 37.0053L141.051 36.7069L140.515 37.065L145.1 42.5561Z" fill="#00FFF9"/>
<path d="M143.314 55.6871L145.04 55.329L145.814 57.3583L146.469 57.7164L161.89 54.374L162.009 54.1352L161.831 53.9562L157.127 54.9112L156.413 53.0609L161.89 51.8672L163.676 52.7028L164.331 54.374L163.557 56.4033L156.77 57.8955L160.223 59.3876L161.593 62.9091L158.973 67.0274L155.4 67.8033L150.756 68.7583L150.518 69.2358L151.292 71.2651L149.565 71.6232L146.826 64.5206L148.553 64.1625L149.327 66.1321L149.982 66.4902L157.544 64.8787L159.211 62.3719L158.615 60.8201L153.495 58.4923L147.362 59.8054L147.065 60.2829L147.898 62.3719L146.172 62.73L143.314 55.6871Z" fill="#00FFF9"/>
<path d="M153.257 71.5034L159.925 71.6228L164.272 75.0249L164.808 78.7254L162.426 80.9338C162.545 80.9338 162.724 80.9338 162.902 80.9338C163.141 80.9338 163.379 80.9338 163.617 80.9338H163.736L165.344 82.7244L165.522 84.1568L164.808 85.5893L159.211 85.5296L158.973 83.739L163.319 83.7987L163.081 83.2615L153.257 83.1422L153.078 83.6197L156.829 83.7987L157.127 85.649L152.542 85.4699L151.232 84.515L150.935 82.6647L150.994 82.5453C150.994 82.5453 151.054 82.4259 151.113 82.3066C151.173 82.2469 151.232 82.2469 151.292 82.1872C151.709 81.7694 152.126 81.3516 152.602 80.9338L152.721 80.8144H152.84C153.019 80.8144 153.197 80.8144 153.376 80.8144C153.197 80.695 152.959 80.516 152.781 80.3369C151.768 79.561 150.756 78.8448 150.518 78.6657L150.399 78.5464L149.863 74.8458L153.257 71.5034ZM152.245 77.5317L156.651 80.9338L159.092 80.9935L162.486 77.7704L162.247 76.0992L159.39 73.9505L154.15 73.8909L152.006 75.8605L152.245 77.5317Z" fill="#00FFF9"/>
<path d="M158.854 89.4096L158.616 91.2002L153.436 89.8871V90.4243L168.737 94.3038L168.856 94.0054L168.797 93.707L164.153 92.5133L164.331 90.7227L169.69 92.0358C170.405 92.9311 170.702 93.2295 171 93.5876L170.821 95.3782L170.702 95.4976C170.285 95.9154 169.809 96.3332 169.392 96.751L169.273 96.8703L162.486 95.1394C162.664 95.3782 162.843 95.5572 163.022 95.7363C163.855 96.6913 164.629 97.7059 164.867 97.885L164.986 98.0044L164.629 101.765L160.461 104.271L153.971 102.66L150.458 98.2431L150.816 94.4829L153.674 92.8117L151.173 90.3049L151.292 89.0515L152.304 87.6787L158.854 89.4096ZM152.602 97.7656L154.924 100.511L160.044 101.824L162.664 100.332L162.843 98.6012L159.27 94.2442L156.829 93.6473L152.781 96.0347L152.602 97.7656Z" fill="#00FFF9"/>
<path d="M151.233 103.913L150.697 105.942L150.994 106.659L160.045 110.837L160.521 110.598L161.116 108.449L162.724 109.225L160.7 116.507L159.092 115.731L159.628 113.702L159.33 113.045L150.28 108.867L149.804 109.106L149.208 111.195L147.601 110.419L149.625 103.137L151.233 103.913Z" fill="#00FFF9"/>
<path d="M156.294 121.521L157.782 118.298L159.449 119.432L158.139 122.297L158.437 122.893L161.831 125.161L160.819 127.43L157.306 125.102L156.829 125.161L154.448 130.414L152.781 129.28L155.281 123.789L146.886 118.178L146.41 118.238L144.028 123.49L142.48 122.416L145.398 115.97L147.482 115.671L156.294 121.521Z" fill="#00FFF9"/>
<path d="M140.515 132.264L144.743 137.397L144.981 142.948L139.741 148.976L136.645 145.216L138.134 143.544L139.86 145.633L142.956 142.052L142.718 138.471L139.384 134.413L136.466 134.054L133.311 137.636L135.038 139.725L133.609 141.396L130.512 137.636L135.692 131.667L140.515 132.264Z" fill="#00FFF9"/>
<path d="M129.738 138.949L130.572 140.56L128.845 141.814L128.667 142.53L135.752 156.675L136.05 156.735L136.169 156.556L134.025 152.259L135.633 151.125L138.193 156.138L137.836 158.048L136.407 159.063L134.264 158.824L131.108 152.617L130.512 156.317L127.416 158.526L122.772 156.974L121.105 153.691L119.021 149.453L118.485 149.334L116.699 150.647L115.866 149.036L122.058 144.559L122.891 146.171L121.165 147.424L120.986 148.2L124.439 155.124L127.297 156.138L128.667 155.124L129.619 149.573L126.821 143.962L126.285 143.843L124.499 145.156L123.665 143.545L129.738 138.949Z" fill="#00FFF9"/>
<path d="M116.937 152.557L118.545 159.063L116.342 164.136L112.889 165.628L110.15 163.897C110.15 164.017 110.209 164.196 110.269 164.375C110.328 164.614 110.388 164.852 110.447 165.091V165.211L109.138 167.24L107.828 167.777L106.28 167.419L104.97 161.987L106.637 161.331L107.649 165.569L108.066 165.211L105.684 155.661L105.208 155.601L105.982 159.242L104.255 159.958L103.303 155.482L103.898 153.93L105.625 153.214H105.744C105.744 153.214 105.863 153.214 105.982 153.273C106.041 153.333 106.101 153.333 106.16 153.393C106.696 153.691 107.173 153.99 107.709 154.348L107.828 154.407V154.527C107.887 154.706 107.947 154.825 107.947 155.004C108.066 154.765 108.125 154.527 108.244 154.288C108.721 153.094 109.197 151.96 109.316 151.721L109.376 151.542L112.829 150.05L116.937 152.557ZM110.924 153.094L108.78 158.227L109.376 160.615L113.305 163.062L114.853 162.405L116.223 159.063L114.972 153.99L112.472 152.378L110.924 153.094Z" fill="#00FFF9"/>
<path d="M101.1 156.735L99.0156 157.034L98.5393 157.571L98.4202 167.538L98.4798 167.598L98.6584 167.658C98.7179 167.658 98.7179 167.717 98.7179 167.717L98.9561 167.598L99.0156 162.823L100.921 162.525L100.861 168.135L99.7301 169.568L97.5867 169.866L96.2768 168.672L96.1577 167.359L93.9547 170.344L90.2632 170.881L86.9289 167.419L87.048 159.182L86.8694 158.944L86.6908 159.123L86.5717 163.838L84.6069 164.136L84.6664 158.645L85.7977 157.093L87.7625 156.795L89.3701 158.585L89.251 166.464L91.2754 168.613L92.9425 168.374L96.3363 163.957L96.3959 157.75L95.9791 157.392L93.7761 157.69V155.9L101.219 154.825L101.1 156.735Z" fill="#00FFF9"/>
<path d="M84.4878 153.393L83.5947 156.854L81.749 157.988L82.1062 158.645L81.6299 160.376L80.4391 161.092L81.8681 163.48L80.7963 167.479L76.3904 170.94L71.6271 170.463L70.5554 167.896C70.4959 168.135 70.4363 168.374 70.3768 168.732C70.1982 169.209 70.0791 169.747 70.0195 170.045L69.96 170.343L66.8044 170.045L65.7326 168.254L67.2807 162.465L69.0074 162.704L67.757 167.837L67.8761 168.135L68.1738 167.956L69.2455 163.838L74.6042 158.943L79.4269 159.421L79.7842 159.063L79.3674 158.168L71.9844 157.451L70.9126 155.78L70.9722 155.661C71.0317 155.482 71.2103 154.765 71.389 154.049C71.5081 153.691 71.5676 153.333 71.6271 153.035C71.6867 152.915 71.6867 152.796 71.7462 152.676C71.7462 152.557 71.8058 152.497 71.8058 152.438C71.8058 152.438 71.8653 152.378 71.9248 152.259C71.9844 152.259 72.0439 152.139 72.1035 152.08C72.2225 151.96 72.4012 151.721 72.6393 151.542C72.9966 151.125 73.4133 150.707 73.4729 150.707L73.592 150.587L83.297 151.542L84.4878 153.393ZM75.1996 160.973L71.4485 164.614L73.1752 168.553L75.795 168.792L78.5934 166.524L79.3078 163.897L77.8789 161.271L75.1996 160.973ZM74.3064 152.557C74.2469 152.617 74.1874 152.736 74.0683 152.796C74.0087 152.855 73.8897 152.915 73.8301 152.975C73.7706 153.094 73.6515 153.512 73.4729 154.049C73.3538 154.467 73.2943 154.825 73.2347 155.064L73.4729 155.422L80.9154 156.138L81.3917 155.84L81.9872 153.631L81.749 153.214L74.3064 152.557Z" fill="#00FFF9"/>
<path d="M65.8516 158.944L62.815 164.912L57.8136 167.3L53.1099 165.748L51.6214 161.152L53.2886 157.869L62.2792 160.794L63.3509 158.705L62.4578 155.9L59.6594 155.004L56.3251 156.735L53.7053 155.9L59.5998 152.796L64.3035 154.288L65.8516 158.944ZM54.4794 160.674L54.1221 161.331L54.9557 164.136L57.7541 165.032L60.9693 163.42L61.267 162.823L54.4794 160.674Z" fill="#00FFF9"/>
<path d="M51.2644 154.646L49.3591 153.572L51.0857 151.423L46.9179 149.036L43.4646 149.931L42.5119 151.125L50.4903 155.661L47.6919 159.123L42.3333 160.436L35.3075 156.437L38.3441 152.676L40.3089 153.751L38.5822 155.84L42.8096 158.227L46.263 157.272L47.2156 156.079L39.2372 151.542L42.0356 148.081L47.3942 146.768L54.42 150.767L51.2644 154.646Z" fill="#00FFF9"/>
<path d="M25.1855 144.738L27.6267 147.305L25.9596 148.439L23.7566 146.171L23.1016 146.23L19.7078 148.558L17.9811 146.767L21.4345 144.38L21.6131 143.902L17.6239 139.724L19.291 138.59L23.4589 142.947L31.7945 137.218L31.9731 136.74L27.9839 132.562L29.532 131.488L34.4143 136.621L33.938 138.65L25.1855 144.738Z" fill="#00FFF9"/>
<path d="M28.6985 130.951L27.0314 131.607L25.9597 129.757L25.2452 129.518L10.5983 135.368L10.5387 135.666L10.7173 135.845L15.1829 134.114L16.1951 135.785L11.015 137.874L9.10975 137.337L8.21664 135.785L8.63343 133.696L15.0638 131.13L11.4318 130.235L9.46699 126.952L11.3723 122.475L14.7661 121.103L19.1721 119.372L19.3507 118.835L18.2194 116.925L19.8866 116.268L23.7567 122.834L22.0896 123.49L21.0178 121.64L20.3033 121.401L13.1585 124.147L11.9081 126.892L12.8013 128.325L18.279 129.757L24.1139 127.429L24.2925 126.892L23.1613 124.982L24.8284 124.326L28.6985 130.951Z" fill="#00FFF9"/>
<path d="M16.2545 116.686L9.70508 117.76L4.82277 115.194L3.27472 110.478L6.07312 106.539L9.64554 105.942L12.6821 114.955L14.9446 114.597L16.6713 112.209L15.7187 109.464L12.3249 107.852L11.4318 105.226L17.4453 108.091L18.9934 112.746L16.2545 116.686ZM8.15703 108.509L7.44255 108.628L5.65633 110.956L6.60898 113.761L9.82416 115.373L10.4791 115.253L8.15703 108.509Z" fill="#00FFF9"/>
<path d="M2.44116 92.0953L2.14345 92.334L2.20299 92.4534L6.72806 93.5277L6.60898 95.4973L1.25035 94.3036V94.3633L0 92.8712L0.119081 90.9015L2.20299 89.7078L9.8837 91.4387L12.3844 89.8869L12.5035 88.2157C11.3127 86.8429 10.1219 85.4104 8.93106 83.978L2.85794 82.6052L2.38162 83.023L2.26253 85.1717L0.535863 84.7539L1.01219 77.2335L2.73886 77.6513L2.61978 79.7403L3.0961 80.3371L10.5386 82.0083L13.0393 80.5162L13.1584 78.845L9.586 74.6073L3.51288 73.2345L2.97702 73.5926L2.85794 75.7413L1.13127 75.3832L1.60759 67.8628L3.33426 68.2806L3.21518 70.3696L3.6915 70.9665L13.3966 73.1748L13.5752 72.8167L13.5157 72.6974L8.87152 71.623L8.9906 69.7131L14.3492 70.9068L15.6591 72.3392L15.54 74.4879L14.0515 75.6816L12.9203 75.3832L15.3019 78.1884L15.0637 81.889L11.6699 84.0973C12.6226 85.2314 13.5752 86.3654 14.5874 87.4994L14.7065 87.6188L14.4683 91.379L10.4196 93.9455L2.44116 92.0953Z" fill="#00FFF9"/>
<path d="M13.4562 68.3402L7.68078 64.9977L5.53732 59.9244L7.5617 54.5527L12.2058 53.2993L17.9813 56.6417L20.1247 61.715L18.1003 67.0271L13.4562 68.3402ZM17.9217 61.6553L16.4928 58.4323L11.9081 55.7464L9.05021 56.4627L7.74032 59.9244L9.16929 63.2072L13.6944 65.8333L16.5523 65.1171L17.9217 61.6553Z" fill="#00FFF9"/>
<path d="M20.6606 56.1047L21.7918 54.3142L21.6728 53.5979L13.9325 46.9728L13.8134 47.0325L13.6944 47.2712L17.2668 50.3749L16.2546 52.0461L11.7891 48.3456L11.9677 46.376L12.6822 45.1822L14.7661 44.5854L16.3141 45.8388L14.8256 41.7205L15.4806 40.7058L18.0408 40.5864L22.3873 44.1079L21.256 45.8388L17.2072 42.4964L19.3507 48.5246C20.0056 49.0618 23.0422 51.688 23.0422 51.688L23.5781 51.6283L24.7093 49.778L26.0788 50.9121L22.03 57.2388L20.6606 56.1047Z" fill="#00FFF9"/>
<path d="M26.8527 46.4952L28.2222 44.8837V44.1078L24.6497 40.0492L17.743 32.2303L17.0881 32.3497L15.4805 34.2596L14.2897 32.8869L16.5522 30.1413L18.6957 29.7832L26.555 38.7361L29.6511 42.3172H30.2465L31.6755 40.646L32.8663 42.0188L27.984 47.8083L26.8527 46.4952Z" fill="#00FFF9"/>
<path d="M35.9623 38.7958L31.2586 37.6617L27.8053 31.9319L28.4007 26.3214L31.2586 23.8743L34.4738 24.7099L30.8418 18.6816L30.9014 18.5026C31.08 17.846 31.2586 17.1298 31.4372 16.4732V16.3539L32.8662 15.1602L34.5333 15.6376L34.5929 15.6973L37.3913 20.3528L35.9623 21.5465L33.4021 17.3685L33.1044 17.846L41.2614 31.3947L41.7377 31.0963L38.8798 26.5005L40.2492 25.2471L40.4278 25.6052L43.7621 31.0963L42.9881 32.8272L42.0354 33.6628L40.011 33.6031C39.5347 33.1853 39.4156 32.9465 39.2966 32.7675L39.237 32.6481L38.8798 36.3486L35.9623 38.7958ZM35.6051 36.4083L36.9149 35.2743L37.4508 29.6638C36.7959 28.5895 36.1409 27.5151 36.1409 27.5151L31.5563 26.3214L30.2464 27.4554L29.9487 31.0366L32.6876 35.6324L35.6051 36.4083Z" fill="#00FFF9"/>
<path d="M45.8461 8.23669L48.2873 7.04297L52.7528 22.8L50.8475 23.755L45.8461 8.23669ZM50.9666 25.1875L53.4077 23.9938L54.1818 26.5602L51.7406 27.754L50.9666 25.1875Z" fill="#00FFF9"/>
<path d="M90.1883 121.4V71.5H76.5883V121.4H90.1883ZM83.3883 66.6C87.7883 66.6 91.2883 63 91.2883 58.7C91.2883 54.3 87.7883 50.8 83.3883 50.8C79.0883 50.8 75.5883 54.3 75.5883 58.7C75.5883 63 79.0883 66.6 83.3883 66.6Z" fill="#00FFF9"/>
</svg>
