<svg width="48" height="48" viewBox="0 0 48 48" fill="none" xmlns="http://www.w3.org/2000/svg">
<rect width="48" height="48" rx="4" fill="black"/>
<path fill-rule="evenodd" clip-rule="evenodd" d="M18.4522 30.9942C18.9869 31.2763 19.5823 31.4236 20.1868 31.4234C22.2003 31.4234 23.844 29.8218 23.9182 27.8256L23.9256 10H28.373C28.3734 10.3786 28.4086 10.7564 28.4781 11.1286L29.6698 11.1292C29.6691 12.621 30.2099 14.0625 31.1916 15.1858C31.192 15.1863 31.1925 15.1867 31.1929 15.1872C32.1944 15.8414 33.365 16.1893 34.5612 16.1882V17.1787C34.9799 17.2684 35.4127 17.3161 35.858 17.3161V21.7648C33.6375 21.7674 31.4726 21.0712 29.6698 19.7748V28.8138C29.6698 33.3274 25.9972 37 21.483 37C20.3588 37.0003 19.2467 36.7684 18.2163 36.3188C17.1867 35.8695 16.2609 35.2126 15.4968 34.3891C15.4962 34.3887 15.4957 34.3883 15.4951 34.3879C13.3839 32.9057 12 30.4544 12 27.6852C12 23.171 15.6726 19.4978 20.1868 19.4978C20.556 19.4996 20.9245 19.5264 21.29 19.5782V20.6313C21.29 20.6313 21.29 20.6313 21.29 20.6313L21.29 24.119C21.29 24.119 21.29 24.119 21.29 24.119L21.29 20.6313C21.3157 20.6308 21.3413 20.6299 21.3669 20.629C21.4054 20.6277 21.444 20.6264 21.483 20.6264C21.8521 20.6281 22.2207 20.655 22.5862 20.7067V25.2476C22.2374 25.1381 21.8682 25.0744 21.483 25.0744C20.4916 25.0756 19.5412 25.4699 18.8403 26.1709C18.1394 26.872 17.7452 27.8225 17.7442 28.8138C17.7442 29.5968 17.9917 30.3598 18.4513 30.9937C18.4516 30.9939 18.4519 30.9941 18.4522 30.9942ZM20.1872 23.9459C20.416 23.9459 20.6395 23.9682 20.8565 24.0095C20.6361 23.968 20.4121 23.9466 20.1872 23.9459ZM17.5444 25.0422C17.5444 25.0422 17.5444 25.0422 17.5444 25.0422V25.0422ZM13.8362 31.7348C14.2161 32.7247 14.7831 33.6228 15.4933 34.386C14.7687 33.6106 14.2091 32.7087 13.8362 31.7348ZM20.1868 35.8714C20.1868 35.8714 20.1868 35.8714 20.1868 35.8714V35.8714ZM28.373 18.6457C28.373 18.6457 28.373 18.6457 28.373 18.6457V18.6457Z" fill="white"/>
</svg>
