<svg width="652" height="252" viewBox="0 0 652 252" fill="none" xmlns="http://www.w3.org/2000/svg">
<g id="warning_modal">
<g id="Group">
<path id="Vector" d="M638.936 251H13.064C6.39029 251 1 246.632 1 241.301V10.6987C1 5.33347 6.39029 1 13.064 1H638.936C645.61 1 651 5.33347 651 10.6987V241.301C650.957 246.632 645.567 251 638.936 251Z" fill="black" stroke="white" stroke-width="2" stroke-miterlimit="10"/>
<path id="Vector_2" d="M638.978 1H13.022C6.39064 1 1 5.98862 1 12.1254V16.5993H651V12.1254C651 5.98862 645.652 1 638.978 1Z" fill="#CECECE" stroke="white" stroke-width="2" stroke-miterlimit="10"/>
</g>
<path id="Vector_3" d="M15.9266 12.2165C17.4032 12.2165 18.6003 11.0194 18.6003 9.54281C18.6003 8.06619 17.4032 6.86914 15.9266 6.86914C14.45 6.86914 13.2529 8.06619 13.2529 9.54281C13.2529 11.0194 14.45 12.2165 15.9266 12.2165Z" fill="#606060" stroke="white" stroke-miterlimit="10"/>
<path id="Vector_4" d="M26.0272 12.2165C27.5038 12.2165 28.7009 11.0194 28.7009 9.54281C28.7009 8.06619 27.5038 6.86914 26.0272 6.86914C24.5506 6.86914 23.3535 8.06619 23.3535 9.54281C23.3535 11.0194 24.5506 12.2165 26.0272 12.2165Z" fill="#606060" stroke="white" stroke-miterlimit="10"/>
<path id="Vector_5" d="M36.1278 12.2165C37.6044 12.2165 38.8015 11.0194 38.8015 9.54281C38.8015 8.06619 37.6044 6.86914 36.1278 6.86914C34.6511 6.86914 33.4541 8.06619 33.4541 9.54281C33.4541 11.0194 34.6511 12.2165 36.1278 12.2165Z" fill="#606060" stroke="white" stroke-miterlimit="10"/>
</g>
</svg>
