<svg width="36" height="36" viewBox="0 0 36 36" fill="none" xmlns="http://www.w3.org/2000/svg">
<path d="M4.86188 5.98442C4.86188 5.72436 4.91628 5.50766 4.85101 5.35596C4.77487 5.17175 4.61171 4.9767 4.43767 4.89001C4.00258 4.6733 3.81767 4.41324 4.02433 4.14234C4.31802 3.77392 4.72047 3.84978 4.87276 4.38073C4.9924 4.80332 5.22084 4.86834 5.57978 4.85751C5.81908 4.84667 6.05839 4.84667 6.29769 4.85751C6.63488 4.86834 6.8633 4.80333 6.97207 4.40241C7.09172 3.93647 7.43979 3.80643 7.70084 4.02315C8.04891 4.30488 7.98364 4.7058 7.47241 4.83583C6.99381 4.96586 6.96119 5.2476 6.97207 5.62685C6.98294 5.86524 6.98294 6.10362 6.97207 6.342C6.96119 6.65624 7.05908 6.82962 7.39628 6.92714C7.864 7.05717 8.02716 7.38224 7.82049 7.65314C7.53768 8.02156 7.11347 7.9457 6.97207 7.41475C6.85242 6.99216 6.62399 6.92714 6.26504 6.93797C6.02574 6.94881 5.78645 6.94881 5.54715 6.93797C5.20996 6.92714 4.97065 6.99215 4.87276 7.39307C4.80749 7.65313 4.63346 8.02155 4.231 7.83735C3.81767 7.6423 3.81767 7.1547 4.29626 7.01383C4.92714 6.81879 4.89452 6.38534 4.86188 5.98442Z" fill="#70FF00"/>
<path d="M13.0752 5.88692C13.097 5.3993 13.1731 4.91168 12.4879 4.78164C12.3465 4.74914 12.1724 4.46741 12.1616 4.2832C12.1507 4.164 12.4117 3.91477 12.5314 3.9256C12.7163 3.94728 12.9012 4.12066 13.0426 4.27237C13.1949 4.43491 13.2819 4.78165 13.4233 4.80332C13.9237 4.8575 14.4458 4.83582 14.9461 4.78164C15.0331 4.77081 15.1093 4.52159 15.1745 4.36989C15.3595 3.96895 15.6531 3.81725 15.9033 4.01229C16.2623 4.29403 16.2079 4.69496 15.7075 4.83583C15.2072 4.9767 15.1746 5.26927 15.1854 5.67021C15.1963 5.87609 15.1963 6.08197 15.1854 6.28785C15.1746 6.62377 15.2507 6.85133 15.6423 6.94885C16.0774 7.05721 16.2296 7.39313 16.0447 7.64236C15.7837 8.01078 15.3486 7.97828 15.2181 7.47982C15.0767 6.94886 14.7503 6.92719 14.337 6.93802C14.163 6.94886 13.9998 6.94886 13.8258 6.93802C13.456 6.92719 13.1731 6.95969 13.0644 7.42564C13.01 7.67487 12.8142 8.05413 12.4009 7.81574C12.0093 7.58818 12.0202 7.15474 12.477 7.02471C13.1731 6.82966 13.1079 6.36371 13.0752 5.88692Z" fill="#70FF00"/>
<path d="M23.844 7.95555C23.6917 7.7605 23.4633 7.59796 23.398 7.38124C23.3001 7.01282 23.0935 6.92613 22.7671 6.93697C22.5278 6.9478 22.2885 6.9478 22.0492 6.93697C21.6794 6.92613 21.4183 6.96947 21.2878 7.42458C21.1464 7.93387 20.7657 8.02056 20.472 7.68465C20.2435 7.42459 20.3741 7.06699 20.8309 6.9478C21.266 6.83944 21.3095 6.59022 21.2987 6.23264C21.2878 5.99425 21.2878 5.75586 21.2987 5.51747C21.3095 5.17072 21.2334 4.954 20.8418 4.85647C20.4067 4.74811 20.2544 4.4122 20.4393 4.16298C20.7113 3.79455 21.1355 3.82706 21.266 4.32551C21.4074 4.85647 21.7338 4.87814 22.1471 4.8673C22.3538 4.85647 22.5605 4.85647 22.7671 4.8673C23.0826 4.87814 23.3001 4.80229 23.4089 4.43387C23.485 4.16298 23.6373 3.76205 24.0833 4.00044C24.2138 4.06546 24.3879 4.30384 24.3552 4.37969C24.2791 4.5639 24.1051 4.80229 23.931 4.8348C23.4198 4.94316 23.398 5.26824 23.4089 5.66917C23.4198 5.87505 23.4198 6.08092 23.4089 6.28681C23.398 6.62272 23.4742 6.86112 23.8658 6.95864C24.0615 7.00199 24.2356 7.24038 24.3552 7.43543C24.3879 7.50044 24.1921 7.69549 24.0942 7.82552C24.0507 7.85803 23.9745 7.87969 23.844 7.95555Z" fill="#70FF00"/>
<path d="M29.1067 3.83871C29.2589 4.03376 29.4765 4.20714 29.5418 4.42385C29.6397 4.75975 29.8246 4.84644 30.14 4.84644C30.412 4.8356 30.6839 4.8356 30.9558 4.84644C31.293 4.85727 31.5215 4.79225 31.6302 4.39133C31.739 3.9579 32.0762 3.80621 32.3264 3.97958C32.6962 4.25047 32.6636 4.67306 32.1741 4.80309C31.652 4.94395 31.6085 5.25818 31.6302 5.68077C31.6411 5.86498 31.6411 6.06002 31.6302 6.24423C31.6085 6.60181 31.6955 6.82935 32.1088 6.94854C32.5983 7.07857 32.6962 7.44698 32.4134 7.72871C32.1306 8.01043 31.7608 7.90209 31.6411 7.41448C31.5323 6.99189 31.2822 6.92687 30.9341 6.94854C30.6948 6.95938 30.4555 6.95938 30.2162 6.94854C29.879 6.9377 29.6505 7.01357 29.5418 7.40365C29.433 7.83708 29.0958 7.98877 28.8456 7.81539C28.4758 7.5445 28.5084 7.12192 28.9979 6.99189C29.5309 6.85103 29.5526 6.5368 29.5418 6.11421C29.5309 5.93 29.5309 5.73495 29.5418 5.55075C29.5635 5.19317 29.4874 4.94396 29.0632 4.84644C28.8782 4.8031 28.7042 4.55386 28.5954 4.35882C28.5628 4.29381 28.7695 4.09876 28.8782 3.96874C28.9109 3.91456 28.987 3.90373 29.1067 3.83871Z" fill="#70FF00"/>
<path d="M8.03855 15.5627C7.85364 15.7686 7.74488 15.9311 7.60348 16.0287C7.52734 16.0828 7.35331 16.0287 7.24454 15.9745C7.15752 15.9311 7.09226 15.8336 7.03787 15.7578C6.89647 15.5627 6.79858 15.2051 6.63543 15.1835C6.15684 15.1076 5.64562 15.1401 5.15615 15.1835C5.04738 15.1943 4.94948 15.4544 4.87334 15.6169C4.67755 16.0287 4.39475 16.1695 4.14458 15.9637C3.78564 15.6819 3.84003 15.2918 4.35125 15.1401C4.80808 15.0101 4.88422 14.75 4.86247 14.3491C4.85159 14.1324 4.85159 13.9048 4.86247 13.6881C4.87335 13.3414 4.78634 13.1355 4.39477 13.0271C3.92706 12.8971 3.79652 12.5612 4.02494 12.2903C4.31862 11.9544 4.71019 12.0302 4.84071 12.5395C4.96036 12.9946 5.22141 13.038 5.59123 13.0271C5.79789 13.0163 6.00456 13.0163 6.21122 13.0271C6.58104 13.038 6.85297 13.0055 6.96174 12.5395C7.05963 12.1169 7.41857 11.9869 7.66874 12.1819C8.02768 12.4637 7.97329 12.8538 7.46207 13.0055C7.00524 13.1355 6.9291 13.3956 6.95085 13.7965C6.96173 14.0674 6.90735 14.3491 6.97261 14.6092C7.01612 14.7825 7.17927 14.9451 7.32067 15.0751C7.52733 15.2485 7.76663 15.3785 8.03855 15.5627Z" fill="#70FF00"/>
<path d="M16.2605 12.5724C15.9885 12.7674 15.8145 12.9841 15.5969 13.0491C15.2489 13.1467 15.1727 13.3525 15.1836 13.6451C15.1836 13.8835 15.1945 14.1219 15.1836 14.3602C15.1618 14.7503 15.238 15.0104 15.6948 15.1404C16.1952 15.2813 16.2605 15.6822 15.9015 15.9639C15.6513 16.1589 15.2924 16.0289 15.1945 15.6063C15.0857 15.1404 14.8138 15.1079 14.4439 15.1187C14.2373 15.1296 14.0306 15.1296 13.8239 15.1187C13.4541 15.1079 13.1822 15.1512 13.0734 15.6063C12.9646 16.0289 12.6165 16.1589 12.3663 15.9639C12.0074 15.6822 12.0618 15.2921 12.573 15.1404C13.0407 15.0104 13.106 14.7395 13.0842 14.3494C13.0734 14.1327 13.0734 13.9051 13.0842 13.6884C13.106 13.3417 13.0081 13.1358 12.6165 13.0275C12.1488 12.8974 12.0291 12.5615 12.2576 12.2907C12.5513 11.9439 12.932 12.0306 13.0734 12.5399C13.193 12.995 13.4541 13.0383 13.8239 13.0275C14.0306 13.0166 14.2373 13.0166 14.4439 13.0275C14.8138 13.0383 15.0966 13.0058 15.2053 12.5399C15.2489 12.3557 15.5317 12.1498 15.7492 12.1064C15.858 12.0848 16.0429 12.3665 16.2605 12.5724Z" fill="#70FF00"/>
<path d="M21.2985 14.0781C21.3638 13.558 21.3638 13.0921 20.6894 12.9512C20.548 12.9187 20.363 12.637 20.3848 12.4961C20.4066 12.3444 20.635 12.1168 20.7981 12.106C20.9395 12.0952 21.1353 12.2902 21.2659 12.4419C21.429 12.6153 21.5269 12.9729 21.6792 12.9945C22.1578 13.0596 22.669 13.0271 23.1585 12.9729C23.2564 12.962 23.3434 12.7236 23.4087 12.5719C23.6045 12.1385 23.8982 11.9868 24.1592 12.2143C24.4964 12.5069 24.4203 12.8862 23.909 13.027C23.4522 13.1462 23.4087 13.4063 23.4196 13.7747C23.4304 13.9806 23.4304 14.1865 23.4196 14.3924C23.4087 14.7608 23.4413 15.0317 23.909 15.1401C24.3332 15.2376 24.4638 15.5952 24.268 15.8444C23.9852 16.202 23.5827 16.137 23.4413 15.6385C23.3108 15.1726 23.0497 15.1076 22.6581 15.1292C22.4406 15.1401 22.2122 15.1401 21.9946 15.1292C21.6466 15.1184 21.429 15.2051 21.3202 15.5952C21.2441 15.8553 21.0809 16.2237 20.6676 16.0178C20.2651 15.8227 20.2543 15.3568 20.7111 15.2268C21.3529 15.0209 21.3638 14.5983 21.2985 14.0781Z" fill="#70FF00"/>
<path d="M32.6967 12.5611C32.4574 12.7561 32.2942 12.9837 32.0767 13.0379C31.7177 13.1354 31.6198 13.3413 31.6307 13.6663C31.6416 13.9264 31.6416 14.1756 31.6307 14.4357C31.6198 14.7932 31.696 15.0208 32.1202 15.14C32.6314 15.2808 32.7185 15.6709 32.3813 15.9526C32.1093 16.1802 31.7612 16.061 31.6416 15.5951C31.5328 15.1616 31.2826 15.1183 30.9345 15.1291C30.6952 15.14 30.4559 15.14 30.2166 15.1291C29.8794 15.1183 29.651 15.1941 29.5422 15.5842C29.4226 16.0176 29.0962 16.1694 28.8461 15.9851C28.4762 15.7143 28.5088 15.2917 29.0092 15.1616C29.5422 15.0208 29.564 14.6957 29.5531 14.284C29.5422 14.1106 29.5422 13.9481 29.5531 13.7747C29.564 13.4171 29.5313 13.1354 29.0745 13.0162C28.585 12.897 28.4871 12.5286 28.7808 12.2469C29.0636 11.9651 29.4226 12.0735 29.5531 12.5611C29.6619 12.9837 29.9121 13.0379 30.271 13.027C30.5103 13.0162 30.7496 13.0162 30.9889 13.027C31.3261 13.0379 31.5546 12.962 31.6633 12.5719C31.7286 12.3661 32.0114 12.1927 32.229 12.106C32.2834 12.0843 32.49 12.3661 32.6967 12.5611Z" fill="#70FF00"/>
<path d="M32.7956 32.0548C32.5454 32.2281 32.3931 32.369 32.2299 32.4232C32.132 32.4557 31.9906 32.369 31.8818 32.3257C31.8274 32.304 31.7622 32.239 31.7404 32.1848C31.4467 31.1012 30.5765 31.6105 29.9239 31.5563C29.8151 31.5455 29.6411 31.7947 29.5649 31.9572C29.3474 32.434 29.0646 32.5857 28.7818 32.3257C28.4772 32.0439 28.5098 31.6863 28.9776 31.5671C29.5541 31.4046 29.5541 31.047 29.5432 30.6028C29.5323 30.3969 29.5323 30.191 29.5432 29.9851C29.5541 29.6926 29.4453 29.53 29.1407 29.4325C28.8579 29.3458 28.4663 29.2158 28.6621 28.7715C28.7165 28.6415 28.9558 28.4464 29.0319 28.4789C29.2169 28.544 29.4779 28.7173 29.5106 28.8799C29.6085 29.4325 29.9674 29.4325 30.3808 29.4217C30.5548 29.4108 30.718 29.4217 30.892 29.4217C31.251 29.4325 31.5338 29.4108 31.6534 28.9449C31.7513 28.5114 32.1103 28.3814 32.3604 28.5765C32.7194 28.8582 32.665 29.2591 32.1647 29.4C31.6643 29.5408 31.6317 29.8334 31.6425 30.2343C31.6534 30.4727 31.6534 30.7111 31.6425 30.9495C31.6425 31.2421 31.7404 31.4046 32.045 31.5021C32.2626 31.5671 32.4475 31.7947 32.7956 32.0548Z" fill="#70FF00"/>
<path d="M24.4864 28.9564C24.2145 29.1515 24.0404 29.3682 23.8229 29.4332C23.4857 29.5307 23.3987 29.7257 23.4095 30.0291C23.4095 30.2675 23.4204 30.5059 23.4095 30.7443C23.3878 31.1344 23.4422 31.4161 23.9208 31.5353C24.3559 31.6436 24.4646 31.9904 24.2471 32.2504C23.9643 32.5755 23.5836 32.5322 23.453 32.0554C23.3116 31.5245 22.9853 31.5028 22.572 31.5136C22.3653 31.5245 22.1586 31.5245 21.952 31.5136C21.6256 31.5028 21.419 31.5786 21.3211 31.947C21.1905 32.413 20.8642 32.5647 20.5923 32.3588C20.2224 32.0662 20.3095 31.6653 20.8425 31.5136C21.2667 31.3944 21.3211 31.1452 21.3102 30.7985C21.2993 30.5601 21.2993 30.3217 21.3102 30.0833C21.3211 29.7366 21.234 29.5199 20.8533 29.4223C20.3856 29.2923 20.2551 28.9564 20.4835 28.6855C20.7772 28.3496 21.1688 28.4255 21.2993 28.9239C21.419 29.379 21.68 29.4332 22.0498 29.4115C22.2239 29.4007 22.3871 29.4007 22.5611 29.4115C22.9636 29.4223 23.3443 29.4332 23.4422 28.8806C23.4748 28.7072 23.7685 28.5013 23.9534 28.4796C24.1057 28.4905 24.2688 28.7505 24.4864 28.9564Z" fill="#70FF00"/>
<path d="M15.6198 32.5207C15.4675 32.3256 15.2391 32.1631 15.1847 31.9464C15.0868 31.5779 14.8801 31.5021 14.5538 31.5129C14.3145 31.5238 14.0752 31.5238 13.8358 31.5129C13.466 31.5021 13.1941 31.5454 13.0853 32.0005C12.9765 32.4231 12.6284 32.5532 12.3782 32.3581C12.0193 32.0764 12.0737 31.6863 12.5849 31.5346C13.0418 31.4046 13.1179 31.1445 13.0962 30.7436C13.0853 30.5269 13.0853 30.2993 13.0962 30.0826C13.107 29.7359 13.02 29.53 12.6284 29.4216C12.1607 29.2916 12.0302 28.9557 12.2586 28.6848C12.5523 28.3489 12.9439 28.4247 13.0744 28.934C13.1941 29.3891 13.4551 29.4325 13.825 29.4216C14.0317 29.4108 14.2383 29.4108 14.445 29.4216C14.8148 29.4325 15.0868 29.3999 15.1956 28.934C15.2935 28.5114 15.6524 28.3814 15.9026 28.5764C16.2616 28.8582 16.1963 29.2482 15.6959 29.3999C15.2391 29.53 15.1629 29.79 15.1847 30.191C15.1956 30.4077 15.1956 30.6352 15.1847 30.8519C15.1738 31.1987 15.2608 31.4154 15.6524 31.5129C15.8482 31.5671 16.0223 31.7946 16.131 31.9897C16.1637 32.0547 15.9679 32.2498 15.87 32.3798C15.8265 32.434 15.7503 32.4556 15.6198 32.5207Z" fill="#70FF00"/>
<path d="M8.04919 28.9454C7.78813 29.1513 7.61408 29.368 7.39653 29.433C7.05932 29.5305 6.96142 29.7147 6.9723 30.029C6.98318 30.2998 6.98318 30.5707 6.9723 30.8416C6.96142 31.1775 7.02668 31.4159 7.42916 31.5134C7.86427 31.6218 8.03831 31.9685 7.84252 32.1961C7.74462 32.3153 7.52706 32.4886 7.45092 32.4453C7.266 32.3586 7.02669 32.1852 6.99406 32.0119C6.89616 31.5243 6.58069 31.4918 6.19998 31.5134C5.9933 31.5243 5.78663 31.5243 5.57996 31.5134C5.22099 31.5026 4.98167 31.5676 4.8729 31.9902C4.73149 32.4995 4.35077 32.5861 4.05707 32.2611C3.81776 31.9902 3.93742 31.6435 4.40516 31.5243C4.82939 31.4159 4.89466 31.1775 4.88378 30.82C4.87291 30.5816 4.87291 30.3432 4.88378 30.1048C4.89466 29.7689 4.8294 29.5413 4.42692 29.433C3.95918 29.3138 3.81777 28.9671 4.0462 28.707C4.3399 28.3603 4.73149 28.4253 4.86202 28.9346C4.99256 29.4113 5.27537 29.4547 5.65609 29.433C5.86277 29.4222 6.06945 29.4222 6.27613 29.433C6.63509 29.4438 6.88528 29.3897 6.99406 28.9562C7.03757 28.7612 7.32038 28.5553 7.52705 28.5011C7.62495 28.4686 7.82076 28.7395 8.04919 28.9454Z" fill="#70FF00"/>
<path d="M32.6967 20.7537C32.4574 20.9488 32.2942 21.1763 32.0767 21.2305C31.7177 21.328 31.6198 21.5339 31.6307 21.859C31.6416 22.119 31.6416 22.3682 31.6307 22.6283C31.6198 22.9858 31.696 23.2134 32.1202 23.3326C32.6314 23.4735 32.7185 23.8635 32.3813 24.1453C32.1093 24.3728 31.7612 24.2536 31.6416 23.7877C31.5328 23.3543 31.2826 23.3109 30.9345 23.3218C30.6952 23.3326 30.4559 23.3326 30.2166 23.3218C29.8794 23.3109 29.651 23.3868 29.5422 23.7769C29.4334 24.2103 29.0962 24.362 28.8461 24.1778C28.4762 23.9069 28.5088 23.4843 29.0092 23.3543C29.5422 23.2134 29.564 22.8883 29.5531 22.4766C29.5422 22.3032 29.5422 22.1407 29.5531 21.9673C29.564 21.6097 29.5313 21.328 29.0745 21.2088C28.585 21.0896 28.4871 20.7212 28.7808 20.4395C29.0636 20.1578 29.4226 20.2661 29.5531 20.7537C29.6619 21.1763 29.9121 21.2305 30.271 21.2197C30.5103 21.2088 30.7496 21.2088 30.9889 21.2197C31.3261 21.2305 31.5546 21.1546 31.6633 20.7645C31.7286 20.5587 32.0114 20.3853 32.229 20.2986C32.2834 20.277 32.4791 20.5587 32.6967 20.7537Z" fill="#70FF00"/>
<path d="M24.4743 20.7534C24.235 20.9484 24.0719 21.176 23.8543 21.2301C23.4954 21.3277 23.3975 21.5335 23.4084 21.8586C23.4192 22.097 23.4192 22.3354 23.4084 22.5738C23.3975 22.9313 23.4301 23.2022 23.8978 23.3214C24.4091 23.4514 24.4961 23.8415 24.1589 24.1341C23.887 24.3616 23.5389 24.2316 23.4192 23.7765C23.3104 23.3431 23.0603 23.2998 22.7122 23.3106C22.4729 23.3214 22.2336 23.3214 21.9943 23.3106C21.6571 23.2998 21.4286 23.3756 21.3199 23.7657C21.2002 24.1991 20.8739 24.3508 20.6237 24.1666C20.2539 23.8957 20.2865 23.4731 20.7869 23.3431C21.3199 23.2022 21.3416 22.8772 21.3307 22.4654C21.3199 22.292 21.3199 22.1295 21.3307 21.9561C21.3416 21.5985 21.309 21.3277 20.8521 21.1976C20.3409 21.0676 20.2539 20.6775 20.5911 20.3849C20.863 20.1574 21.2111 20.2766 21.3307 20.7425C21.4395 21.176 21.6897 21.2193 22.0487 21.2085C22.288 21.1976 22.5273 21.1976 22.7666 21.2085C23.1038 21.2193 23.3322 21.1434 23.441 20.7534C23.5062 20.5475 23.7891 20.3741 24.0066 20.2874C24.061 20.2766 24.2677 20.5583 24.4743 20.7534Z" fill="#70FF00"/>
<path d="M16.2605 20.7636C15.9885 20.9587 15.8145 21.1754 15.5969 21.2404C15.2489 21.3379 15.1727 21.5438 15.1836 21.8364C15.1836 22.0748 15.1945 22.3132 15.1836 22.5516C15.1618 22.9417 15.238 23.2017 15.6948 23.3318C16.1952 23.4726 16.2605 23.8735 15.9015 24.1553C15.6513 24.3503 15.2924 24.2203 15.1945 23.7977C15.0857 23.3317 14.8138 23.2992 14.4439 23.3101C14.2373 23.3209 14.0306 23.3209 13.8239 23.3101C13.4541 23.2992 13.1822 23.3426 13.0734 23.7977C12.9646 24.2203 12.6165 24.3503 12.3663 24.1553C12.0074 23.8735 12.0618 23.4835 12.573 23.3318C13.0407 23.2017 13.106 22.9416 13.0842 22.5407C13.0734 22.324 13.0734 22.0965 13.0842 21.8797C13.0951 21.533 13.0081 21.3271 12.6165 21.2187C12.1488 21.0887 12.0291 20.7528 12.2576 20.4819C12.5513 20.146 12.932 20.2218 13.0734 20.7311C13.193 21.1862 13.4541 21.2296 13.8239 21.2187C14.0306 21.2079 14.2373 21.2079 14.4439 21.2187C14.8138 21.2296 15.0966 21.1971 15.2053 20.7311C15.2489 20.5469 15.5317 20.341 15.7492 20.2977C15.858 20.276 16.0429 20.5577 16.2605 20.7636Z" fill="#70FF00"/>
<path d="M4.86232 22.4014C4.86232 22.163 4.85144 22.0329 4.86232 21.8921C4.88407 21.5453 4.79706 21.3286 4.40548 21.2311C3.97038 21.1227 3.81811 20.7868 4.00302 20.5376C4.27495 20.1692 4.69916 20.2017 4.82969 20.7001C4.97109 21.2311 5.29741 21.2527 5.71075 21.2311C5.91742 21.2202 6.12409 21.2202 6.33076 21.2311C6.6462 21.2419 6.86374 21.1661 6.97252 20.7976C7.04866 20.5267 7.20093 20.1258 7.6469 20.3642C7.77743 20.4292 7.95147 20.6676 7.91883 20.7435C7.84269 20.9277 7.66866 21.1661 7.49462 21.1986C6.98339 21.3069 6.96164 21.6428 6.97252 22.0329C6.98339 22.2388 6.98339 22.4447 6.97252 22.6506C6.96164 22.9973 7.03778 23.214 7.42936 23.3116C7.86445 23.4199 8.01673 23.7558 7.83181 24.0051C7.55988 24.3735 7.13567 24.3301 7.00515 23.8425C6.86374 23.3116 6.53743 23.2899 6.12409 23.3007C5.91742 23.3116 5.71074 23.3116 5.50408 23.3007C5.17776 23.2899 4.97109 23.3657 4.86232 23.7342C4.78618 24.0051 4.62302 24.341 4.22056 24.2001C4.07916 24.1459 3.89425 23.94 3.916 23.8317C3.94863 23.6583 4.11179 23.3983 4.25319 23.3766C4.93846 23.2682 4.89495 22.7914 4.86232 22.4014Z" fill="#70FF00"/>
<path d="M1.81598 25.3258C2.58827 25.3258 2.84932 25.5859 2.84932 26.3661C2.84932 27.1571 2.58827 27.4172 1.76159 27.4063C1.00017 27.4063 0.75 27.1354 0.75 26.3336C0.760877 25.5751 1.02193 25.3258 1.81598 25.3258Z" fill="#70FF00"/>
<path d="M8.97388 26.3666C8.97388 25.5865 9.23494 25.3264 10.0072 25.3264C10.8231 25.3264 11.0732 25.5756 11.0624 26.3991C11.0624 27.1685 10.8013 27.4177 9.99637 27.4177C9.23494 27.4177 8.97388 27.1468 8.97388 26.3666Z" fill="#70FF00"/>
<path d="M18.231 27.4181C17.4587 27.4181 17.1977 27.1581 17.1977 26.367C17.1977 25.576 17.4696 25.3159 18.2854 25.3267C19.0468 25.3267 19.2969 25.5976 19.2861 26.3995C19.2861 27.1689 19.025 27.4181 18.231 27.4181Z" fill="#70FF00"/>
<path d="M26.4855 27.4177C25.6914 27.4177 25.4194 27.1685 25.4194 26.3991C25.4194 25.5865 25.6696 25.3264 26.4746 25.3264C27.2578 25.3264 27.508 25.5865 27.5189 26.3666C27.5189 27.1468 27.2578 27.4068 26.4855 27.4177Z" fill="#70FF00"/>
<path d="M34.7088 25.3264C35.4811 25.3264 35.7313 25.5865 35.7313 26.3775C35.7313 27.1685 35.4703 27.4177 34.6327 27.4069C33.8821 27.3961 33.6319 27.1252 33.6319 26.3341C33.6428 25.5756 33.9147 25.3264 34.7088 25.3264Z" fill="#70FF00"/>
<path d="M1.75147 2.84166C1.00089 2.83083 0.75069 2.55993 0.761568 1.75807C0.761568 0.988719 1.04441 0.7395 1.89289 0.750336C2.62172 0.761172 2.87191 1.04289 2.86103 1.85559C2.83927 2.60327 2.56732 2.8525 1.75147 2.84166Z" fill="#70FF00"/>
<path d="M2.84951 10.0262C2.84951 10.7847 2.57758 11.0339 1.78352 11.0339C0.989463 11.0339 0.750155 10.7738 0.761033 9.92867C0.77191 9.19186 1.04386 8.94266 1.85967 8.94266C2.59934 8.95349 2.84951 9.22438 2.84951 10.0262Z" fill="#70FF00"/>
<path d="M35.7441 18.1848C35.7441 18.9649 35.483 19.225 34.7107 19.225C33.9057 19.225 33.6447 18.9649 33.6555 18.1523C33.6555 17.3829 33.9275 17.1337 34.7216 17.1337C35.483 17.1337 35.7441 17.3938 35.7441 18.1848Z" fill="#70FF00"/>
<path d="M10.0279 11.0332C9.24471 11.0332 8.98364 10.7732 8.98364 10.0038C8.98364 9.20187 9.24471 8.94179 10.0605 8.95262C10.8328 8.95262 11.083 9.2127 11.083 10.0146C11.0721 10.7732 10.8111 11.0332 10.0279 11.0332Z" fill="#70FF00"/>
<path d="M26.42 19.2253C25.6695 19.2145 25.4193 18.9436 25.4302 18.1417C25.4302 17.3724 25.713 17.1232 26.5614 17.134C27.2902 17.1449 27.5404 17.4266 27.5295 18.2393C27.5078 18.9869 27.2358 19.2253 26.42 19.2253Z" fill="#70FF00"/>
<path d="M18.2637 17.1337C19.036 17.1337 19.297 17.3938 19.297 18.1739C19.297 18.965 19.036 19.225 18.2093 19.2142C17.4479 19.2142 17.1977 18.9433 17.1977 18.1414C17.1977 17.3829 17.4696 17.1337 18.2637 17.1337Z" fill="#70FF00"/>
<path d="M19.2963 9.99366C19.2963 10.7738 19.0353 11.0339 18.263 11.0339C17.458 11.0339 17.197 10.7738 17.2078 9.96116C17.2078 9.20268 17.4798 8.94263 18.2738 8.94263C19.0353 8.94263 19.2963 9.20268 19.2963 9.99366Z" fill="#70FF00"/>
<path d="M10.029 17.1337C10.8122 17.1337 11.0733 17.3938 11.0733 18.1631C11.0733 18.9758 10.8231 19.225 9.9964 19.2142C9.22407 19.2142 8.97388 18.9541 8.97388 18.1523C8.97388 17.3938 9.24583 17.1337 10.029 17.1337Z" fill="#70FF00"/>
<path d="M1.80511 17.1337C2.58828 17.1337 2.84932 17.3938 2.84932 18.1631C2.84932 18.9649 2.58828 19.2141 1.77248 19.2141C1.00018 19.2141 0.75 18.9433 0.75 18.1523C0.760877 17.3938 1.02194 17.1337 1.80511 17.1337Z" fill="#70FF00"/>
<path d="M26.4652 8.94263C27.2484 8.94263 27.5094 9.20268 27.5094 9.97201C27.5094 10.7847 27.2593 11.0339 26.4326 11.0231C25.6603 11.0231 25.4102 10.763 25.4102 9.96118C25.421 9.20268 25.693 8.94263 26.4652 8.94263Z" fill="#70FF00"/>
<path d="M35.7431 10.0041C35.7431 10.7734 35.4821 11.0226 34.688 11.0226C33.894 11.0226 33.6438 10.7625 33.6438 9.92824C33.6547 9.1806 33.9266 8.9314 34.7206 8.9314C35.4929 8.95307 35.7431 9.21312 35.7431 10.0041Z" fill="#70FF00"/>
<path d="M2.84932 34.5691C2.84932 35.3493 2.58828 35.5985 1.80511 35.5985C1.00018 35.5985 0.75 35.3385 0.75 34.5258C0.75 33.7673 1.02193 33.518 1.81598 33.518C2.59915 33.518 2.84932 33.7781 2.84932 34.5691Z" fill="#70FF00"/>
<path d="M10.0279 35.6094C9.24471 35.6094 8.98364 35.3493 8.98364 34.58C8.98364 33.7889 9.23383 33.5289 10.0061 33.518C10.8219 33.518 11.083 33.7673 11.083 34.5691C11.0721 35.3493 10.8111 35.5985 10.0279 35.6094Z" fill="#70FF00"/>
<path d="M19.2963 34.5691C19.2963 35.3493 19.0353 35.6094 18.263 35.6094C17.458 35.6094 17.197 35.3493 17.2078 34.5366C17.2078 33.7781 17.4798 33.518 18.2738 33.518C19.0353 33.518 19.2963 33.7781 19.2963 34.5691Z" fill="#70FF00"/>
<path d="M10.029 0.750458C10.8122 0.750458 11.0624 1.01051 11.0624 1.79068C11.0624 2.59252 10.8014 2.84175 9.98552 2.84175C9.22408 2.84175 8.97388 2.57086 8.97388 1.77985C8.98475 1.01051 9.24582 0.750458 10.029 0.750458Z" fill="#70FF00"/>
<path d="M27.5189 34.5801C27.5189 35.3494 27.2578 35.6095 26.4637 35.6095C25.6696 35.6095 25.4194 35.3494 25.4194 34.5259C25.4194 33.7783 25.7023 33.5182 26.4964 33.529C27.2687 33.5182 27.5189 33.7891 27.5189 34.5801Z" fill="#70FF00"/>
<path d="M19.296 1.79068C19.296 2.58169 19.0458 2.84175 18.2735 2.84175C17.4577 2.84175 17.2075 2.59253 17.2075 1.77985C17.2075 1.01051 17.4686 0.750458 18.2626 0.750458C19.035 0.750458 19.296 1.01051 19.296 1.79068Z" fill="#70FF00"/>
<path d="M35.7441 34.5909C35.7441 35.3495 35.4721 35.5987 34.6781 35.5987C33.884 35.5987 33.6447 35.3386 33.6556 34.4934C33.6664 33.7565 33.9384 33.5072 34.7542 33.5072C35.4939 33.5181 35.7441 33.7998 35.7441 34.5909Z" fill="#70FF00"/>
<path d="M27.5187 1.82318C27.5187 2.59252 27.2576 2.84175 26.4636 2.84175C25.6695 2.84175 25.4193 2.58169 25.4302 1.74734C25.4411 0.999678 25.713 0.750458 26.518 0.750458C27.2685 0.761293 27.5187 1.02134 27.5187 1.82318Z" fill="#70FF00"/>
<path d="M33.6438 1.75817C33.6438 0.999672 33.9157 0.750458 34.7098 0.750458C35.5038 0.750458 35.7432 1.02134 35.7323 1.85569C35.7214 2.60336 35.4494 2.84175 34.6336 2.84175C33.894 2.83091 33.6438 2.56002 33.6438 1.75817Z" fill="#70FF00"/>
<path d="M2.8494 14.121C2.89291 14.5003 2.80589 14.912 2.32727 15.0529C2.05533 15.1396 1.79427 14.6086 1.77252 14.056C1.76164 13.6226 1.85953 13.2542 2.29464 13.1133C2.56658 13.0266 2.8494 13.5467 2.8494 14.121Z" fill="#70FF00"/>
<path d="M11.0723 14.0455C11.0723 14.6198 10.7895 15.14 10.5284 15.0533C10.0825 14.9232 9.99542 14.544 10.0063 14.1214C10.0172 13.5687 10.2891 13.0377 10.5611 13.1244C11.0179 13.2545 11.1158 13.6554 11.0723 14.0455Z" fill="#70FF00"/>
<path d="M19.2968 14.0887C19.2968 14.6089 19.0466 15.0748 18.7638 15.0748C18.481 15.0748 18.2308 14.6089 18.2308 14.0887C18.2308 13.5795 18.481 13.1027 18.7638 13.1027C19.0466 13.1027 19.2968 13.5686 19.2968 14.0887Z" fill="#70FF00"/>
<path d="M26.4536 14.0349C26.4101 13.6448 26.5189 13.2547 26.9866 13.1139C27.2477 13.038 27.5088 13.5581 27.5306 14.0782C27.5414 14.5225 27.4762 14.9234 26.9975 15.0534C26.7256 15.1292 26.4536 14.6091 26.4536 14.0349Z" fill="#70FF00"/>
<path d="M35.7435 14.0348C35.7435 14.6091 35.4715 15.1292 35.1996 15.0533C34.721 14.9125 34.6557 14.5115 34.6666 14.0781C34.6883 13.5688 34.9494 13.0379 35.2105 13.1137C35.6782 13.2546 35.7761 13.6447 35.7435 14.0348Z" fill="#70FF00"/>
<path d="M1.78358 5.79994C1.74007 5.40986 1.89235 4.94394 2.31654 4.94394C2.7516 4.94394 2.86035 5.40987 2.84948 5.84329C2.8386 6.40674 2.6102 6.88349 2.31654 6.88349C2.02287 6.87266 1.7727 6.39589 1.78358 5.79994Z" fill="#70FF00"/>
<path d="M11.073 5.89665C11.073 6.41678 10.8228 6.88272 10.54 6.88272C10.2572 6.88272 10.007 6.41678 10.007 5.89665C10.007 5.37651 10.2572 4.91055 10.54 4.91055C10.8228 4.91055 11.073 5.37651 11.073 5.89665Z" fill="#70FF00"/>
<path d="M18.2307 5.87581C18.2307 5.78913 18.2307 5.75662 18.2307 5.72411C18.2198 5.32319 18.3939 4.94394 18.7855 4.94394C19.1336 4.94394 19.3185 5.32318 19.2967 5.71327C19.2967 5.74577 19.2967 5.77829 19.2967 5.8108C19.3076 6.4176 19.0357 6.94855 18.7528 6.86186C18.2524 6.71016 18.1872 6.27673 18.2307 5.87581Z" fill="#70FF00"/>
<path d="M27.5192 5.89665C27.5192 6.41678 27.269 6.88272 26.9861 6.88272C26.7033 6.88272 26.4531 6.41678 26.4531 5.89665C26.4531 5.37651 26.7033 4.91055 26.9861 4.91055C27.269 4.91055 27.5192 5.37651 27.5192 5.89665Z" fill="#70FF00"/>
<path d="M35.7439 30.4292C35.7439 31.0035 35.461 31.5237 35.2 31.437C34.754 31.2961 34.667 30.9277 34.6779 30.5051C34.6887 29.9524 34.9607 29.4214 35.2326 29.5081C35.6895 29.6382 35.7765 30.0391 35.7439 30.4292Z" fill="#70FF00"/>
<path d="M26.4531 30.5049C26.4531 29.9306 26.7359 29.4213 27.0079 29.4972C27.4539 29.638 27.5409 30.0064 27.53 30.4399C27.5191 31.0033 27.2581 31.5234 26.9752 31.4367C26.4966 31.285 26.4096 30.8841 26.4531 30.5049Z" fill="#70FF00"/>
<path d="M35.743 5.89665C35.743 6.41678 35.4928 6.88272 35.21 6.88272C34.9272 6.88272 34.677 6.41678 34.677 5.89665C34.677 5.38735 34.9381 4.91055 35.21 4.91055C35.4928 4.91055 35.743 5.37651 35.743 5.89665Z" fill="#70FF00"/>
<path d="M19.2977 30.4287C19.2977 31.003 19.0148 31.5231 18.7538 31.4364C18.3078 31.3064 18.2208 30.9271 18.2316 30.5046C18.2425 29.952 18.5145 29.4211 18.7864 29.4969C19.2433 29.6378 19.3412 30.0387 19.2977 30.4287Z" fill="#70FF00"/>
<path d="M10.007 30.4522C10.007 29.9429 10.2898 29.412 10.5509 29.4878C11.0186 29.6287 11.0948 30.0296 11.0839 30.4739C11.0621 30.9939 10.8228 31.4599 10.54 31.449C10.2463 31.4382 10.007 30.9831 10.007 30.4522Z" fill="#70FF00"/>
<path d="M2.85055 30.4732C2.85055 30.9934 2.6004 31.4593 2.31761 31.4485C2.03483 31.4485 1.78467 30.9826 1.78467 30.4624C1.78467 29.9531 2.0457 29.4763 2.32849 29.4872C2.60039 29.4872 2.85055 29.9531 2.85055 30.4732Z" fill="#70FF00"/>
<path d="M35.7439 22.2914C35.7439 22.8116 35.4611 23.3209 35.2 23.245C34.754 23.115 34.667 22.7357 34.6779 22.3131C34.6887 21.7605 34.9389 21.2837 35.2327 21.2945C35.5046 21.3053 35.7439 21.7604 35.7439 22.2914Z" fill="#70FF00"/>
<path d="M27.5193 22.3137C27.5628 22.7038 27.4649 23.1047 26.9972 23.2456C26.7253 23.3323 26.4643 22.8013 26.4425 22.2379C26.4316 21.8044 26.5295 21.436 26.9646 21.306C27.2365 21.2193 27.5193 21.7394 27.5193 22.3137Z" fill="#70FF00"/>
<path d="M19.2977 22.2377C19.2977 22.812 19.0148 23.3321 18.7538 23.2454C18.3078 23.1154 18.2208 22.7361 18.2316 22.3135C18.2425 21.7609 18.5145 21.23 18.7864 21.3058C19.2433 21.4467 19.3412 21.8476 19.2977 22.2377Z" fill="#70FF00"/>
<path d="M10.0068 22.2584C10.0068 22.1718 10.0068 22.1393 10.0068 22.1067C9.99592 21.7058 10.17 21.3266 10.5615 21.3266C10.9096 21.3266 11.0945 21.7058 11.0727 22.0959C11.0727 22.1284 11.0727 22.1609 11.0727 22.1934C11.0836 22.8002 10.8117 23.3312 10.5289 23.2445C10.0286 23.0928 9.96329 22.6594 10.0068 22.2584Z" fill="#70FF00"/>
<path d="M2.8495 22.2377C2.8495 22.812 2.57753 23.3321 2.30556 23.2454C1.85954 23.1154 1.76164 22.747 1.77252 22.3135C1.7834 21.7609 2.04448 21.23 2.31645 21.3058C2.79512 21.4467 2.89301 21.8476 2.8495 22.2377Z" fill="#70FF00"/>
<path d="M7.02684 10.4268C6.80929 10.6543 6.71138 10.8277 6.5591 10.9035C6.47208 10.9469 6.2763 10.8819 6.1784 10.806C6.06963 10.7193 6.01524 10.5568 5.91734 10.4484C5.77594 10.2859 5.63453 10.1234 5.4605 9.99334C5.22119 9.80914 4.78609 9.74412 5.02539 9.29987C5.24294 8.89895 5.67804 8.93145 5.85208 9.39738C5.98261 9.74412 6.14577 9.96083 6.5156 10.0584C6.68964 10.1017 6.83104 10.2859 7.02684 10.4268Z" fill="#70FF00"/>
<path d="M15.2508 10.4155C15.0332 10.6539 14.9353 10.8164 14.783 10.9031C14.7069 10.9464 14.5437 10.8814 14.4241 10.8489C14.3806 10.8381 14.3371 10.7839 14.3153 10.7405C14.1304 10.2963 13.8367 10.0037 13.3799 9.78697C13.0318 9.62443 13.097 9.34269 13.3907 9.1043C13.7714 8.80089 13.9564 9.15848 14.0543 9.3752C14.1957 9.71111 14.3371 9.94951 14.7178 10.0362C14.9027 10.0904 15.055 10.2746 15.2508 10.4155Z" fill="#70FF00"/>
<path d="M22.8535 11.0445C22.6795 10.8495 22.4619 10.7195 22.4075 10.5352C22.3097 10.1993 22.1465 10.0476 21.8093 9.93925C21.3307 9.7767 21.2437 9.41911 21.5918 9.15904C21.7005 9.07235 22.0377 9.08319 22.0812 9.15904C22.3423 9.63583 22.6795 9.99342 23.1798 10.2427C23.2668 10.286 23.3321 10.5244 23.2777 10.6219C23.2124 10.7736 23.0384 10.882 22.8535 11.0445Z" fill="#70FF00"/>
<path d="M31.6202 10.5029C31.4897 10.6546 31.3809 10.8171 31.2395 10.9038C31.1633 10.958 30.9893 10.9146 30.8914 10.8605C30.7826 10.7954 30.6521 10.6762 30.6304 10.5571C30.5651 10.1886 30.3367 10.0478 29.9995 9.92857C29.7928 9.85272 29.4556 9.67935 29.6623 9.32177C29.8689 8.94252 30.217 8.89919 30.4019 9.27844C30.6086 9.71187 30.8805 10.0044 31.3265 10.1778C31.4353 10.2103 31.5005 10.362 31.6202 10.5029Z" fill="#70FF00"/>
<path d="M31.0964 2.81944C30.9768 2.73275 30.8571 2.68941 30.8245 2.60272C30.5852 2.13677 30.2589 1.79001 29.7803 1.55162C29.541 1.43242 29.5519 1.2157 29.7477 1.00981C29.9761 0.771415 30.2263 0.717235 30.3568 1.00981C30.5743 1.49743 30.9333 1.77918 31.3792 2.02841C31.4771 2.08259 31.5424 2.33182 31.488 2.44018C31.4227 2.60273 31.2378 2.70024 31.0964 2.81944Z" fill="#70FF00"/>
<path d="M22.8758 2.81944C22.7561 2.73275 22.6365 2.68941 22.6039 2.60272C22.3646 2.13677 22.0382 1.79001 21.5596 1.55162C21.3203 1.43242 21.3312 1.2157 21.527 1.00981C21.7554 0.771415 22.0056 0.717235 22.1361 1.00981C22.3537 1.49743 22.7126 1.77918 23.1586 2.02841C23.2565 2.08259 23.3218 2.33182 23.2674 2.44018C23.2021 2.60273 23.0172 2.70024 22.8758 2.81944Z" fill="#70FF00"/>
<path d="M31.622 35.0788C31.4915 35.2305 31.3827 35.393 31.2413 35.4797C31.1651 35.5339 30.9802 35.4906 30.8932 35.4256C30.7736 35.3389 30.6322 35.2088 30.6213 35.0788C30.5669 34.732 30.3602 34.6345 30.0557 34.5153C29.8272 34.4286 29.4791 34.2661 29.6749 33.8868C29.8816 33.5075 30.2297 33.4642 30.4146 33.8435C30.6213 34.2769 30.9041 34.5587 31.3392 34.7429C31.4371 34.7862 31.5024 34.9379 31.622 35.0788Z" fill="#70FF00"/>
<path d="M15.2723 2.44998C15.0983 2.5475 14.946 2.67754 14.772 2.72088C14.6523 2.75339 14.4892 2.67753 14.3804 2.60168C14.2716 2.52583 14.1737 2.3958 14.152 2.2766C14.1085 1.95153 13.8909 1.86485 13.6299 1.74566C13.4341 1.65897 13.1839 1.34473 13.2057 1.17135C13.2601 0.770426 13.7604 0.683728 13.9453 1.04131C14.1629 1.48558 14.4674 1.76732 14.9025 1.9732C15.0113 2.03822 15.0657 2.18992 15.2723 2.44998Z" fill="#70FF00"/>
<path d="M22.9399 35.75C22.6571 35.4032 22.4396 35.2515 22.3852 35.0457C22.2982 34.7422 22.135 34.6231 21.8522 34.5255C21.6129 34.4388 21.2649 34.2871 21.4389 33.9079C21.6129 33.5069 22.0045 33.4527 22.2112 33.8537C22.4178 34.2655 22.668 34.5472 23.0922 34.7206C23.2119 34.7747 23.3315 35.024 23.3098 35.1649C23.2663 35.3491 23.1031 35.5116 22.9399 35.75Z" fill="#70FF00"/>
<path d="M7.03617 2.22401C6.81863 2.4624 6.70986 2.62495 6.56846 2.71164C6.49231 2.75499 6.32915 2.68997 6.2095 2.65746C6.16599 2.64662 6.12247 2.59244 6.10072 2.54909C5.91581 2.10482 5.61124 1.81226 5.16527 1.59554C4.81719 1.433 4.88245 1.14042 5.17614 0.912864C5.55685 0.620292 5.75264 0.967044 5.82879 1.18376C5.95931 1.53051 6.1116 1.75807 6.49231 1.84476C6.67722 1.89894 6.8295 2.08314 7.03617 2.22401Z" fill="#70FF00"/>
<path d="M14.6404 35.5658C14.5425 35.5008 14.412 35.4466 14.3685 35.36C14.1509 34.894 13.8354 34.5581 13.3568 34.3414C13.0958 34.2222 13.0958 33.9838 13.3242 33.7671C13.5417 33.5504 13.7702 33.5071 13.9007 33.778C14.1291 34.2656 14.499 34.569 14.9559 34.829C15.0429 34.8832 15.0973 35.0999 15.0646 35.2083C15.0211 35.3816 14.8797 35.5333 14.7927 35.6959C14.7383 35.6417 14.6839 35.5983 14.6404 35.5658Z" fill="#70FF00"/>
<path d="M7.07082 34.9695C6.80975 35.2404 6.71185 35.4138 6.55956 35.4897C6.47254 35.533 6.27675 35.4571 6.17885 35.3813C6.07007 35.2946 6.01568 35.1321 5.91778 35.0129C5.77637 34.8503 5.62408 34.6986 5.46091 34.5686C5.23248 34.3844 4.78648 34.3194 5.02579 33.8751C5.24335 33.4742 5.67847 33.5067 5.85251 33.9835C5.98305 34.3411 6.15709 34.5469 6.52693 34.6336C6.70098 34.677 6.86414 34.8287 7.07082 34.9695Z" fill="#70FF00"/>
<path d="M5.39571 17.145C5.52624 17.2534 5.66764 17.3075 5.70027 17.3942C5.88519 17.8927 6.27676 18.1636 6.71185 18.4019C6.98378 18.5536 6.91852 18.7812 6.71185 18.987C6.51606 19.1821 6.28764 19.2363 6.16799 18.987C5.92869 18.4886 5.54798 18.1636 5.08026 17.9035C5.00412 17.8602 4.94974 17.6218 5.00413 17.5243C5.08027 17.3834 5.25431 17.275 5.39571 17.145Z" fill="#70FF00"/>
<path d="M13.5529 17.0257C13.8139 17.3182 14.0423 17.4591 14.0967 17.6542C14.1946 17.9684 14.336 18.1201 14.6514 18.2177C14.8363 18.2718 15.0212 18.5211 15.0974 18.7161C15.13 18.8028 14.9125 19.0304 14.7602 19.1062C14.6732 19.1496 14.4339 19.0737 14.3795 18.987C14.1293 18.5211 13.803 18.1635 13.3244 17.9359C13.2374 17.8926 13.1613 17.665 13.1939 17.5567C13.2483 17.3941 13.3897 17.2532 13.5529 17.0257Z" fill="#70FF00"/>
<path d="M22.8535 19.2372C22.6795 19.0421 22.4619 18.9121 22.4075 18.7279C22.3097 18.392 22.1465 18.2403 21.8093 18.1319C21.3307 17.9694 21.2437 17.6118 21.5918 17.3517C21.7005 17.265 22.0377 17.2758 22.0812 17.3517C22.3423 17.8285 22.6795 18.1861 23.1798 18.4353C23.2668 18.4787 23.3321 18.7171 23.2777 18.8146C23.2124 18.9663 23.0384 19.0747 22.8535 19.2372Z" fill="#70FF00"/>
<path d="M31.7202 18.7918C31.5135 18.9218 31.3721 19.0627 31.1981 19.106C31.0893 19.1385 30.9153 19.0519 30.8174 18.976C30.7195 18.9002 30.6107 18.7701 30.5889 18.6509C30.5345 18.3584 30.3714 18.2392 30.0994 18.1634C29.6752 18.0333 29.5121 17.7083 29.6861 17.4699C29.9472 17.1015 30.3061 17.1123 30.491 17.5674C30.6324 17.9358 30.8065 18.1525 31.1981 18.2609C31.3612 18.315 31.47 18.5318 31.7202 18.7918Z" fill="#70FF00"/>
<path d="M31.0875 27.4604C30.8917 27.222 30.6742 27.0594 30.5981 26.8427C30.511 26.561 30.3696 26.4418 30.0977 26.3551C29.6409 26.2142 29.4995 25.8892 29.7279 25.6183C30.0216 25.2715 30.3805 25.3474 30.5437 25.8458C30.6524 26.16 30.8047 26.2901 31.0984 26.4093C31.2833 26.4851 31.4682 26.7452 31.5117 26.9511C31.5444 27.0703 31.2833 27.2436 31.0875 27.4604Z" fill="#70FF00"/>
<path d="M21.8632 25.3044C22.0372 25.4994 22.2548 25.6294 22.3092 25.8136C22.4071 26.1387 22.5593 26.3229 22.9074 26.4096C23.0706 26.453 23.2664 26.648 23.3208 26.8214C23.3534 26.9297 23.1903 27.1573 23.0597 27.244C22.9727 27.309 22.6899 27.2656 22.6464 27.179C22.3853 26.7022 22.0481 26.3338 21.5586 26.0954C21.4716 26.052 21.4063 25.8136 21.4498 25.7161C21.5042 25.5861 21.6783 25.4777 21.8632 25.3044Z" fill="#70FF00"/>
<path d="M13.6072 25.3366C13.7268 25.4233 13.8465 25.4666 13.8791 25.5425C14.1184 26.0084 14.4448 26.3551 14.9234 26.5935C15.1953 26.7236 15.1409 26.962 14.9234 27.1787C14.7276 27.3737 14.4991 27.4279 14.3795 27.1787C14.1293 26.6911 13.7704 26.3552 13.2918 26.0951C13.2156 26.0518 13.1612 25.8134 13.2047 25.7158C13.3026 25.575 13.4658 25.4666 13.6072 25.3366Z" fill="#70FF00"/>
<path d="M7.03617 26.7993C6.81863 27.0376 6.70986 27.2002 6.56846 27.2869C6.49231 27.3302 6.32915 27.2652 6.2095 27.2327C6.16599 27.2218 6.12247 27.1677 6.10072 27.1243C5.91581 26.6801 5.61124 26.3875 5.16527 26.1708C4.81719 26.0083 4.88245 25.7157 5.17614 25.4882C5.55685 25.1956 5.75264 25.5424 5.82879 25.7591C5.95931 26.1058 6.1116 26.3333 6.49231 26.42C6.67722 26.4742 6.8295 26.6584 7.03617 26.7993Z" fill="#70FF00"/>
</svg>
