<svg width="48" height="48" viewBox="0 0 48 48" fill="none" xmlns="http://www.w3.org/2000/svg">
<rect y="-0.000732422" width="48" height="48" rx="4" fill="#FF00FE"/>
<path d="M36.2652 18.0732C35.9708 16.9422 35.1033 16.0516 34.0018 15.7493C32.0056 15.2 24.0002 15.2 24.0002 15.2C24.0002 15.2 15.9948 15.2 13.9984 15.7493C12.8969 16.0516 12.0294 16.9422 11.735 18.0732C11.2002 20.1231 11.2002 24.4 11.2002 24.4C11.2002 24.4 11.2002 28.6768 11.735 30.7268C12.0294 31.8578 12.8969 32.7484 13.9984 33.0508C15.9948 33.6 24.0002 33.6 24.0002 33.6C24.0002 33.6 32.0056 33.6 34.0018 33.0508C35.1033 32.7484 35.9708 31.8578 36.2652 30.7268C36.8002 28.6768 36.8002 24.4 36.8002 24.4C36.8002 24.4 36.8002 20.1231 36.2652 18.0732Z" fill="white"/>
<path d="M21.6001 28.8V20.8L28.0001 24.8001L21.6001 28.8Z" fill="#FF00FE"/>
</svg>
