<svg width="1029" height="462" viewBox="0 0 1029 462" fill="none" xmlns="http://www.w3.org/2000/svg">
<g id="dataGraphic">
<g id="message" style='display:none'>
<g id="message-blue">
<rect id="Rectangle 637" x="840" y="84" width="42" height="42" fill="#00FFF9"/>
<rect id="Rectangle 682" x="882" y="210" width="42" height="42" fill="#00FFF9"/>
<rect id="Rectangle 683" x="924" y="252" width="42" height="42" fill="#00FFF9"/>
<rect id="Rectangle 640" x="798" y="147" width="42" height="42" fill="#00FFF9"/>
</g>
<g id="message-gray">
<rect id="Rectangle 694" x="945" y="210" width="21" height="21" fill="#CFD2D0"/>
<rect id="Rectangle 705" x="861" y="378" width="21" height="21" fill="#CFD2D0"/>
<rect id="Rectangle 707" x="924" y="399" width="21" height="21" fill="#CFD2D0"/>
<rect id="Rectangle 621" x="735" y="84" width="21" height="21" fill="#CFD2D0"/>
<rect id="Rectangle 636" x="777" y="168" width="21" height="21" fill="#CFD2D0"/>
<rect id="Rectangle 645" x="798" y="273" width="21" height="21" fill="#CFD2D0"/>
<rect id="Rectangle 623" x="714" y="105" width="21" height="21" fill="#CFD2D0"/>
<rect id="Rectangle 625" x="798" y="21" width="21" height="21" fill="#CFD2D0"/>
<rect id="Rectangle 582" x="504" y="420" width="21" height="21" fill="#CFD2D0"/>
<rect id="Rectangle 669" x="777" y="399" width="21" height="21" fill="#CFD2D0"/>
<rect id="Rectangle 671" x="819" y="420" width="21" height="21" fill="#CFD2D0"/>
<rect id="Rectangle 608" x="588" y="441" width="21" height="21" fill="#CFD2D0"/>
</g>
</g>
<g id="search" style='display:none'>
<g id="search-green">
<rect id="Rectangle 643" x="735" y="189" width="63" height="63" fill="#70FF00"/>
<rect id="Rectangle 657" x="693" y="378" width="63" height="63" fill="#70FF00"/>
</g>
<g id="search-blue">
<rect id="Rectangle 690" x="945" y="105" width="42" height="42" fill="#00FFF9"/>
<rect id="Rectangle 691" x="987" y="147" width="42" height="42" fill="#00FFF9"/>
</g>
<g id="search-gray">
<rect id="Rectangle 536" x="336" y="210" width="21" height="21" fill="#CFD2D0"/>
<rect id="Rectangle 548" x="378" y="84" width="21" height="21" fill="#CFD2D0"/>
<rect id="Rectangle 554" x="336" width="21" height="21" fill="#CFD2D0"/>
<rect id="Rectangle 617" x="756" width="21" height="21" fill="#CFD2D0"/>
<rect id="Rectangle 619" x="735" y="42" width="21" height="21" fill="#CFD2D0"/>
<rect id="Rectangle 631" x="798" y="105" width="21" height="21" fill="#CFD2D0"/>
<rect id="Rectangle 638" x="819" y="84" width="21" height="21" fill="#CFD2D0"/>
<rect id="Rectangle 672" x="903" y="84" width="21" height="21" fill="#CFD2D0"/>
<rect id="Rectangle 673" x="882" y="105" width="21" height="21" fill="#CFD2D0"/>
<rect id="Rectangle 675" x="882" y="147" width="21" height="21" fill="#CFD2D0"/>
<rect id="Rectangle 687" x="945" y="168" width="21" height="21" fill="#CFD2D0"/>
<rect id="Rectangle 696" x="966" y="147" width="21" height="21" fill="#CFD2D0"/>
<rect id="Rectangle 697" x="966" y="189" width="21" height="21" fill="#CFD2D0"/>
<rect id="Rectangle 698" x="966" y="273" width="21" height="21" fill="#CFD2D0"/>
<rect id="Rectangle 699" x="987" y="252" width="21" height="21" fill="#CFD2D0"/>
<rect id="Rectangle 700" x="1008" y="273" width="21" height="21" fill="#CFD2D0"/>
<rect id="Rectangle 701" x="987" y="126" width="21" height="21" fill="#CFD2D0"/>
<rect id="Rectangle 702" x="1008" y="105" width="21" height="21" fill="#CFD2D0"/>
<rect id="Rectangle 695" x="945" y="231" width="21" height="21" fill="#CFD2D0"/>
<rect id="Rectangle 678" x="840" y="210" width="21" height="21" fill="#CFD2D0"/>
<rect id="Rectangle 679" x="861" y="231" width="21" height="21" fill="#CFD2D0"/>
<rect id="Rectangle 703" x="840" y="357" width="21" height="21" fill="#CFD2D0"/>
<rect id="Rectangle 704" x="882" y="357" width="21" height="21" fill="#CFD2D0"/>
<rect id="Rectangle 706" x="903" y="420" width="21" height="21" fill="#CFD2D0"/>
<rect id="Rectangle 708" x="924" y="441" width="21" height="21" fill="#CFD2D0"/>
<rect id="Rectangle 709" x="945" y="420" width="21" height="21" fill="#CFD2D0"/>
<rect id="Rectangle 710" x="966" y="399" width="21" height="21" fill="#CFD2D0"/>
<rect id="Rectangle 711" x="987" y="420" width="21" height="21" fill="#CFD2D0"/>
<rect id="Rectangle 712" x="987" y="441" width="21" height="21" fill="#CFD2D0"/>
<rect id="Rectangle 713" x="1008" y="399" width="21" height="21" fill="#CFD2D0"/>
<rect id="Rectangle 714" x="1008" y="357" width="21" height="21" fill="#CFD2D0"/>
<rect id="Rectangle 715" x="1008" y="336" width="21" height="21" fill="#CFD2D0"/>
<rect id="Rectangle 680" x="840" y="252" width="21" height="21" fill="#CFD2D0"/>
<rect id="Rectangle 681" x="903" y="252" width="21" height="21" fill="#CFD2D0"/>
<rect id="Rectangle 644" x="777" y="252" width="21" height="21" fill="#CFD2D0"/>
<rect id="Rectangle 653" x="672" y="336" width="21" height="21" fill="#CFD2D0"/>
<rect id="Rectangle 654" x="714" y="315" width="21" height="21" fill="#CFD2D0"/>
<rect id="Rectangle 624" x="777" y="21" width="21" height="21" fill="#CFD2D0"/>
<rect id="Rectangle 629" x="756" y="63" width="21" height="21" fill="#CFD2D0"/>
<rect id="Rectangle 626" x="819" width="21" height="21" fill="#CFD2D0"/>
<rect id="Rectangle 592" x="588" y="42" width="21" height="21" fill="#CFD2D0"/>
<rect id="Rectangle 599" x="609" y="168" width="21" height="21" fill="#CFD2D0"/>
<rect id="Rectangle 606" x="630" y="399" width="21" height="21" fill="#CFD2D0"/>
<rect id="Rectangle 661" x="651" y="420" width="21" height="21" fill="#CFD2D0"/>
<rect id="Rectangle 662" x="672" y="441" width="21" height="21" fill="#CFD2D0"/>
<rect id="Rectangle 663" x="714" y="441" width="21" height="21" fill="#CFD2D0"/>
<rect id="Rectangle 667" x="798" y="441" width="21" height="21" fill="#CFD2D0"/>
<rect id="Rectangle 668" x="756" y="420" width="21" height="21" fill="#CFD2D0"/>
<rect id="Rectangle 670" x="756" y="378" width="21" height="21" fill="#CFD2D0"/>
<rect id="Rectangle 665" x="735" y="357" width="21" height="21" fill="#CFD2D0"/>
<rect id="Rectangle 607" x="630" y="441" width="21" height="21" fill="#CFD2D0"/>
<rect id="Rectangle 609" x="567" y="441" width="21" height="21" fill="#CFD2D0"/>
</g>
</g>
<g id="instagram" style='display:none'>
<g id="instagram-blue">
<rect id="Rectangle 611" x="693" y="126" width="42" height="42" fill="#00FFF9"/>
<rect id="Rectangle 646" x="651" y="252" width="42" height="42" fill="#00FFF9"/>
<rect id="Rectangle 656" x="651" y="357" width="42" height="42" fill="#00FFF9"/>
<rect id="Rectangle 647" x="735" y="273" width="42" height="42" fill="#00FFF9"/>
<rect id="Rectangle 658" x="777" y="336" width="42" height="42" fill="#00FFF9"/>
<rect id="Rectangle 659" x="798" y="378" width="42" height="42" fill="#00FFF9"/>
<rect id="Rectangle 612" x="693" y="42" width="42" height="42" fill="#00FFF9"/>
<rect id="Rectangle 642" x="798" y="231" width="42" height="42" fill="#00FFF9"/>
</g>
<g id="instagram-gray">
<rect id="Rectangle 650" x="714" y="273" width="21" height="21" fill="#CFD2D0"/>
<rect id="Rectangle 651" x="693" y="294" width="21" height="21" fill="#CFD2D0"/>
</g>
</g>
<g id="tiktok" style='display:none'>
<g id="tiktok-blue">
<rect id="Rectangle 600" x="609" y="21" width="42" height="42" fill="#00FFF9"/>
<rect id="Rectangle 628" x="798" y="42" width="42" height="42" fill="#00FFF9"/>
<rect id="Rectangle 639" x="840" y="126" width="42" height="42" fill="#00FFF9"/>
<rect id="Rectangle 692" x="987" y="210" width="42" height="42" fill="#00FFF9"/>
<rect id="Rectangle 641" x="798" y="189" width="42" height="42" fill="#00FFF9"/>
<rect id="Rectangle 630" x="756" y="84" width="42" height="42" fill="#00FFF9"/>
<rect id="Rectangle 618" x="714" width="42" height="42" fill="#00FFF9"/>
</g>
<g id="tiktok-gray">
<rect id="Rectangle 446" x="126" y="42" width="21" height="21" fill="#CFD2D0"/>
<rect id="Rectangle 461" y="252" width="21" height="21" fill="#CFD2D0"/>
<rect id="Rectangle 462" x="21" y="273" width="21" height="21" fill="#CFD2D0"/>
<rect id="Rectangle 474" x="21" y="336" width="21" height="21" fill="#CFD2D0"/>
<rect id="Rectangle 476" y="357" width="21" height="21" fill="#CFD2D0"/>
<rect id="Rectangle 480" x="84" y="378" width="21" height="21" fill="#CFD2D0"/>
<rect id="Rectangle 489" x="189" y="378" width="21" height="21" fill="#CFD2D0"/>
<rect id="Rectangle 491" x="210" y="420" width="21" height="21" fill="#CFD2D0"/>
<rect id="Rectangle 558" x="399" y="42" width="21" height="21" fill="#CFD2D0"/>
<rect id="Rectangle 559" x="420" y="63" width="21" height="21" fill="#CFD2D0"/>
<rect id="Rectangle 550" x="441" y="105" width="21" height="21" fill="#CFD2D0"/>
<rect id="Rectangle 542" x="441" y="189" width="21" height="21" fill="#CFD2D0"/>
<rect id="Rectangle 567" x="504" y="168" width="21" height="21" fill="#CFD2D0"/>
<rect id="Rectangle 587" x="525" y="42" width="21" height="21" fill="#CFD2D0"/>
<rect id="Rectangle 595" x="546" y="126" width="21" height="21" fill="#CFD2D0"/>
<rect id="Rectangle 601" x="630" width="21" height="21" fill="#CFD2D0"/>
<rect id="Rectangle 613" x="651" y="21" width="21" height="21" fill="#CFD2D0"/>
<rect id="Rectangle 614" x="672" y="42" width="21" height="21" fill="#CFD2D0"/>
<rect id="Rectangle 615" x="672" width="21" height="21" fill="#CFD2D0"/>
<rect id="Rectangle 616" x="693" y="21" width="21" height="21" fill="#CFD2D0"/>
<rect id="Rectangle 620" x="735" y="63" width="21" height="21" fill="#CFD2D0"/>
<rect id="Rectangle 674" x="903" y="126" width="21" height="21" fill="#CFD2D0"/>
<rect id="Rectangle 676" x="861" y="168" width="21" height="21" fill="#CFD2D0"/>
<rect id="Rectangle 684" x="882" y="189" width="21" height="21" fill="#CFD2D0"/>
<rect id="Rectangle 685" x="903" y="168" width="21" height="21" fill="#CFD2D0"/>
<rect id="Rectangle 686" x="924" y="189" width="21" height="21" fill="#CFD2D0"/>
<rect id="Rectangle 688" x="924" y="147" width="21" height="21" fill="#CFD2D0"/>
<rect id="Rectangle 677" x="840" y="189" width="21" height="21" fill="#CFD2D0"/>
<rect id="Rectangle 632" x="798" y="126" width="21" height="21" fill="#CFD2D0"/>
<rect id="Rectangle 633" x="756" y="147" width="21" height="21" fill="#CFD2D0"/>
<rect id="Rectangle 635" x="777" y="126" width="21" height="21" fill="#CFD2D0"/>
<rect id="Rectangle 649" x="777" y="294" width="21" height="21" fill="#CFD2D0"/>
<rect id="Rectangle 652" x="672" y="315" width="21" height="21" fill="#CFD2D0"/>
<rect id="Rectangle 655" x="756" y="315" width="21" height="21" fill="#CFD2D0"/>
<rect id="Rectangle 634" x="735" y="168" width="21" height="21" fill="#CFD2D0"/>
<rect id="Rectangle 622" x="693" y="84" width="21" height="21" fill="#CFD2D0"/>
<rect id="Rectangle 589" x="546" width="21" height="21" fill="#CFD2D0"/>
<rect id="Rectangle 590" x="567" y="21" width="21" height="21" fill="#CFD2D0"/>
<rect id="Rectangle 591" x="588" width="21" height="21" fill="#CFD2D0"/>
<rect id="Rectangle 574" x="441" y="378" width="21" height="21" fill="#CFD2D0"/>
<rect id="Rectangle 664" x="693" y="357" width="21" height="21" fill="#CFD2D0"/>
<rect id="Rectangle 666" x="735" y="336" width="21" height="21" fill="#CFD2D0"/>
<rect id="Rectangle 535" x="378" y="231" width="21" height="21" fill="#CFD2D0"/>
<rect id="Rectangle 522" x="252" y="357" width="21" height="21" fill="#CFD2D0"/>
<rect id="Rectangle 439" x="126" width="21" height="21" fill="#CFD2D0"/>
<rect id="Rectangle 448" x="126" width="21" height="21" fill="#CFD2D0"/>
<rect id="Rectangle 450" x="168" y="63" width="21" height="21" fill="#CFD2D0"/>
<rect id="Rectangle 459" x="105" y="168" width="21" height="21" fill="#CFD2D0"/>
</g>
</g>
<g id="facebook" style='display:none'>
<g id="facebook-blue">
<rect id="Rectangle 563" x="504" width="42" height="42" fill="#00FFF9"/>
<rect id="Rectangle 597" x="546" y="189" width="42" height="42" fill="#00FFF9"/>
<rect id="Rectangle 573" x="504" y="378" width="42" height="42" fill="#00FFF9"/>
</g>
</g>
<g id="twitter" style='display:none'>
<g id="twitter-blue">
<rect id="Rectangle 438" x="84" width="42" height="42" fill="#00FFF9"/>
<rect id="Rectangle 488" x="189" y="336" width="42" height="42" fill="#00FFF9"/>
<rect id="Rectangle 447" x="147" y="21" width="42" height="42" fill="#00FFF9"/>
<rect id="Rectangle 503" x="294" y="105" width="42" height="42" fill="#00FFF9"/>
<rect id="Rectangle 544" x="441" y="147" width="42" height="42" fill="#00FFF9"/>
<rect id="Rectangle 562" x="483" y="63" width="42" height="42" fill="#00FFF9"/>
<rect id="Rectangle 593" x="546" y="63" width="42" height="42" fill="#00FFF9"/>
<rect id="Rectangle 596" x="546" y="147" width="42" height="42" fill="#00FFF9"/>
<rect id="Rectangle 555" x="357" width="42" height="42" fill="#00FFF9"/>
<rect id="Rectangle 519" x="273" y="357" width="42" height="42" fill="#00FFF9"/>
</g>
<g id="twitter-gray">
<rect id="Rectangle 472" x="168" y="252" width="21" height="21" fill="#CFD2D0"/>
<rect id="Rectangle 495" x="210" y="126" width="21" height="21" fill="#CFD2D0"/>
<rect id="Rectangle 507" x="252" y="168" width="21" height="21" fill="#CFD2D0"/>
<rect id="Rectangle 512" x="294" y="210" width="21" height="21" fill="#CFD2D0"/>
<rect id="Rectangle 521" x="315" y="273" width="21" height="21" fill="#CFD2D0"/>
<rect id="Rectangle 520" x="294" y="294" width="21" height="21" fill="#CFD2D0"/>
<rect id="Rectangle 497" x="210" y="210" width="21" height="21" fill="#CFD2D0"/>
<rect id="Rectangle 499" x="210" y="273" width="21" height="21" fill="#CFD2D0"/>
<rect id="Rectangle 500" x="210" y="315" width="21" height="21" fill="#CFD2D0"/>
<rect id="Rectangle 494" x="189" y="105" width="21" height="21" fill="#CFD2D0"/>
<rect id="Rectangle 452" x="126" y="105" width="21" height="21" fill="#CFD2D0"/>
</g>
</g>
<g id="youtube" style='display:none'>
<g id="youtube-green">
<rect id="Rectangle 564" x="483" y="105" width="63" height="63" fill="#70FF00"/>
<rect id="Rectangle 572" x="483" y="315" width="63" height="63" fill="#70FF00"/>
<rect id="Rectangle 528" x="315" y="399" width="63" height="63" fill="#70FF00"/>
</g>
</g>
<g id="email" style='display:none'>
<g id="email-pink">
<rect id="Rectangle 460" y="126" width="105" height="105" fill="#FF00FE"/>
<rect id="Rectangle 502" x="231" width="105" height="105" fill="#FF00FE"/>
<rect id="Rectangle 529" x="336" y="294" width="105" height="105" fill="#FF00FE"/>
<rect id="Rectangle 586" x="546" y="252" width="105" height="105" fill="#FF00FE"/>
<rect id="Rectangle 594" x="588" y="63" width="105" height="105" fill="#FF00FE"/>
<rect id="Rectangle 689" x="924" width="105" height="105" fill="#FF00FE"/>
<rect id="Rectangle 693" x="903" y="294" width="105" height="105" fill="#FF00FE"/>
</g>
<g id="email-yellow">
<rect id="Rectangle 475" x="42" y="294" width="84" height="84" fill="#FAFF00"/>
<rect id="Rectangle 610" x="651" y="168" width="84" height="84" fill="#FAFF00"/>
<rect id="Rectangle 627" x="840" width="84" height="84" fill="#FAFF00"/>
<rect id="Rectangle 648" x="819" y="273" width="84" height="84" fill="#FAFF00"/>
<rect id="Rectangle 538" x="336" y="105" width="84" height="84" fill="#FAFF00"/>
</g>
<g id="email-green">
<rect id="Rectangle 442" y="42" width="63" height="63" fill="#70FF00"/>
<rect id="Rectangle 660" x="840" y="399" width="63" height="63" fill="#70FF00"/>
<rect id="Rectangle 557" x="441" width="63" height="63" fill="#70FF00"/>
</g>
</g>
<g id="zoom" style='display:none'>
<g id="zoom-blue">
<rect id="Rectangle 436" width="42" height="42" fill="#00FFF9"/>
<rect id="Rectangle 445" x="84" y="63" width="42" height="42" fill="#00FFF9"/>
<rect id="Rectangle 479" x="105" y="378" width="42" height="42" fill="#00FFF9"/>
<rect id="Rectangle 482" x="147" y="400" width="42" height="42" fill="#00FFF9"/>
<rect id="Rectangle 456" x="189" y="63" width="42" height="42" fill="#00FFF9"/>
<rect id="Rectangle 533" x="399" y="252" width="42" height="42" fill="#00FFF9"/>
<rect id="Rectangle 598" x="588" y="210" width="42" height="42" fill="#00FFF9"/>
<rect id="Rectangle 556" x="399" width="42" height="42" fill="#00FFF9"/>
<rect id="Rectangle 570" x="504" y="252" width="42" height="42" fill="#00FFF9"/>
<rect id="Rectangle 585" x="546" y="357" width="42" height="42" fill="#00FFF9"/>
<rect id="Rectangle 517" x="231" y="294" width="42" height="42" fill="#00FFF9"/>
<rect id="Rectangle 518" x="273" y="315" width="42" height="42" fill="#00FFF9"/>
<rect id="Rectangle 453" x="147" y="105" width="42" height="42" fill="#00FFF9"/>
</g>
<rect id="zoom-green" x="273" y="147" width="63" height="63" fill="#70FF00"/>
<g id="zoom-gray">
<rect id="Rectangle 435" x="63" width="21" height="21" fill="#CFD2D0"/>
<rect id="Rectangle 440" x="63" y="42" width="21" height="21" fill="#CFD2D0"/>
<rect id="Rectangle 441" x="63" y="63" width="21" height="21" fill="#CFD2D0"/>
<rect id="Rectangle 443" x="42" y="105" width="21" height="21" fill="#CFD2D0"/>
<rect id="Rectangle 483" x="147" y="357" width="21" height="21" fill="#CFD2D0"/>
<rect id="Rectangle 490" x="189" y="441" width="21" height="21" fill="#CFD2D0"/>
<rect id="Rectangle 484" x="168" y="336" width="21" height="21" fill="#CFD2D0"/>
<rect id="Rectangle 485" x="147" y="315" width="21" height="21" fill="#CFD2D0"/>
<rect id="Rectangle 486" x="126" y="294" width="21" height="21" fill="#CFD2D0"/>
<rect id="Rectangle 464" x="63" y="273" width="21" height="21" fill="#CFD2D0"/>
<rect id="Rectangle 465" x="84" y="252" width="21" height="21" fill="#CFD2D0"/>
<rect id="Rectangle 531" x="357" y="252" width="21" height="21" fill="#CFD2D0"/>
<rect id="Rectangle 547" x="336" y="84" width="21" height="21" fill="#CFD2D0"/>
<rect id="Rectangle 551" x="378" y="63" width="21" height="21" fill="#CFD2D0"/>
<rect id="Rectangle 552" x="357" y="63" width="21" height="21" fill="#CFD2D0"/>
<rect id="Rectangle 553" x="357" y="42" width="21" height="21" fill="#CFD2D0"/>
<rect id="Rectangle 569" x="483" y="231" width="21" height="21" fill="#CFD2D0"/>
<rect id="Rectangle 543" x="441" y="231" width="21" height="21" fill="#CFD2D0"/>
<rect id="Rectangle 575" x="462" y="399" width="21" height="21" fill="#CFD2D0"/>
<rect id="Rectangle 576" x="420" y="399" width="21" height="21" fill="#CFD2D0"/>
<rect id="Rectangle 577" x="420" y="420" width="21" height="21" fill="#CFD2D0"/>
<rect id="Rectangle 524" x="231" y="399" width="21" height="21" fill="#CFD2D0"/>
<rect id="Rectangle 516" x="252" y="273" width="21" height="21" fill="#CFD2D0"/>
<rect id="Rectangle 504" x="252" y="105" width="21" height="21" fill="#CFD2D0"/>
<rect id="Rectangle 505" x="273" y="126" width="21" height="21" fill="#CFD2D0"/>
<rect id="Rectangle 444" x="84" y="105" width="21" height="21" fill="#CFD2D0"/>
<rect id="Rectangle 458" x="126" y="147" width="21" height="21" fill="#CFD2D0"/>
<rect id="Rectangle 437" x="42" y="21" width="21" height="21" fill="#CFD2D0"/>
<rect id="Rectangle 470" x="168" y="210" width="42" height="42" fill="#00FFF9"/>
</g>
</g>
<g id="netflix" style='display:none'>
<g id="netflix-blue">
<rect id="Rectangle 463" x="42" y="231" width="42" height="42" fill="#00FFF9"/>
<rect id="Rectangle 473" y="294" width="42" height="42" fill="#00FFF9"/>
<rect id="Rectangle 477" y="378" width="42" height="42" fill="#00FFF9"/>
<rect id="Rectangle 478" x="42" y="420" width="42" height="42" fill="#00FFF9"/>
<rect id="Rectangle 469" x="126" y="231" width="42" height="42" fill="#00FFF9"/>
<rect id="Rectangle 471" x="168" y="273" width="42" height="42" fill="#00FFF9"/>
<rect id="Rectangle 537" x="357" y="189" width="42" height="42" fill="#00FFF9"/>
<rect id="Rectangle 534" x="441" y="252" width="42" height="42" fill="#00FFF9"/>
<rect id="Rectangle 566" x="483" y="189" width="42" height="42" fill="#00FFF9"/>
<rect id="Rectangle 546" x="441" y="315" width="42" height="42" fill="#00FFF9"/>
<rect id="Rectangle 509" x="231" y="189" width="42" height="42" fill="#00FFF9"/>
<rect id="Rectangle 457" x="147" y="147" width="42" height="42" fill="#00FFF9"/>
</g>
<g id="netflix-gray">
<rect id="Rectangle 481" x="126" y="441" width="21" height="21" fill="#CFD2D0"/>
<rect id="Rectangle 487" x="105" y="273" width="21" height="21" fill="#CFD2D0"/>
<rect id="Rectangle 466" x="105" y="231" width="21" height="21" fill="#CFD2D0"/>
<rect id="Rectangle 467" x="126" y="210" width="21" height="21" fill="#CFD2D0"/>
<rect id="Rectangle 468" x="147" y="189" width="21" height="21" fill="#CFD2D0"/>
<rect id="Rectangle 492" x="189" y="189" width="21" height="21" fill="#CFD2D0"/>
<rect id="Rectangle 493" x="189" y="147" width="21" height="21" fill="#CFD2D0"/>
<rect id="Rectangle 506" x="231" y="147" width="21" height="21" fill="#CFD2D0"/>
<rect id="Rectangle 510" x="231" y="231" width="21" height="21" fill="#CFD2D0"/>
<rect id="Rectangle 511" x="273" y="231" width="21" height="21" fill="#CFD2D0"/>
<rect id="Rectangle 513" x="315" y="231" width="21" height="21" fill="#CFD2D0"/>
<rect id="Rectangle 514" x="294" y="252" width="21" height="21" fill="#CFD2D0"/>
<rect id="Rectangle 530" x="336" y="273" width="21" height="21" fill="#CFD2D0"/>
<rect id="Rectangle 560" x="441" y="63" width="21" height="21" fill="#CFD2D0"/>
<rect id="Rectangle 561" x="462" y="84" width="21" height="21" fill="#CFD2D0"/>
<rect id="Rectangle 549" x="420" y="84" width="21" height="21" fill="#CFD2D0"/>
<rect id="Rectangle 539" x="399" y="210" width="21" height="21" fill="#CFD2D0"/>
<rect id="Rectangle 540" x="420" y="189" width="21" height="21" fill="#CFD2D0"/>
<rect id="Rectangle 545" x="462" y="126" width="21" height="21" fill="#CFD2D0"/>
<rect id="Rectangle 565" x="462" y="210" width="21" height="21" fill="#CFD2D0"/>
<rect id="Rectangle 571" x="525" y="231" width="21" height="21" fill="#CFD2D0"/>
<rect id="Rectangle 568" x="525" y="189" width="21" height="21" fill="#CFD2D0"/>
<rect id="Rectangle 588" x="546" y="42" width="21" height="21" fill="#CFD2D0"/>
<rect id="Rectangle 541" x="420" y="231" width="21" height="21" fill="#CFD2D0"/>
<rect id="Rectangle 581" x="483" y="420" width="21" height="21" fill="#CFD2D0"/>
<rect id="Rectangle 583" x="525" y="441" width="21" height="21" fill="#CFD2D0"/>
<rect id="Rectangle 584" x="546" y="420" width="21" height="21" fill="#CFD2D0"/>
<rect id="Rectangle 602" x="609" y="378" width="21" height="21" fill="#CFD2D0"/>
<rect id="Rectangle 603" x="588" y="357" width="21" height="21" fill="#CFD2D0"/>
<rect id="Rectangle 604" x="588" y="399" width="21" height="21" fill="#CFD2D0"/>
<rect id="Rectangle 605" x="609" y="420" width="21" height="21" fill="#CFD2D0"/>
<rect id="Rectangle 578" x="378" y="420" width="21" height="21" fill="#CFD2D0"/>
<rect id="Rectangle 579" x="399" y="441" width="21" height="21" fill="#CFD2D0"/>
<rect id="Rectangle 580" x="441" y="441" width="21" height="21" fill="#CFD2D0"/>
<rect id="Rectangle 532" x="378" y="273" width="21" height="21" fill="#CFD2D0"/>
<rect id="Rectangle 523" x="231" y="336" width="21" height="21" fill="#CFD2D0"/>
<rect id="Rectangle 526" x="273" y="420" width="21" height="21" fill="#CFD2D0"/>
<rect id="Rectangle 527" x="294" y="441" width="21" height="21" fill="#CFD2D0"/>
<rect id="Rectangle 525" x="294" y="399" width="21" height="21" fill="#CFD2D0"/>
<rect id="Rectangle 515" x="252" y="252" width="21" height="21" fill="#CFD2D0"/>
<rect id="Rectangle 496" x="210" y="168" width="21" height="21" fill="#CFD2D0"/>
<rect id="Rectangle 498" x="210" y="252" width="21" height="21" fill="#CFD2D0"/>
<rect id="Rectangle 501" x="210" y="315" width="21" height="21" fill="#CFD2D0"/>
<rect id="Rectangle 449" x="168" width="21" height="21" fill="#CFD2D0"/>
<rect id="Rectangle 454" x="189" y="21" width="21" height="21" fill="#CFD2D0"/>
<rect id="Rectangle 455" x="210" y="42" width="21" height="21" fill="#CFD2D0"/>
<rect id="Rectangle 451" x="147" y="84" width="21" height="21" fill="#CFD2D0"/>
</g>
</g>
</g>
</svg>
