<svg width="31" height="28" viewBox="0 0 31 28" fill="none" xmlns="http://www.w3.org/2000/svg">
<path d="M28.4513 10.826L26.2992 3.65241C25.8085 2.01643 24.3317 0.917969 22.6245 0.917969H8.21815C6.51099 0.917969 5.0342 2.01643 4.54349 3.65241L2.39141 10.826C1.0325 11.4166 0.0784912 12.7689 0.0784912 14.343V22.0144C0.0784912 23.0735 0.93722 23.9323 1.99635 23.9323H1.99647L1.99635 25.85C1.99635 26.9092 2.85496 27.768 3.91421 27.768H5.83218C6.89131 27.768 7.75004 26.9092 7.75004 25.8501L7.74922 23.9323H23.0928L23.0927 25.85C23.0927 26.9092 23.9513 27.768 25.0105 27.768H26.9285C27.9877 27.768 28.8463 26.9092 28.8463 25.8501V23.9324L28.8456 23.9323H28.8463C29.9055 23.9323 30.7642 23.0735 30.7642 22.0144V14.343C30.7642 12.7689 29.8102 11.4165 28.4513 10.826L28.4513 10.826ZM8.21809 4.75368H22.6245L24.3506 10.5073H6.49197L8.21808 4.75368H8.21809ZM7.74986 19.1376C6.69061 19.1376 5.832 18.2789 5.832 17.2198C5.832 16.1605 6.69061 15.3019 7.74986 15.3019C8.80911 15.3019 9.66772 16.1605 9.66772 17.2198C9.66772 18.2789 8.80911 19.1376 7.74986 19.1376ZM23.0927 19.1376C22.0335 19.1376 21.1749 18.2789 21.1749 17.2198C21.1749 16.1605 22.0335 15.3019 23.0927 15.3019C24.152 15.3019 25.0106 16.1605 25.0106 17.2198C25.0106 18.2789 24.152 19.1376 23.0927 19.1376Z" fill="#FAFF00"/>
</svg>
