<svg id="레이어_1" data-name="레이어 1" xmlns="http://www.w3.org/2000/svg" viewBox="0 0 45 37"><defs><style>.cls-1{fill:none;stroke:#fff;stroke-linecap:round;stroke-linejoin:round;stroke-width:2px;}</style></defs><path class="cls-1" d="M41.67,13.1c-1.39-1.85-1.39-1.85-1.39-3h0A8.59,8.59,0,0,0,31.69,1.5H13.59A8.59,8.59,0,0,0,5,10.09H5c0,1.16,0,1.16-1.39,3-1.85,2.32-2.32,3.12-2.32,5.82v7.86A5.83,5.83,0,0,0,7.11,32.6H38.17A5.82,5.82,0,0,0,44,26.78V18.92C44,16.22,43.53,15.42,41.67,13.1Z"/><path class="cls-1" d="M14.94,5H30.34a5.78,5.78,0,0,1,5.78,5.78V13a0,0,0,0,1,0,0h-27a0,0,0,0,1,0,0V10.78A5.78,5.78,0,0,1,14.94,5Z"/><circle class="cls-1" cx="9.18" cy="24.01" r="3.02"/><circle class="cls-1" cx="36.1" cy="24.01" r="3.02"/><path class="cls-1" d="M12.2,32.36a3,3,0,1,1-6,0"/><path class="cls-1" d="M39.12,32.36a3,3,0,1,1-6,0"/></svg>