<svg id="레이어_1" data-name="레이어 1" xmlns="http://www.w3.org/2000/svg" viewBox="0 0 37 48"><defs><style>.cls-1{fill:none;stroke:#fff;stroke-linecap:round;stroke-linejoin:round;stroke-width:2px;}</style></defs><path class="cls-1" d="M28.36,19.31A6.32,6.32,0,0,0,24,9.29a5.83,5.83,0,0,0,.24-1.68A6.11,6.11,0,1,0,12,7.61a6.18,6.18,0,0,0,.25,1.73,6.32,6.32,0,0,0-4,10,7.74,7.74,0,0,0,.53,15.47h19a7.75,7.75,0,0,0,.63-15.47Z"/><line class="cls-1" x1="18.24" y1="11.87" x2="18.24" y2="47"/><line class="cls-1" x1="18.24" y1="20.16" x2="23.1" y2="15.3"/><line class="cls-1" x1="17.91" y1="34.78" x2="8.75" y2="25.61"/></svg>