<svg width="40" height="40" viewBox="0 0 40 40" fill="none" xmlns="http://www.w3.org/2000/svg">
<path d="M21.0996 16H20.2996H19.7996H19.0996V21H17.0996L20.0996 24L23.0996 21H21.0996V16Z" fill="current"/>
<path d="M20 0C9 0 0 9 0 20C0 31 9 40 20 40C31 40 40 31 40 20C40 9 31 0 20 0ZM20.1 7.4L22 10.6H18.3L20.1 7.4ZM14.6 12.1L12 14.7L11.1 11.1L14.6 12.1ZM10.5 22.1L7.3 20.2L10.5 18.3V22.1ZM11.1 29.3L12 25.7L14.6 28.3L11.1 29.3ZM20.1 33L18.2 29.8H21.9L20.1 33ZM20.1 27.1C16.3 27.1 13.2 24 13.2 20.2C13.2 16.4 16.3 13.3 20.1 13.3C23.9 13.3 27 16.4 27 20.2C27 24 23.9 27.1 20.1 27.1ZM25.6 28.3L28.2 25.7L29.1 29.3L25.6 28.3ZM28.2 14.7L25.6 12.1L29.2 11.2L28.2 14.7ZM29.7 22.1V18.4L32.9 20.3L29.7 22.1Z" fill="current"/>
</svg>
