<svg width="40" height="40" viewBox="0 0 40 40" fill="none" xmlns="http://www.w3.org/2000/svg">
<path d="M25.6669 18.5C25.4169 18.1667 24.9169 18.1667 24.6669 18.5L21.3336 22.4167C21.0836 22.75 21.2503 23 21.7503 23H23.6669V29.3333C23.6669 29.75 24.0836 30 24.5836 30H25.7503C26.2503 30 26.6669 29.6667 26.6669 29.3333V23H28.5836C29.0836 23 29.2503 22.75 29.0003 22.4167L25.6669 18.5Z" fill="current"/>
<path d="M20 0C8.91667 0 0 8.91667 0 20C0 31.0833 8.91667 40 20 40C31.0833 40 40 31.0833 40 20C40 8.91667 31.0833 0 20 0ZM30.3333 25.0833C29.6667 25.5833 28.9167 25.9167 28 25.9167H27.0833V29.25C27.0833 29.8333 26.5 30.3333 25.75 30.3333H24.5833C23.8333 30.3333 23.25 29.8333 23.25 29.25V25.9167H11.75C9.75 25.9167 8.08333 24.25 8.08333 22.25C8.08333 20.25 9.75 18.5833 11.75 18.5833H13.4167C13.5 15 16.4167 12.0833 20.0833 12.0833C22.8333 12.0833 25.25 13.75 26.25 16.1667H27.75C30.4167 16.1667 32.6667 18.3333 32.6667 21.0833C32.5 22.75 31.6667 24.25 30.3333 25.0833Z" fill="current"/>
</svg>
