<svg width="40" height="40" viewBox="0 0 40 40" fill="none" xmlns="http://www.w3.org/2000/svg">
<path d="M20 0C9 0 0 9 0 20C0 31 9 40 20 40C31 40 40 31 40 20C40 9 31 0 20 0ZM24.7 17.6L25.9 17.4C26 17.4 26 17.4 26 17.3L26.5 16.2C26.6 16.1 26.8 16.1 26.9 16.2L27.4 17.3C27.4 17.4 27.5 17.4 27.5 17.4L28.7 17.6C28.9 17.6 28.9 17.8 28.8 17.9L27.9 18.7C27.9 18.7 27.8 18.8 27.8 18.9L28 20.1C28 20.3 27.9 20.4 27.7 20.3L26.6 19.7C26.5 19.7 26.5 19.7 26.4 19.7L25.3 20.3C25.2 20.4 25 20.3 25 20.1L25.2 18.9C25.2 18.8 25.2 18.8 25.1 18.7L24.6 18C24.5 17.8 24.6 17.6 24.7 17.6ZM26.4 30.3C20.9 33.4 14 31.4 10.9 25.9C7.8 20.4 9.8 13.5 15.3 10.4C17.9 8.9 20.9 8.6 23.6 9.3C22.5 9.5 21.4 9.8 20.4 10.4C16 12.9 14.4 18.5 16.9 22.9C19.4 27.3 25 28.9 29.4 26.4C30.1 26 30.8 25.5 31.4 24.9C30.3 27.1 28.7 29 26.4 30.3Z" fill="current"/>
</svg>
