<svg width="40" height="40" viewBox="0 0 40 40" fill="none" xmlns="http://www.w3.org/2000/svg">
<path d="M20 0C8.91667 0 0 8.91667 0 20C0 31.0833 8.91667 40 20 40C31.0833 40 40 31.0833 40 20C40 8.91667 31.0833 0 20 0ZM11.25 12.75H28.75C29.25 12.75 29.3333 13 28.9167 13.25L20.75 18.9167C20.3333 19.1667 19.6667 19.1667 19.25 18.9167L11.0833 13.25C10.6667 12.9167 10.75 12.75 11.25 12.75ZM29.6667 26.25C29.6667 26.8333 29.25 27.3333 28.75 27.3333H11.25C10.75 27.3333 10.3333 26.8333 10.3333 26.25V13.8333L19.5833 20.25C19.75 20.3333 20.0833 20.5 20.5833 20.1667L29.6667 13.8333V26.25Z" fill="current"/>
</svg>
