<svg width="40" height="40" viewBox="0 0 40 40" fill="none" xmlns="http://www.w3.org/2000/svg">
<path d="M20 0C9 0 0 9 0 20C0 31 9 40 20 40C31 40 40 31 40 20C40 9 31 0 20 0ZM13.6 29C13.5 29.1 13.4 29.2 13.3 29.2C13.2 29.2 13.1 29.3 13 29.3C12.9 29.3 12.9 29.3 12.8 29.3C12.7 29.3 12.6 29.2 12.5 29.2C12.5 29.2 12.5 29.2 12.4 29.2C12.4 29.2 12.4 29.2 12.3 29.1C9.8 27 8.3 24 8.1 20.7V20.5C8.1 20.3 8.1 20.1 8.1 19.9C8.1 13.4 13.4 8 20 8C20.2 8 20.4 8 20.6 8H20.8C21.3 8 21.6 8.4 21.6 8.9C21.6 9.4 21.2 9.7 20.7 9.7H20.5C20.4 9.7 20.2 9.7 20.1 9.7C14.4 9.8 9.8 14.4 9.8 20C9.8 20.2 9.8 20.3 9.8 20.5V20.7C10 23.5 11.3 26.1 13.4 27.9C13.5 27.9 13.5 28 13.6 28.1C13.7 28.3 13.8 28.5 13.7 28.7C13.8 28.8 13.7 28.9 13.6 29ZM13.8 20L24.8 9L22.2 20H26.2L15.2 31L17.8 20H13.8ZM20 31.9C19.8 31.9 19.6 31.9 19.4 31.9H19.2C18.7 31.9 18.4 31.5 18.4 31C18.4 30.5 18.8 30.2 19.3 30.2H19.5C19.7 30.2 19.8 30.2 20 30.2C25.6 30.2 30.2 25.6 30.2 20C30.2 19.9 30.2 19.7 30.2 19.6V19.4C30 16.6 28.7 14 26.6 12.2L26.5 12.1C26.3 11.9 26.3 11.7 26.3 11.4C26.3 11.3 26.4 11.2 26.5 11.1L26.6 11C26.7 10.9 26.7 10.9 26.8 10.8C26.8 10.8 26.8 10.8 26.9 10.8C26.9 10.8 26.9 10.8 27 10.8C27.1 10.8 27.2 10.8 27.3 10.8H27.4C27.5 10.8 27.6 10.9 27.7 10.9C27.7 10.9 27.7 10.9 27.8 10.9C30.3 13 31.9 16 32.1 19.3V19.5C32.1 19.7 32.1 19.9 32.1 20.1C31.9 26.5 26.5 31.9 20 31.9Z" fill="current"/>
</svg>
