<svg width="40" height="40" viewBox="0 0 40 40" fill="none" xmlns="http://www.w3.org/2000/svg">
<path fill-rule="evenodd" clip-rule="evenodd" d="M20 0C8.9543 0 0 8.9543 0 20C0 31.0457 8.9543 40 20 40C31.0457 40 40 31.0457 40 20C40 8.9543 31.0457 0 20 0ZM6.66637 19.6794C6.66637 13.8734 12.6359 9.16659 19.9997 9.16659C27.3636 9.16659 33.333 13.8734 33.333 19.6794C33.333 25.4856 27.3636 30.1922 19.9997 30.1922C19.1915 30.1922 18.4001 30.1357 17.6315 30.0269C16.8621 30.569 12.4171 33.6913 11.9977 33.7499C11.9977 33.7499 11.8256 33.8169 11.6793 33.7307C11.533 33.6445 11.5596 33.4186 11.5596 33.4186C11.6037 33.118 12.7119 29.2911 12.9161 28.5867C9.16201 26.7269 6.66637 23.4331 6.66637 19.6794Z" fill="current"/>
<path d="M12.6287 23.3495C12.2044 23.3495 11.8594 23.02 11.8594 22.6149V18.045H10.6592C10.2429 18.045 9.9043 17.707 9.9043 17.2918C9.9043 16.8765 10.243 16.5386 10.6592 16.5386H14.5981C15.0144 16.5386 15.353 16.8765 15.353 17.2918C15.353 17.707 15.0143 18.045 14.5981 18.045H13.3979V22.6149C13.3979 23.02 13.0529 23.3495 12.6287 23.3495ZM19.3738 23.3395C19.053 23.3395 18.8076 23.2092 18.7337 22.9997L18.3528 22.0025L16.0071 22.0024L15.626 23.0002C15.5522 23.2093 15.307 23.3395 14.9862 23.3395C14.8175 23.3396 14.6507 23.3034 14.4972 23.2333C14.2852 23.1355 14.0813 22.8665 14.3149 22.141L16.1549 17.2979C16.2846 16.9296 16.6783 16.5501 17.1793 16.5387C17.6817 16.55 18.0754 16.9296 18.2053 17.2987L20.0446 22.1396C20.2787 22.8668 20.0748 23.1359 19.8628 23.2334C19.7093 23.3034 19.5425 23.3396 19.3738 23.3395C19.3738 23.3395 19.3737 23.3395 19.3738 23.3395ZM17.9483 20.64L17.1799 18.4573L16.4116 20.64H17.9483ZM21.2825 23.2373C20.876 23.2373 20.5453 22.9209 20.5453 22.5322V17.3078C20.5453 16.8836 20.8976 16.5386 21.3306 16.5386C21.7635 16.5386 22.1158 16.8836 22.1158 17.3078V21.827H23.7505C24.157 21.827 24.4876 22.1434 24.4876 22.5322C24.4876 22.9209 24.157 23.2373 23.7505 23.2373H21.2825ZM25.5561 23.3395C25.1319 23.3395 24.7869 22.9945 24.7869 22.5702V17.3078C24.7869 16.8836 25.1319 16.5386 25.5561 16.5386C25.9803 16.5386 26.3253 16.8836 26.3253 17.3078V18.9611L28.4715 16.815C28.5819 16.7046 28.7335 16.6438 28.8981 16.6438C29.0902 16.6438 29.283 16.7267 29.4275 16.871C29.5622 17.0056 29.6426 17.1788 29.6537 17.3587C29.6648 17.5401 29.6044 17.7064 29.4839 17.827L27.731 19.5797L29.6244 22.0882C29.6856 22.1687 29.7301 22.2605 29.7554 22.3583C29.7808 22.4561 29.7865 22.558 29.7721 22.6581C29.7584 22.7582 29.725 22.8545 29.6737 22.9416C29.6225 23.0287 29.5545 23.1048 29.4737 23.1654C29.3406 23.2665 29.178 23.321 29.011 23.3206C28.8918 23.3212 28.7741 23.2938 28.6674 23.2407C28.5607 23.1876 28.4679 23.1103 28.3965 23.0149L26.5925 20.6246L26.3256 20.8915V22.5699C26.3253 22.7739 26.2442 22.9695 26.0999 23.1137C25.9557 23.258 25.7601 23.3392 25.5561 23.3395Z" fill="current"/>
</svg>
