<svg width="40" height="40" viewBox="0 0 40 40" fill="none" xmlns="http://www.w3.org/2000/svg">
<path d="M14.7004 18.6001C14.2004 18.6001 13.9004 19.0001 13.9004 19.4001C13.9004 19.8001 14.3004 20.2001 14.7004 20.2001C15.2004 20.2001 15.5004 19.8001 15.5004 19.4001C15.5004 19.0001 15.2004 18.6001 14.7004 18.6001Z" fill="current"/>
<path d="M20.0998 18.6001C19.5998 18.6001 19.2998 19.0001 19.2998 19.4001C19.2998 19.8001 19.6998 20.2001 20.0998 20.2001C20.5998 20.2001 20.8998 19.8001 20.8998 19.4001C20.8998 19.0001 20.5998 18.6001 20.0998 18.6001Z" fill="current"/>
<path d="M20 0C9 0 0 9 0 20C0 31 9 40 20 40C31 40 40 31 40 20C40 9 31 0 20 0ZM25.8 26.5L23.2 30L20.8 26.8H16.5C12.4 26.8 9 23.5 9 19.3C9 15.2 12.3 11.8 16.5 11.8H23.5C27.6 11.8 31 15.1 31 19.3C30.9 22.7 28.8 25.5 25.8 26.5Z" fill="current"/>
<path d="M25.5998 18.6001C25.0998 18.6001 24.7998 19.0001 24.7998 19.4001C24.7998 19.8001 25.1998 20.2001 25.5998 20.2001C26.0998 20.2001 26.3998 19.8001 26.3998 19.4001C26.3998 19.0001 25.9998 18.6001 25.5998 18.6001Z" fill="current"/>
</svg>
