<svg width="40" height="40" viewBox="0 0 40 40" fill="none" xmlns="http://www.w3.org/2000/svg">
<path d="M20 0C9 0 0 9 0 20C0 31 9 40 20 40C31 40 40 31 40 20C40 9 31 0 20 0ZM20 29.4C18.9 29.4 18 28.5 18 27.4C18 26.3 18.9 25.4 20 25.4C21.1 25.4 22 26.3 22 27.4C22 28.5 21.1 29.4 20 29.4ZM26 23.9C25.6 24.3 25 24.3 24.6 23.9C23.4 22.7 21.7 22 20 22C18.3 22 16.6 22.7 15.4 23.9C15.2 24.1 14.9 24.2 14.7 24.2C14.4 24.2 14.2 24.1 14 23.9C13.6 23.5 13.6 22.9 14 22.5C15.6 20.9 17.7 20 20 20C22.3 20 24.4 20.9 26 22.5C26.4 22.9 26.4 23.6 26 23.9ZM29.4 20.6C29.2 20.8 28.9 20.9 28.7 20.9C28.4 20.9 28.2 20.8 28 20.6C25.9 18.5 23.1 17.3 20.1 17.3C17.1 17.3 14.3 18.5 12.2 20.6C11.8 21 11.2 21 10.8 20.6C10.4 20.2 10.4 19.6 10.8 19.2C13.3 16.7 16.6 15.3 20.2 15.3C23.7 15.3 27.1 16.7 29.6 19.2C29.7 19.6 29.7 20.2 29.4 20.6ZM32.7 17.2C32.5 17.4 32.2 17.5 32 17.5C31.7 17.5 31.5 17.4 31.3 17.2C28.3 14.2 24.3 12.5 20 12.5C15.7 12.5 11.7 14.2 8.7 17.2C8.3 17.6 7.7 17.6 7.3 17.2C6.9 16.8 6.9 16.2 7.3 15.8C10.7 12.4 15.2 10.5 20 10.5C24.8 10.5 29.3 12.4 32.7 15.8C33.1 16.2 33.1 16.8 32.7 17.2Z" fill="current"/>
</svg>
