<svg width="40" height="40" viewBox="0 0 40 40" fill="none" xmlns="http://www.w3.org/2000/svg">
<path fill-rule="evenodd" clip-rule="evenodd" d="M20 40C8.9543 40 0 31.0457 0 20C0 8.9543 8.9543 0 20 0C31.0457 0 40 8.9543 40 20C40 31.0457 31.0457 40 20 40ZM6.95652 13.7394V23.1306C6.95652 25.2436 8.6868 26.9565 10.8194 26.9565H24.5155C24.9032 26.9565 25.2174 26.6448 25.2174 26.2606V16.8694C25.2174 14.7564 23.4871 13.0435 21.3545 13.0435H7.65839C7.27076 13.0435 6.95652 13.3552 6.95652 13.7394ZM26.087 22.6125V17.4033L31.7391 13.2794C32.2319 12.8764 32.6087 12.9699 32.6087 13.7135V26.3023C32.6087 27.1364 32.1391 27.0419 31.7391 26.7364L26.087 22.6125Z" fill="current"/>
</svg>
